<?xml version="1.0" encoding="UTF-8" standalone="no"?>
<!-- Created with Inkscape (http://www.inkscape.org/) -->

<svg
   xmlns:dc="http://purl.org/dc/elements/1.1/"
   xmlns:cc="http://creativecommons.org/ns#"
   xmlns:rdf="http://www.w3.org/1999/02/22-rdf-syntax-ns#"
   xmlns:svg="http://www.w3.org/2000/svg"
   xmlns="http://www.w3.org/2000/svg"
   xmlns:sodipodi="http://sodipodi.sourceforge.net/DTD/sodipodi-0.dtd"
   xmlns:inkscape="http://www.inkscape.org/namespaces/inkscape"
   width="210mm"
   height="297mm"
   viewBox="0 0 210 297"
   version="1.1"
   id="svg146"
   sodipodi:docname="mainplanet.svg"
   inkscape:export-filename="C:\Users\suilt14\Desktop\site\public\mainplanet.png"
   inkscape:export-xdpi="96"
   inkscape:export-ydpi="96"
   inkscape:version="0.92.1 r15371">
  <defs
     id="defs140" />
  <sodipodi:namedview
     id="base"
     pagecolor="#ffffff"
     bordercolor="#666666"
     borderopacity="1.0"
     inkscape:pageopacity="0.0"
     inkscape:pageshadow="2"
     inkscape:zoom="1.4"
     inkscape:cx="600.75879"
     inkscape:cy="747.04489"
     inkscape:document-units="mm"
     inkscape:current-layer="layer1"
     showgrid="false"
     inkscape:window-width="1600"
     inkscape:window-height="837"
     inkscape:window-x="-8"
     inkscape:window-y="-8"
     inkscape:window-maximized="1" />
  <metadata
     id="metadata143">
    <rdf:RDF>
      <cc:Work
         rdf:about="">
        <dc:format>image/svg+xml</dc:format>
        <dc:type
           rdf:resource="http://purl.org/dc/dcmitype/StillImage" />
      </cc:Work>
    </rdf:RDF>
  </metadata>
  <g
     inkscape:label="Layer 1"
     inkscape:groupmode="layer"
     id="layer1">
    <path
       style="fill:none;stroke:#000000;stroke-width:0.26458332px;stroke-linecap:butt;stroke-linejoin:miter;stroke-opacity:1"
       d="m 210.78099,105.37311 c 0.68748,-11.813989 -4.66314,-23.965249 -15.52319,-29.591299 -3.92169,-1.71515 -8.29424,-2.22867 -12.29172,-3.86547 -4.1372,-1.44953 -8.77213,-1.65089 -12.81005,0.21342 -9.16037,3.3477 -17.89547,8.39523 -24.62034,15.53067 -5.81867,6.9347 -6.19511,16.388169 -7.23465,24.958969 -0.66351,3.93131 -1.04878,8.03731 0.0499,11.9303"
       id="path87"
       inkscape:connector-curvature="0"
       sodipodi:nodetypes="ccccccc" />
    <path
       style="fill:none;stroke:#000000;stroke-width:0.26458332px;stroke-linecap:butt;stroke-linejoin:miter;stroke-opacity:1"
       d="m 138.35094,124.5497 c 6.30573,-1.28227 12.31741,-3.71955 18.63632,-4.94023 8.92393,-0.56652 16.9779,-4.07479 25.28549,-6.74179 9.4195,-0.22057 17.22846,-6.33408 26.39892,-7.55256 6.94024,1.45386 10.37267,-11.311879 2.07222,-12.085929 -0.56455,-0.11006 -0.9855,0.63546 -1.36607,-0.0837"
       id="path96"
       inkscape:connector-curvature="0"
       sodipodi:nodetypes="cccccc" />
    <path
       style="fill:none;stroke:#000000;stroke-width:0.26458332px;stroke-linecap:butt;stroke-linejoin:miter;stroke-opacity:1"
       d="m 138.35094,124.5497 v 0 c -1.79075,0.52295 -5.11575,2.51891 -7.04522,2.23779 -2.08036,-0.20977 -2.58051,-2.5289 -2.98667,-4.20013 -0.64244,-2.42797 0.33534,-4.96661 2.1323,-6.644 1.62122,-1.30332 3.53327,-2.24585 5.31311,-3.30109 0.66621,-0.19399 1.70209,-0.1485 2.38603,-0.11969"
       id="path100"
       inkscape:connector-curvature="0"
       sodipodi:nodetypes="ccccccc" />
    <path
       style="fill:none;stroke:#000000;stroke-width:0.26458332px;stroke-linecap:butt;stroke-linejoin:miter;stroke-opacity:1"
       d="m 138.44371,111.32867 c -2.97837,-0.7956 -6.20431,0.10923 -8.82027,1.57939 -3.14794,2.30841 -4.6104,6.07802 -6.25022,9.47656 -0.96776,1.94956 -1.58631,4.04775 -1.6313,6.23612"
       id="path118"
       inkscape:connector-curvature="0" />
    <path
       style="fill:none;stroke:#000000;stroke-width:0.26458332px;stroke-linecap:butt;stroke-linejoin:miter;stroke-opacity:1"
       d="m 121.74192,128.62074 c 3.25046,7.95486 13.68849,6.18387 20.52885,5.33497 11.59519,-2.29033 22.73275,-6.74273 34.57279,-7.76642 11.27231,-3.62829 23.74914,-5.28058 33.71316,-11.84984 5.37929,-4.34132 10.44383,-11.7898 8.00769,-18.880389"
       id="path130"
       inkscape:connector-curvature="0"
       sodipodi:nodetypes="ccccc" />
    <path
       style="fill:none;stroke:#000000;stroke-width:0.26458332px;stroke-linecap:butt;stroke-linejoin:miter;stroke-opacity:1"
       d="m 209.07801,92.240881 c 0.8263,-0.0609 1.65927,-0.39408 2.47654,-0.0949 0.82901,0.1828 1.64817,0.40749 2.47787,0.58729 0.55609,0.51328 1.29087,0.6807 1.95491,0.96316 0.76334,0.44476 1.57419,0.81799 2.17254,1.48283 l 0.14369,0.0691 0.31932,0.36939"
       id="path144"
       inkscape:connector-curvature="0"
       sodipodi:nodetypes="ccccccc" />
    <path
       style="fill:none;stroke:#000000;stroke-width:0.26458332px;stroke-linecap:butt;stroke-linejoin:miter;stroke-opacity:1"
       d="m 218.46418,95.283661 5.3e-4,5.29e-4"
       id="path150"
       inkscape:connector-curvature="0" />
    <path
       style="fill:none;stroke:#000000;stroke-width:0.26458332px;stroke-linecap:butt;stroke-linejoin:miter;stroke-opacity:1"
       d="m 142.27077,133.95571 c 5.36899,9.88708 18.14738,9.81803 27.91625,9.09072 7.35921,-0.48917 15.36844,-0.15249 21.09943,-5.70469 6.83752,-5.75317 14.29579,-11.98372 17.34837,-20.66539 -0.0142,-1.12315 1.09785,-1.8452 1.9219,-2.3369"
       id="path154"
       inkscape:connector-curvature="0" />
    <path
       style="fill:none;stroke:#000000;stroke-width:0.26458332px;stroke-linecap:butt;stroke-linejoin:miter;stroke-opacity:1"
       d="m 150.37807,94.080971 c 1.06675,-1.21249 2.58096,-2.52734 4.29117,-3.3206 1.68292,-1.32043 3.86444,-1.25977 5.88975,-1.21508 1.85823,-0.10393 3.43672,1.21399 4.72737,2.39526 0.19744,0.11545 0.74153,0.17596 0.59372,0.53681"
       id="path161"
       inkscape:connector-curvature="0" />
    <path
       style="fill:none;stroke:#000000;stroke-width:0.26458332px;stroke-linecap:butt;stroke-linejoin:miter;stroke-opacity:1"
       d="m 156.52527,89.671031 c -0.0575,0.0444 -0.3476,0.0222 -0.17542,-0.004 0.25314,0.0928 0.16279,-0.17672 0.0482,-0.27426 -0.12595,-0.18576 -0.0483,-0.40206 -0.14743,-0.58774 0.0409,-0.18108 -0.14542,-0.34919 -0.0407,-0.5311 0.0783,-0.18704 -0.36712,-0.14678 -0.12739,-0.13908 l 0.0418,-1e-5"
       id="path168"
       inkscape:connector-curvature="0" />
    <path
       style="fill:none;stroke:#000000;stroke-width:0.26458332px;stroke-linecap:butt;stroke-linejoin:miter;stroke-opacity:1"
       d="m 160.55899,89.545291 c -0.17551,-0.28601 -0.19693,-0.62805 -0.095,-0.93993 0.0228,-0.17752 -0.0247,-0.53781 0.13643,-0.60504"
       id="path177"
       inkscape:connector-curvature="0" />
    <path
       style="fill:none;stroke:#000000;stroke-width:0.26458332px;stroke-linecap:butt;stroke-linejoin:miter;stroke-opacity:1"
       d="m 165.88008,92.477361 c 0.11915,0.11863 0.3955,-0.0493 0.20659,-0.17597 0.0318,-0.16018 0.29052,-0.12189 0.38789,-0.26597 0.1661,-0.11829 0.35201,-0.24312 0.47843,-0.36247 0.0866,0.071 0.0481,-0.11678 0.1297,-0.0648"
       id="path186"
       inkscape:connector-curvature="0" />
    <path
       style="fill:none;stroke:#000000;stroke-width:0.26458332px;stroke-linecap:butt;stroke-linejoin:miter;stroke-opacity:1"
       d="m 150.37807,94.080971 c -0.18283,0.0556 -0.5559,-0.087 -0.31712,-0.2927 0.16683,-0.11832 0.25675,-0.36688 0.008,-0.43689 -0.12567,-0.0616 -0.27503,-0.28329 -0.37325,-0.2614 0.15767,0.12938 0.23269,0.33001 0.35706,0.49089 0.10865,0.16651 0.21575,0.33403 0.32548,0.49983"
       id="path194"
       inkscape:connector-curvature="0" />
    <path
       style="fill:none;stroke:#000000;stroke-width:0.26458332px;stroke-linecap:butt;stroke-linejoin:miter;stroke-opacity:1"
       d="m 179.90297,92.004641 c 0.50089,-2.16162 2.28204,-3.6819 4.32219,-4.34919 1.96137,-1.16446 4.24629,-0.79338 6.38741,-0.58356 2.2687,0.30577 4.12946,2.23501 5.26032,4.08239"
       id="path202"
       inkscape:connector-curvature="0" />
    <path
       style="fill:none;stroke:#000000;stroke-width:0.26458332px;stroke-linecap:butt;stroke-linejoin:miter;stroke-opacity:1"
       d="m 185.8581,87.031741 c 0.003,-0.15168 0.0127,-0.3099 -0.0659,-0.44656 -0.0552,-0.10956 -0.008,-0.24443 -0.0733,-0.33927 0.0247,-0.13452 -0.0189,-0.26939 0.0198,-0.39029 l 0.008,6.35e-4 0.0107,0.007"
       id="path210"
       inkscape:connector-curvature="0" />
    <path
       style="fill:none;stroke:#000000;stroke-width:0.26458332px;stroke-linecap:butt;stroke-linejoin:miter;stroke-opacity:1"
       d="m 193.70915,88.368091 c 0.0441,-0.11259 0.19851,-0.11296 0.28464,-0.17946 0.0979,-0.0703 0.1341,-0.19287 0.23585,-0.25948 0.0729,-0.0997 0.17246,-0.17556 0.24332,-0.2646 0.005,0.0125 0.006,0.0318 0.004,0.002"
       id="path217"
       inkscape:connector-curvature="0" />
    <path
       style="fill:none;stroke:#000000;stroke-width:0.26458332px;stroke-linecap:butt;stroke-linejoin:miter;stroke-opacity:1"
       d="m 195.87289,91.154281 c 0.14753,0.098 0.12131,-0.11595 0.17259,-0.15953 0.17956,-0.10329 0.41986,-0.08 0.56539,-0.24557 0.0224,-0.0349 0.15925,-0.11548 0.13832,-0.10998"
       id="path230"
       inkscape:connector-curvature="0" />
    <path
       style="fill:none;stroke:#000000;stroke-width:0.26458332px;stroke-linecap:butt;stroke-linejoin:miter;stroke-opacity:1"
       d="m 179.90297,92.004641 c -0.0941,-0.12986 -0.22855,-0.22848 -0.39417,-0.22603 -0.0966,-0.0279 -0.23915,-0.0931 -0.29848,-0.13564"
       id="path239"
       inkscape:connector-curvature="0" />
    <path
       style="fill:none;stroke:#000000;stroke-width:0.26458332px;stroke-linecap:butt;stroke-linejoin:miter;stroke-opacity:1"
       d="m 149.97717,102.83405 c 9.05134,-0.64766 18.17662,0.013 27.19381,-1.07908 4.88284,-0.87105 9.87242,-0.90559 14.80054,-1.01018 1.69667,-0.48236 5.40572,-0.56086 4.85137,2.08183 -1.34826,2.87996 -3.69731,5.36006 -6.80726,6.30666 -2.38305,0.93944 -4.99446,0.57719 -7.38731,1.45249 -5.55054,1.35986 -11.25651,2.0262 -16.96421,2.18794 -3.27158,-1.53985 -7.20902,-1.68776 -9.96689,-4.24871 -2.10168,-1.38201 -6.93889,-2.17473 -5.72005,-5.69095 z"
       id="path248"
       inkscape:connector-curvature="0" />
    <path
       style="fill:none;stroke:#000000;stroke-width:0.26458332px;stroke-linecap:butt;stroke-linejoin:miter;stroke-opacity:1"
       d="m 150.81238,102.83405 c 0.0649,1.09921 1.28658,1.60543 2.25428,1.47426 0.98763,0.0631 1.96906,-0.44271 2.44492,-1.31878 0.1712,0.36307 0.60739,1.49693 1.43432,1.50078 0.83185,0.25834 1.92611,0.46946 2.56247,-0.29995 0.43596,-0.48119 0.78106,-1.05229 0.92541,-1.69036"
       id="path263"
       inkscape:connector-curvature="0" />
    <path
       style="fill:none;stroke:#000000;stroke-width:0.26458332px;stroke-linecap:butt;stroke-linejoin:miter;stroke-opacity:1"
       d="m 160.43378,102.5 c -0.11514,0.78131 0.5913,1.48752 1.23923,1.78584 0.71527,0.25066 1.61288,0.3963 2.23382,-0.14486 0.59922,-0.26918 0.70362,-1.01326 1.10588,-1.39804 0.25741,0.69462 0.76015,1.36556 1.51423,1.57925 0.64551,0.45387 1.48621,0.17512 2.19331,0.0528 0.6483,-0.21965 1.3003,-0.62344 1.64414,-1.2271 0.10647,-0.22319 0.17796,-0.46158 0.29202,-0.68134"
       id="path278"
       inkscape:connector-curvature="0" />
    <path
       style="fill:none;stroke:#000000;stroke-width:0.26458332px;stroke-linecap:butt;stroke-linejoin:miter;stroke-opacity:1"
       d="m 170.65641,102.46655 c 0.35139,0.55252 0.79895,1.16698 1.49696,1.26365 0.69217,0.3541 1.48506,0.40597 2.24175,0.50443 0.61336,-0.0277 0.9652,-0.60289 1.36263,-0.98999 0.46327,-0.24001 0.62376,-0.77795 0.93026,-1.1627 0.0656,0.59622 0.69986,0.8294 1.02746,1.25768 0.81615,0.36577 1.76461,0.52413 2.62475,0.21338 0.49573,-0.12892 1.00709,-0.36524 1.26103,-0.83581 0.35294,-0.43084 0.69591,-0.89771 0.81528,-1.45306"
       id="path290"
       inkscape:connector-curvature="0" />
    <path
       style="fill:none;stroke:#000000;stroke-width:0.26458332px;stroke-linecap:butt;stroke-linejoin:miter;stroke-opacity:1"
       d="m 182.41653,101.26413 c 0.0331,0.42362 0.22171,0.86513 0.52428,1.16017 0.29258,0.24655 0.70174,0.14709 1.01206,0.3497 0.33911,0.19425 0.64956,0.43932 1.05769,0.46346 0.61279,0.13827 1.20004,-0.1358 1.76446,-0.32957 0.46093,-0.29745 0.66131,-0.82877 1.01318,-1.22786 0.25684,-0.28893 0.26098,-0.65151 0.24111,-1.01736"
       id="path297"
       inkscape:connector-curvature="0" />
    <path
       style="fill:none;stroke:#000000;stroke-width:0.26458332px;stroke-linecap:butt;stroke-linejoin:miter;stroke-opacity:1"
       d="m 188.02931,100.66263 c 0.1492,0.50928 0.036,1.20979 0.58589,1.50289 0.46058,0.26301 0.85568,0.62976 1.29764,0.89383 0.49131,0.0615 0.98841,-0.097 1.45926,-0.22679 0.47767,-0.23858 1.01176,-0.41316 1.34976,-0.85553 0.32948,-0.34441 0.55576,-0.79117 0.68574,-1.24748"
       id="path299"
       inkscape:connector-curvature="0" />
    <path
       style="fill:none;stroke:#000000;stroke-width:0.26458332px;stroke-linecap:butt;stroke-linejoin:miter;stroke-opacity:1"
       d="m 134.54235,128.69238 c 0.8369,0.35548 1.69295,0.69982 2.48894,1.12503 0.59678,0.51818 1.86742,0.88137 2.2898,0.92714 1.02908,0.23832 2.02514,0.59492 3.03889,0.88774"
       id="path308"
       inkscape:connector-curvature="0" />
    <path
       style="fill:none;stroke:#000000;stroke-width:0.26458332px;stroke-linecap:butt;stroke-linejoin:miter;stroke-opacity:1"
       d="m 144.29769,127.82375 c 0.66919,0.0535 1.29359,0.33874 1.94598,0.47695 1.47344,0.47687 2.93277,1.04122 4.4702,1.27734 l 0.16664,-3e-5 0.16573,-0.017"
       id="path315"
       inkscape:connector-curvature="0" />
    <path
       style="fill:none;stroke:#000000;stroke-width:0.26458332px;stroke-linecap:butt;stroke-linejoin:miter;stroke-opacity:1"
       d="m 173.89778,124.1488 c 0.75204,-0.24726 1.43977,-0.68861 2.01922,-1.22341 0.28325,-0.33798 0.46908,-0.73169 0.88954,-0.92657 0.33729,-0.32415 0.75665,-0.5122 1.16712,-0.72323"
       id="path322"
       inkscape:connector-curvature="0" />
    <path
       style="fill:none;stroke:#000000;stroke-width:0.26458332px;stroke-linecap:butt;stroke-linejoin:miter;stroke-opacity:1"
       d="m 182.85131,116.13071 c 1.13381,0.29941 2.02866,1.0984 3.04458,1.64113 -0.21876,-0.16529 -0.79902,-0.48603 -0.27541,-0.13985 0.58902,0.42832 1.24916,0.73642 1.90806,1.03757"
       id="path328"
       inkscape:connector-curvature="0" />
    <path
       style="fill:none;stroke:#000000;stroke-width:0.26458332px;stroke-linecap:butt;stroke-linejoin:miter;stroke-opacity:1"
       d="m 193.54209,119.47158 c 0.64681,-0.41678 1.13371,-1.02187 1.68271,-1.55068 0.27401,-0.26717 0.46954,-0.61455 0.81779,-0.79715 0.25468,-0.13634 0.36613,-0.40767 0.57311,-0.59213"
       id="path335"
       inkscape:connector-curvature="0" />
    <path
       style="fill:none;stroke:#000000;stroke-width:0.26458332px;stroke-linecap:butt;stroke-linejoin:miter;stroke-opacity:1"
       d="m 145.70085,114.99482 c 0.18592,0.002 0.39349,-0.0334 0.55528,0.0818 0.0527,0.10112 0.15095,0.13814 0.25643,0.12642 0.1173,0.056 0.213,0.14928 0.31912,0.22364 0.0971,0.0884 0.21089,0.14374 0.33916,0.16944"
       id="path341"
       inkscape:connector-curvature="0" />
    <path
       style="fill:none;stroke:#000000;stroke-width:0.26458332px;stroke-linecap:butt;stroke-linejoin:miter;stroke-opacity:1"
       d="m 146.56948,113.59165 c 0.25524,0.033 0.55177,-0.0714 0.77922,0.0569 0.14329,0.13619 0.351,0.14201 0.5061,0.25118 0.12973,0.17661 0.34305,0.14067 0.51749,0.22809 0.0639,0.0302 0.13003,0.061 0.20172,0.065"
       id="path346"
       inkscape:connector-curvature="0" />
    <path
       style="fill:#00ff00;stroke:#000000;stroke-width:0.26458332px;stroke-linecap:butt;stroke-linejoin:miter;stroke-opacity:1"
       d="m 198.75386,105.03903 c 0.21768,-0.0342 0.49462,0.0628 0.67333,-0.0364 0.0613,-0.26245 0.33794,-0.14005 0.53308,-0.16429 0.27556,0.005 0.55401,-0.0139 0.82772,0.0114 0.0859,0.027 0.15545,0.0873 0.23759,0.12228"
       id="path353"
       inkscape:connector-curvature="0" />
    <path
       style="fill:#cd87de;stroke-width:0.1889881"
       d="m 130.22649,134.3227 c -3.44385,-0.47999 -5.92479,-1.93489 -7.55648,-4.43134 -0.71744,-1.09765 -0.73737,-1.17204 -0.6231,-2.32532 0.17819,-1.79844 0.88176,-3.77852 2.5462,-7.16577 2.97184,-6.04791 4.6188,-7.67586 8.86384,-8.76156 1.3842,-0.35402 3.48206,-0.47191 4.33414,-0.24356 0.23516,0.063 0.42523,0.26149 0.42523,0.44402 0,0.27006 -0.2229,0.34795 -1.22616,0.42848 -1.07461,0.0863 -1.47752,0.24488 -3.26004,1.28343 -3.28326,1.91292 -4.39708,2.9164 -5.18806,4.67408 -0.88324,1.96267 -0.73983,4.57584 0.37575,6.84701 1.17664,2.39548 2.88941,2.48613 7.70528,0.4078 0.73485,-0.31714 2.43574,-0.84547 3.77976,-1.17408 1.34402,-0.32861 4.44222,-1.18768 6.8849,-1.90905 6.07397,-1.79376 8.56937,-2.39174 11.33928,-2.71728 5.14045,-0.60414 7.77334,-1.27987 17.30605,-4.44157 4.71453,-1.56367 7.08344,-2.26106 7.68038,-2.26106 1.73771,0 5.7795,-0.9471 8.77377,-2.05594 0.81734,-0.30268 3.10193,-1.18804 5.07685,-1.96748 6.19995,-2.44691 9.4427,-3.34712 12.05709,-3.34712 1.1797,0 1.57484,-0.0898 2.55835,-0.58123 4.05205,-2.02484 5.02988,-8.760909 1.6004,-11.02484 -0.96793,-0.638967 -2.88186,-1.122545 -3.50507,-0.885603 -0.40221,0.152918 -0.50272,0.114485 -0.67195,-0.256926 -0.18581,-0.407819 -0.1507,-0.444466 0.53015,-0.553339 1.61351,-0.258009 5.97196,1.337362 7.70411,2.820021 0.61397,0.525529 0.78095,0.824027 0.96015,1.71631 0.66059,3.289307 -0.14484,7.067337 -2.22742,10.448177 -1.7457,2.83395 -4.61231,5.93422 -6.75762,7.30842 -4.84752,3.10512 -10.51065,5.22638 -22.64253,8.48129 -3.74197,1.00395 -7.6115,2.06727 -8.59896,2.36293 -0.98746,0.29566 -2.94349,0.67666 -4.34673,0.84668 -4.60153,0.55753 -8.91731,1.53319 -20.12723,4.55014 -7.42604,1.99858 -10.54512,2.71221 -13.70164,3.13486 -3.20667,0.42936 -8.24148,0.60408 -10.06869,0.34942 z m 12.14757,-2.70745 c 0,-0.14328 -0.31892,-0.3456 -0.70871,-0.4496 -2.77201,-0.73966 -3.74293,-1.08 -5.236,-1.83541 -0.93087,-0.47096 -1.76005,-0.85629 -1.84264,-0.85629 -1.01819,0 3.00697,2.05188 5.14151,2.62094 0.77958,0.20784 1.63002,0.46316 1.88988,0.56739 0.64927,0.26041 0.75596,0.25377 0.75596,-0.047 z m 8.69345,-1.99235 c 0,-0.0957 -0.2764,-0.23111 -0.61422,-0.30094 -0.33781,-0.0698 -1.67726,-0.45099 -2.97656,-0.84702 -3.00277,-0.91525 -3.2128,-0.9604 -3.2128,-0.69064 0,0.12095 0.6591,0.41105 1.46466,0.64466 0.80556,0.23363 2.14502,0.63242 2.97657,0.88621 1.61179,0.49194 2.36235,0.58971 2.36235,0.30773 z m 23.68014,-5.61427 c 0.33266,-0.16917 1.07567,-0.74323 1.65115,-1.27567 0.57547,-0.53245 1.2133,-1.06442 1.41741,-1.18215 0.2041,-0.11774 0.31115,-0.2769 0.23788,-0.35369 -0.1997,-0.20933 -1.69913,0.73609 -2.15926,1.36146 -0.22142,0.30094 -0.79547,0.75559 -1.27567,1.01033 -0.83019,0.44042 -1.10726,0.7473 -0.67471,0.7473 0.10911,0 0.47055,-0.13841 0.8032,-0.30758 z m 20.6144,-5.90572 c 0.81394,-0.81874 1.40005,-1.53794 1.30248,-1.59825 -0.15372,-0.095 -3.26369,2.76269 -3.26369,2.99895 0,0.36718 0.70244,-0.1345 1.96121,-1.4007 z m -7.75416,0.60397 c 0.0708,-0.0708 -0.24845,-0.34716 -0.70939,-0.61421 -0.46094,-0.26704 -1.46142,-0.84585 -2.22329,-1.28623 -1.40005,-0.80927 -1.8577,-0.9612 -1.8577,-0.61671 0,0.10394 0.0688,0.18898 0.15286,0.18898 0.0841,0 0.65812,0.31064 1.27566,0.6903 1.47091,0.9043 2.98449,1.75883 3.12294,1.76313 0.0606,0.002 0.16815,-0.0545 0.23892,-0.12526 z"
       id="path367"
       inkscape:connector-curvature="0" />
    <path
       style="fill:#cd87de;stroke-width:0.1889881"
       d="m 157.3265,142.72079 c -5.10657,-0.69329 -9.03996,-2.36358 -11.88002,-5.04476 -1.24129,-1.17185 -2.81302,-3.31112 -2.57813,-3.50907 0.0919,-0.0775 1.40031,-0.42235 2.90749,-0.76639 1.50718,-0.34403 4.44122,-1.08377 6.52009,-1.64386 13.38303,-3.60572 17.38824,-4.51202 22.86756,-5.17447 0.93549,-0.1131 3.31674,-0.66428 5.29167,-1.22484 1.97492,-0.56056 5.71688,-1.58485 8.31547,-2.2762 8.58379,-2.2837 13.3013,-3.92295 17.62314,-6.12374 1.51101,-0.76944 2.12612,-1.00199 2.12612,-0.80381 0,0.45975 -1.33094,3.42483 -2.27946,5.07822 -1.51303,2.6374 -3.52896,5.13391 -6.7813,8.39789 -3.57561,3.58842 -9.5219,8.72735 -11.37806,9.83319 -2.3931,1.42573 -6.35251,2.53012 -10.36624,2.89144 -7.32528,0.65944 -16.95523,0.8325 -20.38833,0.3664 z"
       id="path369"
       inkscape:connector-curvature="0" />
    <path
       style="fill:#f6d5ff;stroke-width:0.1889881"
       d="m 138.19529,122.84858 c -0.34605,-1.92721 -0.30978,-6.04232 0.0762,-8.64323 0.16967,-1.14338 0.4853,-3.60967 0.70141,-5.48065 0.95571,-8.27443 1.82025,-12.041582 3.7032,-16.136462 1.05878,-2.302533 2.55149,-4.345895 4.65035,-6.365843 5.77255,-5.555496 12.53645,-9.769628 21.22249,-13.222306 4.02044,-1.598118 4.65392,-1.771274 7.00661,-1.915218 2.54615,-0.155782 4.52931,0.153207 7.63274,1.189233 1.39926,0.467117 4.1081,1.273686 6.01965,1.792372 4.08902,1.109536 5.71112,1.724078 7.61326,2.884329 8.42459,5.138748 13.75518,15.268615 13.7739,26.174895 l 0.004,2.14952 -1.08668,-0.0918 c -2.15187,-0.18171 -5.52979,0.7438 -12.04799,3.301 -7.40852,2.90649 -10.47421,3.80873 -13.78616,4.05732 -1.25436,0.0941 -2.48526,0.4435 -7.00253,1.98746 -8.87914,3.03481 -13.3722,4.21329 -17.85938,4.68432 -2.67571,0.28087 -5.20634,0.86532 -10.53904,2.43399 -3.95019,1.16198 -7.82402,2.22286 -9.32573,2.55391 -0.48314,0.10651 -0.499,0.0781 -0.75595,-1.35288 z m 9.09246,-7.2151 c 0,-0.28405 -0.79976,-0.76667 -1.27048,-0.76667 -0.63578,0 -0.5224,0.24201 0.27925,0.59606 0.85601,0.37806 0.99123,0.40133 0.99123,0.17061 z m 1.32291,-1.48762 c 0,-0.21147 -1.25083,-0.79095 -1.7073,-0.79095 -0.58069,0 -0.43668,0.25387 0.3381,0.59605 0.78572,0.34702 1.3692,0.43008 1.3692,0.1949 z m 24.18475,-1.65183 c 3.23976,-0.35414 6.47901,-0.90438 9.36064,-1.59007 1.24732,-0.2968 3.25662,-0.67617 4.46511,-0.84305 3.66659,-0.5063 5.96427,-1.51668 7.84149,-3.4482 2.28867,-2.35486 3.10432,-4.43275 2.1421,-5.457 -0.68947,-0.7339 -1.52248,-0.90135 -3.8463,-0.77318 -1.15386,0.0636 -3.37361,0.16337 -4.93276,0.22163 -3.8089,0.14231 -7.36657,0.42264 -9.5439,0.75202 -3.37602,0.51072 -6.14739,0.66833 -14.83556,0.84375 -4.7814,0.0965 -9.81255,0.23042 -11.18033,0.29752 -2.33509,0.11456 -2.49353,0.14684 -2.596,0.5288 -0.50296,1.87472 0.37173,2.96603 3.67586,4.58619 1.18917,0.5831 2.45997,1.29411 2.824,1.58004 1.07668,0.84566 1.79589,1.16219 5.67007,2.49543 l 3.68527,1.26823 2.36235,-0.0919 c 1.29929,-0.0506 3.50787,-0.21714 4.90796,-0.37019 z m 28.31844,-7.63156 c 0.0405,-0.12165 -0.25633,-0.2 -0.75195,-0.19844 -0.96728,0.003 -1.66939,0.16716 -1.66939,0.3902 0,0.2322 2.34184,0.0467 2.42134,-0.19176 z M 150.87337,93.898751 c 0.25311,-0.47295 2.50289,-2.205963 3.81236,-2.936687 1.62503,-0.906812 2.21896,-1.068133 4.33603,-1.177718 2.48526,-0.128649 3.4118,0.139607 5.05467,1.463444 0.6419,0.517248 1.22107,0.940449 1.28704,0.940449 0.066,0 0.23105,0.148828 0.36683,0.330729 0.22892,0.306689 0.29156,0.28652 0.86159,-0.277424 0.69049,-0.683117 0.63409,-1.00371 -0.0928,-0.527444 -0.55537,0.363892 -0.77929,0.278625 -2.03309,-0.774218 -0.99428,-0.834925 -2.52212,-1.582066 -3.2404,-1.584617 -0.48004,-0.0016 -0.51972,-0.05956 -0.51972,-0.757801 0,-0.415771 -0.0776,-0.755951 -0.17238,-0.755951 -0.0948,0 -0.22984,0.34018 -0.30009,0.755951 l -0.12772,0.755955 -1.40079,0.0315 c -0.77045,0.01733 -1.54196,0.03859 -1.71448,0.04725 -0.20873,0.01048 -0.38261,-0.229952 -0.51971,-0.718624 -0.11333,-0.403903 -0.29109,-0.701559 -0.39504,-0.661459 -0.10394,0.0401 -0.1752,0.115435 -0.15836,0.167408 0.0169,0.05197 0.0851,0.392152 0.15177,0.755954 0.11684,0.63795 0.0891,0.678249 -0.78132,1.133927 -1.44358,0.755767 -3.01954,1.820524 -3.91153,2.642727 -0.71666,0.660591 -0.85837,0.724178 -1.06341,0.477129 -0.1301,-0.156768 -0.39695,-0.285033 -0.59299,-0.285033 -0.28082,0 -0.31893,0.07016 -0.17964,0.330729 0.0972,0.181901 0.22285,0.479557 0.27915,0.661458 0.13755,0.444455 0.80883,0.420492 1.05401,-0.03763 z m 29.47468,-2.498881 c 0.37413,-1.248751 2.04235,-2.769976 3.88687,-3.544387 1.7897,-0.751396 3.40938,-0.920404 5.77265,-0.602359 2.0766,0.279467 3.25342,0.971082 4.76489,2.800329 1.10564,1.338085 1.13276,1.356397 1.57757,1.064948 0.24893,-0.163102 0.45259,-0.371813 0.45259,-0.463801 0,-0.211437 -0.20812,-0.209177 -0.54789,0.006 -0.19292,0.122145 -0.45271,-0.07027 -0.96079,-0.7116 -0.38301,-0.483459 -0.84091,-0.998085 -1.01755,-1.143616 -0.29949,-0.246729 -0.29284,-0.294762 0.0984,-0.711208 0.30377,-0.32335 0.3625,-0.503674 0.21279,-0.653383 -0.14971,-0.149707 -0.2656,-0.09686 -0.41992,0.191492 -0.27892,0.521163 -0.40411,0.507468 -1.84486,-0.201811 -1.14317,-0.562779 -1.37597,-0.605404 -3.7455,-0.685766 l -2.52658,-0.08569 -0.0575,-0.495411 c -0.0755,-0.651462 -0.4436,-0.458845 -0.40756,0.213294 0.0153,0.285845 -0.0535,0.519719 -0.153,0.519719 -0.0995,0 -0.89047,0.338674 -1.75775,0.752612 -1.76548,0.842629 -3.0393,1.977676 -3.58999,3.198884 -0.21837,0.484259 -0.45043,0.752568 -0.60093,0.694814 -0.38868,-0.14915 -0.49008,0.223282 -0.11953,0.439005 0.57114,0.332507 0.73938,0.232955 0.98355,-0.582017 z"
       id="path371"
       inkscape:connector-curvature="0" />
    <path
       style="fill:#f6d5ff;stroke-width:0.1889881"
       d="m 156.64266,142.54983 c -2.71148,-0.43776 -4.94331,-1.14287 -7.23861,-2.28692 -1.67704,-0.83588 -2.45286,-1.36275 -3.61106,-2.4523 -1.39406,-1.31143 -3.02272,-3.37027 -2.8236,-3.56939 0.0502,-0.0502 1.7865,-0.51314 3.85845,-1.02876 2.07196,-0.51562 6.49669,-1.65737 9.83273,-2.53722 7.56843,-1.99609 11.91589,-3.00343 15.19563,-3.52093 4.69798,-0.74128 6.36382,-1.12571 14.40026,-3.3232 11.14984,-3.04882 14.76969,-4.25876 19.70307,-6.58577 1.23087,-0.58059 2.26796,-1.05561 2.30466,-1.05561 0.41191,0 -1.4567,4.08323 -2.86506,6.26065 -2.44598,3.78165 -7.86509,9.33533 -14.26615,14.62044 -2.57137,2.12308 -3.98738,2.95146 -6.44991,3.77324 -4.11164,1.37211 -8.38606,1.80399 -18.87449,1.90704 -5.90215,0.058 -7.82113,0.0159 -9.16592,-0.20127 z"
       id="path373"
       inkscape:connector-curvature="0" />
    <path
       style="fill:#ff5555;stroke-width:0.1889881"
       d="m 162.02882,111.29185 c -4.06521,-1.38656 -4.21006,-1.45081 -5.59611,-2.48232 -0.53124,-0.39536 -1.80016,-1.10869 -2.81983,-1.58518 -1.01967,-0.47649 -2.12511,-1.07318 -2.45654,-1.32598 -0.78913,-0.6019 -1.28615,-1.65201 -1.12632,-2.3797 0.12253,-0.55791 0.65951,-0.79519 0.65951,-0.29143 0,0.14668 0.27194,0.4955 0.6043,0.77517 0.54824,0.46131 0.72008,0.50195 1.85222,0.43798 0.88079,-0.0498 1.40636,-0.18594 1.78649,-0.46284 l 0.53857,-0.39232 0.50095,0.56065 c 0.44243,0.49516 0.65529,0.57171 1.82205,0.65519 l 1.32109,0.0945 0.62009,-0.70624 0.62008,-0.70625 0.54906,0.52604 c 0.76718,0.735 2.35205,0.88045 3.17883,0.29173 0.31297,-0.22286 0.62225,-0.57286 0.68729,-0.7778 0.10945,-0.34482 0.15424,-0.32985 0.60077,0.20082 0.66291,0.78783 1.65824,1.1765 2.60812,1.01846 0.96977,-0.16135 2.07228,-0.71957 2.43006,-1.23037 l 0.27918,-0.39858 0.53651,0.39145 c 0.65893,0.48076 2.77791,1.03895 3.37507,0.88907 0.24118,-0.0605 0.8179,-0.48945 1.2816,-0.95316 l 0.8431,-0.84309 0.35319,0.39651 c 1.18343,1.32859 3.71023,1.19218 4.77661,-0.25786 0.42593,-0.57918 0.6022,-0.70619 0.68405,-0.4929 0.0606,0.15804 0.69733,0.52368 1.41486,0.81253 1.21837,0.49048 1.36212,0.50909 2.17468,0.28159 0.59239,-0.16586 1.0223,-0.44318 1.34704,-0.86894 l 0.47696,-0.62533 0.94583,0.74763 c 1.07207,0.84742 1.07336,0.84768 2.3474,0.46933 0.99489,-0.29545 2.01353,-1.18592 2.24923,-1.96622 0.12633,-0.41822 0.20239,-0.44124 1.10485,-0.33436 1.26707,0.15007 1.9027,0.62632 1.97634,1.48078 0.0457,0.53019 -0.12787,0.93471 -0.88387,2.06009 -2.26514,3.37189 -4.63958,4.73423 -9.32794,5.35191 -1.1711,0.15429 -3.18256,0.53833 -4.46992,0.85343 -3.95018,0.96685 -9.57087,1.72495 -14.57379,1.96566 -1.5734,0.0757 -1.6821,0.0515 -5.29166,-1.17967 z"
       id="path375"
       inkscape:connector-curvature="0" />
    <path
       style="fill:#ffffff;stroke-width:0.1889881"
       d="m 156.96103,104.27252 c -0.47803,-0.13913 -1.22552,-0.98595 -1.22552,-1.38837 0,-0.0619 0.97802,-0.11258 2.17336,-0.11258 1.19535,0 2.17337,0.0657 2.17337,0.14593 0,0.0803 -0.26133,0.46296 -0.58072,0.85045 -0.48674,0.59049 -0.6932,0.70176 -1.27567,0.68747 -0.38222,-0.009 -0.95139,-0.0917 -1.26482,-0.1829 z"
       id="path379"
       inkscape:connector-curvature="0" />
    <path
       style="fill:#ffffff;stroke-width:0.06681738"
       d="m 166.94202,104.33446 c -0.84282,-0.31091 -1.3334,-0.71162 -1.62761,-1.32945 l -0.16624,-0.34908 0.51273,-0.042 c 1.07482,-0.088 4.75563,-0.13588 4.75563,-0.0619 0,0.18549 -0.31326,0.70391 -0.5905,0.97724 -0.40495,0.39922 -0.97634,0.66312 -1.7147,0.79192 -0.71626,0.12495 -0.8619,0.1266 -1.16931,0.0132 z"
       id="path381"
       inkscape:connector-curvature="0" />
    <path
       style="fill:#ffffff;stroke-width:0.06681738"
       d="m 162.16791,104.25249 c -0.21866,-0.0529 -0.52273,-0.1695 -0.67571,-0.25915 -0.47586,-0.27887 -0.89783,-0.85933 -0.89783,-1.23504 0,-0.13366 0.0333,-0.13578 2.13395,-0.13578 h 2.13395 l -0.36273,0.58974 c -0.27879,0.45328 -0.44008,0.63987 -0.69706,0.80638 -0.55886,0.36213 -0.90145,0.41114 -1.63457,0.23385 z"
       id="path383"
       inkscape:connector-curvature="0" />
    <path
       style="fill:#ffffff;stroke-width:0.06681738"
       d="m 162.28283,104.29324 c -0.43213,-0.0912 -0.8413,-0.29375 -1.14149,-0.56495 -0.28712,-0.2594 -0.54697,-0.71538 -0.54697,-0.95982 v -0.14595 h 2.13549 2.13548 l -0.38153,0.60831 c -0.3156,0.5032 -0.44673,0.64851 -0.75889,0.84093 -0.41623,0.25659 -0.91385,0.33301 -1.44209,0.22148 z"
       id="path385"
       inkscape:connector-curvature="0" />
    <path
       style="fill:#ffffff;stroke-width:0.06681738"
       d="m 157.1937,104.39256 c -0.75564,-0.19139 -0.94809,-0.34992 -1.34053,-1.10423 l -0.26696,-0.51314 0.44945,-0.0424 c 0.24719,-0.0233 1.28585,-0.0427 2.30813,-0.0429 l 1.85869,-5.3e-4 -0.0455,0.15034 c -0.18945,0.6263 -0.95517,1.52738 -1.40011,1.64759 -0.40433,0.10924 -0.86917,0.0811 -1.5632,-0.0947 z"
       id="path387"
       inkscape:connector-curvature="0" />
    <path
       style="fill:#ffffff;stroke-width:0.06681738"
       d="m 152.14198,104.06996 c -0.59735,-0.19809 -0.88616,-0.43139 -1.06555,-0.86074 l -0.10308,-0.24669 0.21682,-0.0346 c 0.25769,-0.0412 3.16152,-0.17218 3.8106,-0.17191 0.44784,1.8e-4 0.4524,0.002 0.37385,0.14876 -0.18412,0.34404 -0.74133,0.84189 -1.14645,1.0243 -0.35399,0.1594 -0.52,0.19036 -1.11734,0.20839 -0.45805,0.0138 -0.79436,-0.01 -0.96885,-0.0675 z"
       id="path389"
       inkscape:connector-curvature="0" />
    <path
       style="fill:#ffffff;stroke-width:0.06681738"
       d="m 173.69058,103.9818 c -0.6702,-0.10304 -1.69165,-0.42002 -2.05249,-0.63693 -0.17556,-0.10553 -0.84837,-0.85777 -0.80076,-0.89529 0.007,-0.006 0.59984,-0.0463 1.31645,-0.0899 1.15019,-0.07 2.18531,-0.15365 3.86665,-0.31263 l 0.49236,-0.0466 -0.15828,0.28826 c -0.33423,0.6087 -1.68223,1.83416 -1.97691,1.79719 -0.0287,-0.004 -0.3379,-0.0505 -0.68702,-0.10415 z"
       id="path391"
       inkscape:connector-curvature="0" />
    <path
       style="fill:#ffffff;stroke-width:0.06681738"
       d="m 178.59053,103.45776 c -0.52372,-0.11386 -0.632,-0.1724 -1.14368,-0.61825 -0.37928,-0.33048 -0.61585,-0.64024 -0.61585,-0.80637 0,-0.13138 5.27083,-0.84379 5.38658,-0.72805 0.0663,0.0663 -0.2507,0.65203 -0.62748,1.15917 -0.32428,0.43647 -0.47386,0.57732 -0.76061,0.71625 -0.75428,0.36544 -1.44177,0.45057 -2.23896,0.27725 z"
       id="path393"
       inkscape:connector-curvature="0" />
    <path
       style="fill:#ffffff;stroke-width:0.06681738"
       d="m 184.78227,103.02698 c -0.0919,-0.0285 -0.3295,-0.14809 -0.52806,-0.26581 -0.19855,-0.11773 -0.52184,-0.24635 -0.71842,-0.28583 -0.49672,-0.0998 -0.81504,-0.45516 -0.93216,-1.04078 l -0.0393,-0.19637 0.82498,-0.0456 c 2.25447,-0.12457 3.2849,-0.17065 3.84847,-0.17211 0.83251,-0.002 0.833,-0.0183 -0.0361,1.1758 -0.35797,0.49183 -0.57873,0.63666 -1.25016,0.82016 -0.30232,0.0826 -0.91877,0.0882 -1.1693,0.0105 z"
       id="path395"
       inkscape:connector-curvature="0" />
    <path
       style="fill:#ffffff;stroke-width:0.06681738"
       d="m 189.38691,102.49621 c -0.91286,-0.63908 -0.97756,-0.70563 -1.06002,-1.09013 -0.0405,-0.18894 -0.0503,-0.36534 -0.0218,-0.39199 0.0285,-0.0266 0.87875,-0.0634 1.88936,-0.0818 1.34031,-0.0243 1.98731,-0.0635 2.39122,-0.14514 0.30455,-0.0615 0.58417,-0.1017 0.62137,-0.0893 0.0372,0.0124 -0.0391,0.23596 -0.16962,0.4968 -0.40087,0.8013 -1.10485,1.32541 -2.13872,1.5923 -0.7129,0.18403 -0.87932,0.15202 -1.51181,-0.29078 z"
       id="path397"
       inkscape:connector-curvature="0" />
    <path
       style="fill:none;stroke:#000000;stroke-width:0.33834958px;stroke-linecap:butt;stroke-linejoin:miter;stroke-opacity:1"
       d="m 156.87737,126.79778 c -0.39362,-0.25185 -0.87486,-0.37651 -1.15769,-0.78428 -0.8456,-0.15767 -1.38618,-1.00273 -2.32166,-0.73411 -0.92845,-0.28035 -1.11071,0.71161 -1.48446,1.40422 -0.63471,0.11706 -0.20872,0.96894 -0.57042,1.37737 0.001,1.70767 0.009,3.42246 -0.006,5.1255 0.32886,0.56621 0.62113,1.22524 0.95619,1.70388 0.86086,0.46574 1.61005,0.62922 2.65084,0.52332 0.78263,0.14639 2.00026,-0.118 1.92902,-1.23834 0.0588,-0.26999 0.26485,-0.4963 0.23512,-0.78897"
       id="path63"
       inkscape:connector-curvature="0" />
    <path
       style="fill:none;stroke:#000000;stroke-width:0.33834958px;stroke-linecap:butt;stroke-linejoin:miter;stroke-opacity:1"
       d="m 160.21952,125.78416 c -0.002,2.91352 0.005,5.82705 -0.005,8.74057 0.0422,0.21132 0.18676,0.40919 0.11977,0.63545"
       id="path70"
       inkscape:connector-curvature="0" />
    <path
       style="fill:none;stroke:#000000;stroke-width:0.33834958px;stroke-linecap:butt;stroke-linejoin:miter;stroke-opacity:1"
       d="m 163.15279,130.58417 c 0,1.52308 0,3.04614 0,4.56922"
       id="path75"
       inkscape:connector-curvature="0" />
    <path
       style="fill:none;stroke:#000000;stroke-width:0.33834958px;stroke-linecap:butt;stroke-linejoin:miter;stroke-opacity:1"
       d="m 163.15279,128.07558 c 0.0543,0.17919 0.10867,0.35837 0.16299,0.53756"
       id="path81"
       inkscape:connector-curvature="0" />
    <path
       style="fill:none;stroke:#000000;stroke-width:0.33834958px;stroke-linecap:butt;stroke-linejoin:miter;stroke-opacity:1"
       d="m 167.14589,131.03214 c -0.58926,-0.0952 -1.61191,-0.39452 -1.78444,0.5031 -0.14416,0.64973 -0.4377,1.26019 -0.42934,1.93912 -0.14582,0.72827 0.44586,1.34693 1.08998,1.32376 0.517,0.0204 1.19209,0.0815 1.44974,-0.53976"
       id="path86"
       inkscape:connector-curvature="0" />
    <path
       style="fill:none;stroke:#000000;stroke-width:0.33834958px;stroke-linecap:butt;stroke-linejoin:miter;stroke-opacity:1"
       d="m 168.77573,125.65658 c -0.0193,2.67243 -0.0155,5.347 0.15733,8.01273 -0.005,0.55763 -0.0187,1.13435 0.16868,1.66325"
       id="path97"
       inkscape:connector-curvature="0" />
    <path
       style="fill:none;stroke:#000000;stroke-width:0.33834958px;stroke-linecap:butt;stroke-linejoin:miter;stroke-opacity:1"
       d="m 171.0575,129.7781 c -0.33681,0.50986 -1.09716,0.40765 -1.31353,1.0764 -0.17356,0.46551 -1.17964,0.68042 -0.71921,1.2433 0.32963,0.39527 0.48858,0.92755 0.9168,1.23448 0.37948,0.37854 0.65347,0.89119 1.08584,1.2013 0.20468,0.0995 0.62882,0.0627 0.68205,0.35074"
       id="path105"
       inkscape:connector-curvature="0" />
    <path
       style="fill:none;stroke:#000000;stroke-width:0.26458332px;stroke-linecap:butt;stroke-linejoin:miter;stroke-opacity:1"
       d="m 176.93716,135.07174 c -0.0167,-0.90457 0.0602,-1.81467 -0.0976,-2.71094 0.01,-2.0565 2.7e-4,-4.11435 0.004,-6.17151 0.16592,0.73814 1.14033,1.11578 1.66601,1.69166 0.41061,0.4265 0.73189,0.93703 1.19031,1.29822 0.3039,0.38493 0.71838,0.79303 1.018,1.07342"
       id="path116"
       inkscape:connector-curvature="0" />
    <path
       style="fill:none;stroke:#000000;stroke-width:0.26458332px;stroke-linecap:butt;stroke-linejoin:miter;stroke-opacity:1"
       d="m 180.71788,130.25259 c 0.7775,0.10357 0.80148,-0.69128 1.15957,-1.01965 0.65448,-0.53482 0.91652,-1.21012 1.3927,-1.9204 0.0526,-0.32338 0.67654,-1.18119 0.6316,-0.40671 -0.003,0.71316 0.0585,1.43677 -0.0678,2.13792 0.0632,0.71318 -0.10755,1.40273 -0.06,2.1151 0.002,1.05535 -0.002,2.11071 5.3e-4,3.16606 -0.0304,-0.0159 0.0146,0.0209 0,0"
       id="path127"
       inkscape:connector-curvature="0"
       sodipodi:nodetypes="cccccccc" />
    <path
       style="fill:none;stroke:#000000;stroke-width:0.26458332px;stroke-linecap:butt;stroke-linejoin:miter;stroke-opacity:1"
       d="m 185.86706,131.5282 c 0.99019,0.002 1.9804,-0.003 2.97058,0.003 0.12753,-0.0856 0.41682,-0.0917 0.25524,-0.29852 -0.0406,-0.27149 -0.15571,-0.52504 -0.30791,-0.73925 -0.11666,-0.13092 -0.29502,-0.1898 -0.42853,-0.3173 -0.28542,-0.12443 -0.52869,-0.34847 -0.87019,-0.29846 -0.28414,-0.0273 -0.57483,-0.004 -0.83105,0.12853 -0.14754,0.18357 -0.45645,0.19873 -0.62343,0.42613 -0.20977,0.23374 -0.14702,0.57773 -0.16733,0.8674 0.003,0.0761 0.003,0.15229 0.003,0.22847 z"
       id="path140"
       inkscape:connector-curvature="0" />
    <path
       style="fill:none;stroke:#000000;stroke-width:0.26458332px;stroke-linecap:butt;stroke-linejoin:miter;stroke-opacity:1"
       d="m 185.86706,131.5282 c -0.0766,0.40059 -0.0389,0.80986 -0.0498,1.21472 0.15802,0.2357 0.2519,0.52169 0.41813,0.73465 0.18986,0.22387 0.28479,0.48572 0.57356,0.56887 0.23168,0.1122 0.48929,0.19555 0.74823,0.22658 0.28427,-0.0603 0.67788,0.13353 0.84214,-0.1879 0.19362,-0.20324 0.442,-0.39549 0.58569,-0.57253"
       id="path148"
       inkscape:connector-curvature="0"
       inkscape:export-filename="C:\Users\suilt14\Desktop\site\public\mainplanet.png"
       inkscape:export-xdpi="96"
       inkscape:export-ydpi="96" />
  </g>
</svg>
