<?xml version="1.0" encoding="UTF-8" standalone="no"?>
<!-- Created with Inkscape (http://www.inkscape.org/) -->

<svg
   xmlns:dc="http://purl.org/dc/elements/1.1/"
   xmlns:cc="http://creativecommons.org/ns#"
   xmlns:rdf="http://www.w3.org/1999/02/22-rdf-syntax-ns#"
   xmlns:svg="http://www.w3.org/2000/svg"
   xmlns="http://www.w3.org/2000/svg"
   xmlns:sodipodi="http://sodipodi.sourceforge.net/DTD/sodipodi-0.dtd"
   xmlns:inkscape="http://www.inkscape.org/namespaces/inkscape"
   width="210mm"
   height="297mm"
   viewBox="0 0 210 297"
   version="1.1"
   id="svg176"
   inkscape:version="0.92.1 r15371"
   sodipodi:docname="mainstar.svg"
   inkscape:export-filename="C:\Users\suilt14\Desktop\site\public\mainstar.png"
   inkscape:export-xdpi="96"
   inkscape:export-ydpi="96">
  <defs
     id="defs170" />
  <sodipodi:namedview
     id="base"
     pagecolor="#ffffff"
     bordercolor="#666666"
     borderopacity="1.0"
     inkscape:pageopacity="0.0"
     inkscape:pageshadow="2"
     inkscape:zoom="1.4"
     inkscape:cx="276.32202"
     inkscape:cy="694.3015"
     inkscape:document-units="mm"
     inkscape:current-layer="layer1"
     showgrid="false"
     inkscape:window-width="1600"
     inkscape:window-height="837"
     inkscape:window-x="-8"
     inkscape:window-y="-8"
     inkscape:window-maximized="1" />
  <metadata
     id="metadata173">
    <rdf:RDF>
      <cc:Work
         rdf:about="">
        <dc:format>image/svg+xml</dc:format>
        <dc:type
           rdf:resource="http://purl.org/dc/dcmitype/StillImage" />
        <dc:title />
      </cc:Work>
    </rdf:RDF>
  </metadata>
  <g
     inkscape:label="Layer 1"
     inkscape:groupmode="layer"
     id="layer1">
    <path
       style="fill:none;stroke:#000000;stroke-width:0.26458332px;stroke-linecap:butt;stroke-linejoin:miter;stroke-opacity:1"
       d="m 88.198943,97.616932 c 3.006884,-7.271243 3.515954,-15.283082 6.39928,-22.609131 1.65388,-4.343137 2.680263,-9.838747 7.376587,-11.971914 3.619,-2.019982 7.23423,0.76549 9.20178,3.689126 3.96733,5.392515 5.8083,11.983779 9.54447,17.522785 1.84027,4.257989 3.42672,8.653816 6.56035,12.219033 3.7872,1.630183 8.35003,-0.661686 12.50651,0.06144 3.71907,-0.0061 8.77324,0.275299 11.65713,-0.348802 4.37376,-0.353127 9.79465,-0.870481 12.8203,3.054568 2.88585,4.312308 -1.90576,8.419758 -3.94571,11.936618 -2.66414,4.38868 -7.59162,6.81967 -10.62005,10.9725 -3.88352,3.1447 -7.21137,6.97481 -11.59248,9.4851 l -0.3642,0.2349 -0.36637,0.23155"
       id="path178"
       inkscape:connector-curvature="0" />
    <path
       style="fill:none;stroke:#000000;stroke-width:0.26458332px;stroke-linecap:butt;stroke-linejoin:miter;stroke-opacity:1"
       d="m 137.37654,132.0947 c 0.48272,5.14393 2.51349,9.98101 4.90054,14.50491 1.32912,3.637 0.65419,7.69873 2.21548,11.27834 0.76475,2.55788 1.09301,5.24391 1.25472,7.89408 0.0625,2.17637 -1.6903,3.87013 -3.75201,4.18196 -2.15573,0.49532 -4.43896,0.47235 -6.59853,0.0288 -2.23534,-0.82389 -3.6666,-2.983 -5.9624,-3.72559 -2.13205,-0.93435 -4.36336,-2.16073 -5.35988,-4.38263 -1.43348,-1.81399 -3.4798,-3.0352 -4.85611,-4.90087 0,0 -2.01555,-3.13158 -4.3408,-5.60686 -3.28635,-4.55714 -4.74107,-4.12938 -3.28635,-4.55714 -0.24023,0.58074 0.69334,-0.10043 0,0"
       id="path193"
       inkscape:connector-curvature="0"
       sodipodi:nodetypes="cccccccccccc" />
    <path
       style="fill:none;stroke:#000000;stroke-width:0.26458332px;stroke-linecap:butt;stroke-linejoin:miter;stroke-opacity:1"
       d="m 88.198943,97.61693 c -4.563422,1.11457 -9.305346,0.262875 -13.925839,0.810511 -5.709687,-0.115126 -11.456368,-0.268631 -17.143694,0.245287 -4.360093,0.474269 -7.056023,6.013332 -3.612943,9.275522 2.660179,2.56981 5.545221,4.91082 8.58732,7.01016 4.240463,2.92124 7.147053,7.39423 11.680868,9.92757 1.960325,1.55502 5.038741,2.60209 5.947254,4.9269 -0.409337,3.96377 -1.599494,7.80595 -1.623611,11.82069 -1.088695,5.40357 -0.423499,10.92051 -0.600101,16.38628 1.187381,3.72289 0.830549,7.8975 3.350374,11.14977 1.688701,3.07069 6.383333,4.74359 8.929251,1.74988 4.449081,-4.29237 8.288996,-9.16902 12.611218,-13.56597 2.96808,-2.71675 6.48474,-5.24089 7.90209,-9.17621 l 0.1893,-0.0253 1.10077,-1.34232"
       id="path209"
       inkscape:connector-curvature="0"
       sodipodi:nodetypes="ccccccccccccccc" />
    <path
       style="fill:none;stroke:#000000;stroke-width:0.26458332px;stroke-linecap:butt;stroke-linejoin:miter;stroke-opacity:1"
       d="m 85.422617,104.23214 c 0.970174,-0.73556 2.300729,-0.67942 3.359564,-1.22644 1.378545,-0.25147 2.807093,-0.18995 4.155603,-0.61086 1.801423,-0.31755 3.3774,0.86746 4.726028,1.89833 1.080658,0.84594 1.890905,2.03903 2.110132,3.41 0.219494,1.24352 0.402676,2.49672 0.580656,3.74468 0.11436,2.31802 -0.97118,4.61298 -2.654231,6.16934 -0.676949,0.61104 -1.654524,0.51797 -2.307432,1.15808 -0.79787,0.54581 -1.712573,0.96124 -2.689654,0.99592 -1.124103,0.27171 -2.461034,0.33215 -3.397639,-0.46146 -1.564652,-0.66169 -3.026582,-1.53807 -4.454985,-2.44527 -0.954271,-0.4453 -2.029485,-0.86538 -2.594964,-1.81442 -0.928237,-0.70246 -1.533909,-1.94271 -1.164894,-3.09917 0.0476,-1.44582 -0.296213,-3.04427 0.577593,-4.32348 0.543882,-1.06445 1.144744,-2.26756 2.323323,-2.73766 0.451145,-0.26312 0.878232,-0.65341 1.4309,-0.65759 z"
       id="path239"
       inkscape:connector-curvature="0" />
    <path
       style="fill:none;stroke:#000000;stroke-width:0.26458332px;stroke-linecap:butt;stroke-linejoin:miter;stroke-opacity:1"
       d="m 127.04782,102.75266 1.42184,0.82602 c 1.31996,0.96801 2.20114,2.73489 3.39922,3.84728 1.02155,1.31213 0.92593,3.07293 1.02323,4.64294 -0.10469,1.0209 -0.62812,1.94433 -1.09401,2.83274 -1.59821,1.79226 -4.12071,2.28587 -6.41687,2.35709 -1.74166,0.0397 -3.48975,0.005 -5.22808,-0.0101 -1.57964,-0.3621 -2.68018,-1.66358 -3.79361,-2.74537 -0.63088,-0.68251 -1.382,-1.37488 -1.6156,-2.30094 -0.0708,-1.09158 -0.0455,-2.19756 0.006,-3.28628 0.24101,-1.10119 1.01059,-1.98116 1.3902,-3.03008 0.76761,-1.63867 2.13332,-3.16457 3.98765,-3.4919 1.16712,0.05 2.2621,-0.40472 3.41301,-0.42905 0.77044,0.009 3.2742,0.10221 3.50702,0.78765 z"
       id="path250"
       inkscape:connector-curvature="0"
       sodipodi:nodetypes="cccccccccccccc" />
    <path
       style="fill:none;stroke:#000000;stroke-width:0.26458332px;stroke-linecap:butt;stroke-linejoin:miter;stroke-opacity:1"
       d="m 95.214767,104.49912 c 0.409541,0.18197 0.706667,0.53769 1.003944,0.85888 0.199034,0.39316 0.266655,0.84566 0.568831,1.18575 0.19202,0.32683 0.253441,0.70505 0.418674,1.04323 0.211236,0.55701 0.238019,1.19902 -0.03229,1.74188 -0.148649,0.39927 -0.448355,0.77152 -0.887194,0.85423 -0.663752,0.0716 -1.336584,0.0715 -2.005028,0.0566 -0.311468,-0.0725 -0.612374,-0.20525 -0.888056,-0.36301 -0.212027,-0.28151 -0.510827,-0.44368 -0.825373,-0.58785 -0.332303,-0.14577 -0.417404,-0.51649 -0.662226,-0.74855 -0.234097,-0.24356 -0.629821,-0.3936 -0.676409,-0.76715 -0.0711,-0.3766 0.02551,-0.7624 -0.04543,-1.13903 0.08943,-0.4016 0.289641,-0.76945 0.406603,-1.16098 0.269381,-0.43115 0.664541,-0.78431 1.10757,-1.02918 0.580178,-0.28443 1.24271,-0.22442 1.866961,-0.20948 0.246454,0.0119 0.454753,0.13075 0.649419,0.26467 z"
       id="path266"
       inkscape:connector-curvature="0" />
    <path
       style="fill:none;stroke:#000000;stroke-width:0.26458332px;stroke-linecap:butt;stroke-linejoin:miter;stroke-opacity:1"
       d="m 87.463952,114.85581 c 0.335744,-0.002 0.672012,0.006 1.007352,-0.007 0.179229,0.0192 0.356796,0.16645 0.351663,0.35733 0.153018,0.13464 0.252983,0.3101 0.311809,0.49417 0.154136,0.25473 0.01563,0.55663 0.07515,0.8301 0.04912,0.17421 -0.121755,0.24365 -0.222862,0.34038 -0.0952,0.0971 -0.199515,0.21934 -0.348757,0.21426 -0.08505,0.18245 -0.398306,0.0361 -0.4451,0.25826 -0.09857,0.18783 -0.334433,0.20855 -0.523156,0.19139 -0.219873,0.009 -0.441777,-0.0393 -0.635048,-0.14397 -0.217564,-0.0678 -0.416294,-0.1875 -0.606067,-0.31016 -0.139753,-0.14103 -0.178657,-0.34682 -0.224145,-0.53297 -0.02458,-0.19912 -0.01268,-0.40117 -0.01429,-0.60098 0.02101,-0.20351 0.119163,-0.40884 0.295893,-0.52075 0.127298,-0.13245 0.258211,-0.30495 0.459224,-0.31051 0.11438,-0.17024 0.324759,-0.23474 0.518331,-0.25943 z"
       id="path275"
       inkscape:connector-curvature="0" />
    <path
       style="fill:none;stroke:#000000;stroke-width:0.26458332px;stroke-linecap:butt;stroke-linejoin:miter;stroke-opacity:1"
       d="m 126.61894,104.53253 c 0.50137,0.0625 0.91372,0.3944 1.39378,0.52423 0.38524,0.24322 0.43325,0.76413 0.78851,1.03803 0.51548,0.66204 0.5625,1.65192 0.0993,2.35399 -0.20703,0.33906 -0.21675,0.82892 -0.55096,1.06904 -0.42184,0.20781 -0.90386,0.0691 -1.35168,0.13624 -0.82673,0.017 -1.67263,0.0955 -2.48339,-0.10487 -0.39261,-0.14355 -0.62191,-0.61525 -1.07161,-0.6122 -0.40463,-0.0704 -0.63015,-0.47761 -0.67628,-0.85416 -0.12319,-0.39885 -0.19172,-0.81485 -0.34199,-1.20455 -0.0906,-0.51701 0.13959,-1.04773 0.52782,-1.38794 0.47777,-0.52123 1.06598,-0.93181 1.70851,-1.22315 0.30485,-0.15564 0.61803,-0.38041 0.97452,-0.35592 0.39843,0.0802 0.60656,0.497 0.98343,0.62126 z"
       id="path294"
       inkscape:connector-curvature="0" />
    <path
       style="fill:none;stroke:#000000;stroke-width:0.26458332px;stroke-linecap:butt;stroke-linejoin:miter;stroke-opacity:1"
       d="m 120.10424,113.38583 c 0.22273,4.3e-4 0.44545,-6.3e-4 0.66818,0 0.27143,0.11198 0.47067,0.33462 0.69231,0.51759 0.1143,0.11955 0.22915,0.2412 0.3421,0.3602 0.16137,0.2752 0.0693,0.60337 0.11328,0.9028 0.0107,0.24443 -0.2014,0.40284 -0.37249,0.53767 -0.19594,0.0919 -0.38065,0.20566 -0.57455,0.29815 -0.26802,0.0509 -0.55038,0.15771 -0.82229,0.066 -0.14118,-0.0544 -0.25662,-0.15813 -0.398,-0.21411 -0.24176,-0.14908 -0.47613,-0.31244 -0.72861,-0.44274 -0.20929,-0.14033 -0.36951,-0.34011 -0.54502,-0.51718 -0.0763,-0.17801 -0.0904,-0.43096 0.0279,-0.59028 0.15137,-0.11234 0.30891,-0.21711 0.44494,-0.34961 0.21465,-0.19625 0.50972,-0.25277 0.77814,-0.34009 0.1356,-0.05 0.35015,-0.0436 0.37414,-0.22836 z"
       id="path302"
       inkscape:connector-curvature="0" />
    <path
       style="fill:#000000;stroke-width:0.35714287"
       d="m 451.50155,441.43233 c -3.2087,-1.51797 -5.6889,-3.54531 -10.8308,-8.8532 -3.04622,-3.14458 -4.82185,-5.29224 -5.46893,-6.61483 -0.94953,-1.94075 -0.95717,-2.01792 -0.84638,-8.54985 l 0.11179,-6.59141 3.17229,-6.39467 c 4.8248,-9.72579 7.46569,-12.95224 12.61131,-15.40758 2.08864,-0.99664 3.22447,-1.28502 6.07142,-1.54149 1.92617,-0.17352 4.7618,-0.56173 6.3014,-0.86269 3.27685,-0.64056 6.06021,-0.6888 10.24581,-0.17756 3.75797,0.459 5.27482,0.91913 6.4192,1.9472 0.49107,0.44117 2.08882,1.49149 3.55056,2.33407 3.43692,1.98109 4.98958,3.44251 8.62834,8.12124 1.64041,2.10924 4.0628,5.09455 5.38309,6.63402 3.44724,4.01951 4.54629,7.85742 4.56785,15.95097 0.0109,4.09846 -0.28511,5.27825 -2.40227,9.57421 -1.91555,3.88687 -3.77588,5.6249 -8.49685,7.93827 -5.93156,2.90659 -10.6268,3.55667 -25.69501,3.55766 l -11.07143,7.1e-4 -2.25139,-1.06508 z m 7.40534,-3.09006 c 2.2018,-1.39595 2.52463,-1.92391 2.52463,-4.12881 0,-1.95671 -0.0947,-2.19129 -1.49934,-3.71517 -0.82463,-0.89462 -1.94165,-1.85531 -2.48226,-2.13488 -1.11283,-0.57546 -4.23269,-0.69189 -4.23269,-0.15795 0,0.19269 -0.44196,0.45277 -0.98214,0.57796 -2.48386,0.57567 -5.44643,3.01526 -5.44643,4.48499 0,1.12862 2.69561,3.67957 5.3086,5.0237 2.27565,1.17061 2.606,1.24577 4.1815,0.95144 0.94086,-0.17578 2.12352,-0.58135 2.62813,-0.90128 z m 26.13759,-23.754 c 1.00577,-0.37854 1.13864,-0.59115 2.79461,-4.47158 1.21129,-2.8384 1.4248,-5.42495 0.60775,-7.36233 -0.26657,-0.63208 -1.196,-2.19388 -2.0654,-3.47067 -1.62475,-2.38607 -3.52953,-3.68675 -6.77685,-4.62755 -0.71016,-0.20575 -1.89744,-0.85586 -2.63839,-1.4447 -0.79353,-0.63061 -1.77059,-1.0706 -2.37743,-1.0706 -1.4831,0 -6.29714,2.52887 -8.83573,4.6415 -4.13696,3.44282 -4.51589,5.99723 -1.94831,13.13396 0.51387,1.42832 1.85281,2.58168 2.99709,2.58168 0.22318,0 1.09884,0.49772 1.94592,1.10604 1.00119,0.719 2.20888,1.20344 3.45124,1.38439 2.42023,0.3525 11.60603,0.0664 12.8455,-0.40014 z"
       id="path310"
       inkscape:connector-curvature="0"
       transform="scale(0.26458333)" />
    <path
       style="fill:#000000;stroke-width:0.35714287"
       d="m 342.98346,452.49101 c -1.01251,-0.14512 -2.37858,-0.55129 -3.03572,-0.90259 -0.65714,-0.35131 -2.8823,-1.47125 -4.9448,-2.48876 -2.0625,-1.01751 -6,-3.19565 -8.75,-4.84031 -2.75,-1.64466 -6.44642,-3.69951 -8.21428,-4.56634 -2.74118,-1.34408 -3.66959,-2.05147 -6.3076,-4.80599 -1.70132,-1.77646 -3.46917,-3.96484 -3.92857,-4.86306 -0.81326,-1.59011 -0.83213,-1.84008 -0.71654,-9.49027 0.0653,-4.32143 0.27036,-8.55571 0.45568,-9.40951 0.58766,-2.70739 4.19814,-8.90852 6.57463,-11.29215 2.03453,-2.04063 5.71431,-4.43329 7.6724,-4.98873 0.49107,-0.1393 1.85714,-0.70422 3.03571,-1.25538 1.17857,-0.55115 3.50893,-1.35864 5.17857,-1.7944 1.66965,-0.43577 3.91965,-1.08369 5,-1.43984 1.08036,-0.35614 3.8125,-0.82812 6.07143,-1.04883 2.25893,-0.22071 5.85986,-0.73783 8.00207,-1.14915 5.08623,-0.97658 7.28366,-0.76288 11.10508,1.07999 5.44237,2.62457 10.91984,7.07225 13.4423,10.9151 1.86407,2.83982 2.55331,5.25766 3.89015,13.6464 0.91024,5.71181 1.09425,7.75457 0.94465,10.4865 -0.37547,6.85623 -3.5989,13.69396 -8.87066,18.81692 -1.49386,1.4517 -2.52478,2.07722 -4.76359,2.89035 -1.57143,0.57075 -3.96255,1.77992 -5.31361,2.68705 -2.73002,1.833 -5.57576,2.87516 -9.32924,3.41655 -4.23991,0.61155 -5.29276,0.66954 -7.19806,0.39645 z m -9.72511,-8.14212 c 0.46846,-0.357 1.35818,-0.85207 1.97717,-1.10015 0.61899,-0.24808 1.48268,-0.83132 1.91931,-1.29609 1.18122,-1.25735 0.89064,-4.5889 -0.58339,-6.68866 l -1.06423,-1.51601 -3.04653,-0.10228 c -3.0288,-0.10168 -3.05723,-0.0944 -4.88636,1.25 -2.56832,1.88771 -3.1743,3.9381 -2.018,6.82799 0.43697,1.09209 0.90652,1.53976 2.23214,2.12811 3.06357,1.3597 4.20219,1.46317 5.46989,0.49709 z m 32.28031,-27.87277 c 0.6412,-0.35722 1.46581,-1.37319 2.05357,-2.53013 1.71412,-3.37404 1.20342,-6.87899 -1.84247,-12.64499 -0.60718,-1.14941 -1.10396,-2.32503 -1.10396,-2.61248 0,-0.80149 -3.23862,-3.76676 -5.14936,-4.71474 -1.49839,-0.7434 -2.07811,-0.82702 -4.7954,-0.69168 -3.62048,0.18034 -5.27036,0.84562 -7.41933,2.99172 -2.17784,2.17491 -3.16093,4.92475 -3.16685,8.85808 l -0.005,3.16964 1.6469,1.47322 c 0.90579,0.81027 1.93412,1.9234 2.28517,2.47362 0.35106,0.55021 1.13674,1.25807 1.74597,1.57301 0.60922,0.31494 1.67018,1.01607 2.35768,1.55806 2.21042,1.74258 3.98349,2.14533 8.39285,1.90643 2.67102,-0.14472 4.27155,-0.40393 5,-0.80976 z"
       id="path312"
       inkscape:connector-curvature="0"
       transform="scale(0.26458333)" />
    <path
       style="fill:none;stroke:#000000;stroke-width:0.26458332px;stroke-linecap:butt;stroke-linejoin:miter;stroke-opacity:1"
       d="m 104.08519,122.94196 c -0.0442,0.36761 0.33923,0.56035 0.47353,0.86192 0.20124,0.33926 0.40325,0.73189 0.80079,0.8705 0.35956,0.1832 0.76297,0.24418 1.16255,0.24226 0.34433,-0.0169 0.60084,0.22944 0.91733,0.30901 0.44059,0.1081 0.89954,0.12147 1.35076,0.1306 0.51371,-0.0164 0.98605,-0.28302 1.3389,-0.6442 0.17024,-0.16197 0.38829,-0.25856 0.53692,-0.44458 0.17625,-0.18039 0.34349,-0.37097 0.48316,-0.58148 -0.001,-0.33391 0.34336,-0.58358 0.35409,-0.88573"
       id="path327"
       inkscape:connector-curvature="0" />
    <path
       style="fill:#ffff00;stroke-width:0.71428573"
       d="m 321.0363,650.261 c -7.06615,-2.33854 -10.79861,-5.34368 -15.40937,-12.40667 -4.1847,-6.41031 -5.92288,-11.44992 -8.20146,-23.779 -0.98017,-5.30357 -2.29631,-11.7047 -2.92475,-14.22474 -0.98264,-3.94031 -1.08291,-8.04097 -0.71612,-29.28571 0.23458,-13.58711 0.74706,-26.4717 1.13884,-28.63241 0.39177,-2.16071 1.02094,-7.46429 1.39814,-11.78571 0.37721,-4.32143 1.87634,-14.8387 3.3314,-23.37173 2.99243,-17.54862 2.97751,-17.72316 -1.93401,-22.63469 -1.53075,-1.53073 -7.93058,-6.07126 -14.22184,-10.09003 -11.96933,-7.64585 -15.54585,-10.57195 -32.29488,-26.42171 -5.61504,-5.31356 -13.73515,-12.19294 -18.0447,-15.28752 -15.82996,-11.36711 -30.69073,-24.39992 -33.74346,-29.59284 -2.73687,-4.65562 -2.7469,-11.7143 -0.024,-16.8872 2.4086,-4.57579 6.44394,-8.45358 10.79534,-10.37389 4.98805,-2.20126 14.78375,-2.67427 65.49373,-3.16252 44.70653,-0.43045 55.38769,-1.0161 57.80872,-3.16971 2.60402,-2.31638 6.96643,-16.89014 13.60071,-45.43674 4.79436,-20.62961 7.05723,-28.44028 13.55451,-46.78571 8.55272,-24.14905 13.90302,-32.24401 24.90514,-37.68128 7.10978,-3.51367 12.22553,-3.59436 18.91557,-0.29835 10.38988,5.11881 18.35058,16.29927 33.39951,46.9082 5.79446,11.78572 12.19403,24.16072 14.22126,27.5 2.02723,3.33929 5.45936,10.25 7.62696,15.35714 8.5212,20.0771 17.28352,34.43789 22.59606,37.03329 3.94896,1.92924 12.24457,2.26225 23.02235,0.9242 11.31617,-1.40489 12.65441,-1.44784 38.56349,-1.23786 13.65924,0.11071 22.53887,-0.12838 26.07143,-0.70197 7.62725,-1.23847 27.24902,-1.25931 32.14286,-0.0341 13.84366,3.46576 22.29726,12.64243 21.11473,22.92078 -0.5729,4.97957 -4.11777,12.27383 -9.73139,20.02428 -2.41863,3.33928 -6.08348,8.64285 -8.1441,11.78571 -5.18721,7.91154 -8.22301,11.1476 -21.16144,22.55737 -6.1925,5.46087 -13.09469,12.00672 -15.33821,14.54634 -4.94555,5.59825 -30.05751,28.16398 -37.46923,33.67003 -2.93798,2.18257 -7.06219,4.9527 -9.16491,6.15583 l -3.82311,2.18752 0.49772,4.72717 c 1.17458,11.1556 7.29642,29.67888 14.68163,44.42323 4.50693,8.99795 5.37153,12.25622 7.14097,26.91088 0.81823,6.77667 2.12632,14.49096 2.90688,17.14286 3.34658,11.3699 4.2247,15.32456 5.33538,24.02827 1.39435,10.92669 1.12342,15.21453 -1.1731,18.56609 -1.98476,2.89656 -6.29588,5.84752 -10.30801,7.05583 -1.6809,0.50622 -7.28941,0.86575 -13.5781,0.87042 -12.5333,0.009 -12.86881,-0.0975 -21.8415,-6.95259 -3.36998,-2.57464 -9.49808,-6.29491 -13.61801,-8.26728 -9.00713,-4.31206 -14.16275,-8.23547 -17.35287,-13.20547 -1.307,-2.03621 -6.03754,-7.23793 -10.51231,-11.55936 -4.81501,-4.65 -10.08481,-10.62694 -12.91044,-14.64285 -5.94275,-8.4461 -14.27289,-18.60815 -21.21016,-25.87456 -3.39538,-3.55647 -4.87254,-5.55402 -4.10714,-5.55402 0.65741,0 1.19529,-0.48214 1.19529,-1.07142 0,-0.58929 -0.50327,-1.07143 -1.11838,-1.07143 -1.58845,0 -3.98839,1.39223 -3.56918,2.07052 0.19385,0.31365 -0.29103,1.26096 -1.0775,2.10513 -0.78647,0.84418 -2.54161,3.66762 -3.90031,6.27431 -3.2085,6.15558 -8.81934,12.96129 -15.80546,19.17135 -10.5288,9.35922 -16.14903,15.02863 -29.05298,29.30726 -21.30857,23.57858 -31.26133,33.90988 -34.49055,35.80233 -3.69211,2.16371 -9.46255,2.7862 -13.48564,1.45477 z m 95.46355,-178.04513 c 2.81657,-1.95189 6.17427,-7.12102 5.21679,-8.03119 -0.26991,-0.25657 -0.85483,0.1751 -1.29982,0.95929 -0.445,0.78418 -2.16208,2.82232 -3.81573,4.52919 -2.9909,3.08717 -3.02829,3.10155 -7.14285,2.74657 -4.9003,-0.42277 -10.28432,-1.43745 -11.45005,-2.15791 -0.45815,-0.28316 -1.55023,-1.79096 -2.42683,-3.35066 -1.71404,-3.04972 -2.75934,-3.62785 -2.75934,-1.52611 0,2.01606 5.1999,7.25984 7.2117,7.27255 0.94428,0.006 3.1633,0.48269 4.93115,1.0594 4.28342,1.39733 8.0621,0.90558 11.53498,-1.50113 z m -64.70188,-18.90994 c 2.33108,-0.42316 5.66769,-1.62852 7.41467,-2.67857 1.747,-1.05005 4.79875,-2.56723 6.78169,-3.37153 6.79989,-2.75809 12.97706,-12.68115 13.77652,-22.1307 0.50644,-5.98617 -1.60383,-19.08708 -3.81919,-23.7101 -2.20834,-4.60835 -8.28704,-10.1851 -14.37596,-13.18885 -4.06771,-2.00666 -4.8856,-2.16327 -9.28571,-1.77805 -14.12012,1.2362 -23.68316,3.51038 -32.40283,7.7057 -5.82751,2.8038 -7.25958,4.16168 -10.83807,10.27658 -2.86483,4.89541 -2.93414,5.17382 -3.37824,13.57143 -0.24937,4.71542 -0.17454,9.61506 0.16629,10.88809 0.70155,2.62036 5.5219,8.54483 8.33211,10.24061 5.51951,3.33066 14.80445,8.48042 20.75279,11.51025 7.31196,3.72441 9.30603,4.03932 16.87593,2.66514 z m 130.35454,-10.24417 c 9.56031,-1.70563 15.50878,-5.5801 18.60042,-12.1152 1.74879,-3.69658 2.06804,-5.26073 2.06852,-10.13445 7.2e-4,-8.8823 -1.23567,-11.93554 -8.42795,-20.81012 -6.47113,-7.98476 -12.70666,-13.00771 -18.00006,-14.49974 -5.89619,-1.66194 -23.81775,0.14159 -28.17668,2.83555 -4.20178,2.59685 -8.23217,7.74987 -11.85366,15.15545 -3.53383,7.22631 -3.54108,7.2559 -3.53841,14.44733 0.003,8.6685 0.44515,9.58041 8.49913,17.53757 8.20387,8.10522 9.36282,8.52371 23.64105,8.53666 6.79612,0.006 14.07267,-0.39733 17.18764,-0.95305 z"
       id="path334"
       inkscape:connector-curvature="0"
       transform="scale(0.26458333)" />
    <path
       style="fill:#ffffff;stroke-width:0.71428573"
       d="m 352.41818,413.7208 c -1.28282,-0.91342 -3.32572,-2.7241 -4.53977,-4.02375 -2.02818,-2.17118 -2.18118,-2.67874 -1.88478,-6.25289 0.27895,-3.36379 0.67418,-4.21213 2.92214,-6.27223 2.16037,-1.97984 3.1559,-2.38232 5.89264,-2.38232 4.62982,0 7.08038,1.98579 10.01991,8.11955 2.6988,5.63146 2.9246,7.40857 1.3325,10.48735 -1.05954,2.04893 -1.23291,2.10569 -6.25,2.04622 -4.19348,-0.0497 -5.5972,-0.37231 -7.49264,-1.72193 z"
       id="path28"
       inkscape:connector-curvature="0"
       transform="scale(0.26458333)" />
    <path
       style="fill:#ffffff;stroke-width:0.71428573"
       d="m 328.12381,442.24911 c -2.24418,-1.57188 -2.03109,-4.18922 0.48704,-5.98229 2.72082,-1.93739 5.40976,-1.89386 6.81352,0.1103 1.63309,2.33155 1.36817,3.84705 -0.96262,5.50671 -2.47816,1.76461 -4.19856,1.86376 -6.33794,0.36528 z"
       id="path30"
       inkscape:connector-curvature="0"
       transform="scale(0.26458333)" />
    <path
       style="fill:#ffffff;stroke-width:0.71428573"
       d="m 451.69089,436.21143 c -4.2171,-2.57115 -3.69756,-4.39768 1.81819,-6.3922 2.28271,-0.82544 2.58355,-0.75191 4.52203,1.10527 2.48538,2.38114 2.63582,4.10672 0.48912,5.61033 -2.12225,1.48648 -4.00725,1.39722 -6.82934,-0.3234 z"
       id="path32"
       inkscape:connector-curvature="0"
       transform="scale(0.26458333)" />
    <path
       style="fill:#ffffff;stroke-width:0.71428573"
       d="m 468.32202,411.6662 c -2.94407,-1.68257 -4.52108,-4.57065 -4.60254,-8.42893 -0.0539,-2.5518 2.61627,-5.57984 7.04668,-7.99117 l 3.63375,-1.97773 1.96105,1.37576 c 1.07858,0.75667 3.13287,1.75566 4.56509,2.21999 3.02403,0.98039 6.32454,5.37548 6.32454,8.42201 0,1.07565 -0.52581,3.33254 -1.16847,5.01532 l -1.16847,3.05959 -6.86724,-0.031 c -5.80881,-0.0262 -7.30762,-0.28265 -9.72439,-1.66386 z"
       id="path36"
       inkscape:connector-curvature="0"
       transform="scale(0.26458333)" />
    <path
       style="fill:none;stroke:#000000;stroke-width:0.33834958px;stroke-linecap:butt;stroke-linejoin:miter;stroke-opacity:1"
       d="m 96.909985,134.11718 c -0.39362,-0.25185 -0.87486,-0.37651 -1.15769,-0.78428 -0.8456,-0.15767 -1.38618,-1.00273 -2.321661,-0.73411 -0.928449,-0.28035 -1.110709,0.71161 -1.48446,1.40422 -0.63471,0.11706 -0.20872,0.96894 -0.57042,1.37737 0.001,1.70767 0.009,3.42246 -0.006,5.1255 0.32886,0.56621 0.62113,1.22524 0.95619,1.70388 0.86086,0.46574 1.61005,0.62922 2.650841,0.52332 0.78263,0.14639 2.00026,-0.118 1.92902,-1.23834 0.0588,-0.26999 0.26485,-0.4963 0.23512,-0.78897"
       id="path63"
       inkscape:connector-curvature="0" />
    <path
       style="fill:none;stroke:#000000;stroke-width:0.33834958px;stroke-linecap:butt;stroke-linejoin:miter;stroke-opacity:1"
       d="m 100.25213,133.10356 c -0.002,2.91352 0.005,5.82705 -0.005,8.74057 0.0422,0.21132 0.18676,0.40919 0.11977,0.63545"
       id="path70"
       inkscape:connector-curvature="0" />
    <path
       style="fill:none;stroke:#000000;stroke-width:0.33834958px;stroke-linecap:butt;stroke-linejoin:miter;stroke-opacity:1"
       d="m 103.1854,137.90357 c 0,1.52308 0,3.04614 0,4.56922"
       id="path75"
       inkscape:connector-curvature="0" />
    <path
       style="fill:none;stroke:#000000;stroke-width:0.33834958px;stroke-linecap:butt;stroke-linejoin:miter;stroke-opacity:1"
       d="m 103.1854,135.39498 c 0.0543,0.17919 0.10867,0.35837 0.16299,0.53756"
       id="path81"
       inkscape:connector-curvature="0" />
    <path
       style="fill:none;stroke:#000000;stroke-width:0.33834958px;stroke-linecap:butt;stroke-linejoin:miter;stroke-opacity:1"
       d="m 107.1785,138.35154 c -0.58926,-0.0952 -1.61191,-0.39452 -1.78444,0.5031 -0.14416,0.64973 -0.4377,1.26019 -0.42934,1.93912 -0.14582,0.72827 0.44586,1.34693 1.08998,1.32376 0.517,0.0204 1.19209,0.0815 1.44974,-0.53976"
       id="path86"
       inkscape:connector-curvature="0" />
    <path
       style="fill:none;stroke:#000000;stroke-width:0.33834958px;stroke-linecap:butt;stroke-linejoin:miter;stroke-opacity:1"
       d="m 108.80834,132.97598 c -0.0193,2.67243 -0.0155,5.347 0.15733,8.01273 -0.005,0.55763 -0.0187,1.13435 0.16868,1.66325"
       id="path97"
       inkscape:connector-curvature="0" />
    <path
       style="fill:none;stroke:#000000;stroke-width:0.33834958px;stroke-linecap:butt;stroke-linejoin:miter;stroke-opacity:1"
       d="m 111.09011,137.0975 c -0.33681,0.50986 -1.09716,0.40765 -1.31353,1.0764 -0.17356,0.46551 -1.17964,0.68042 -0.71921,1.2433 0.32963,0.39527 0.48858,0.92755 0.9168,1.23448 0.37948,0.37854 0.65347,0.89119 1.08584,1.2013 0.20468,0.0995 0.62882,0.0627 0.68205,0.35074"
       id="path105"
       inkscape:connector-curvature="0" />
    <path
       style="fill:none;stroke:#000000;stroke-width:0.26458332px;stroke-linecap:butt;stroke-linejoin:miter;stroke-opacity:1"
       d="m 116.96977,142.39114 c -0.0167,-0.90457 0.0602,-1.81467 -0.0976,-2.71094 0.01,-2.0565 2.6e-4,-4.11435 0.004,-6.17151 0.16592,0.73814 1.14033,1.11578 1.66601,1.69166 0.41061,0.4265 0.73189,0.93703 1.19031,1.29822 0.3039,0.38493 0.71838,0.79303 1.018,1.07342"
       id="path116"
       inkscape:connector-curvature="0" />
    <path
       style="fill:none;stroke:#000000;stroke-width:0.26458332px;stroke-linecap:butt;stroke-linejoin:miter;stroke-opacity:1"
       d="m 120.75049,137.57199 c 0.7775,0.10357 0.80148,-0.69128 1.15957,-1.01965 0.65448,-0.53482 0.91652,-1.21012 1.3927,-1.9204 0.0526,-0.32338 0.67654,-1.18119 0.6316,-0.40671 -0.003,0.71316 0.0585,1.43677 -0.0678,2.13792 0.0632,0.71318 -0.10755,1.40273 -0.06,2.1151 0.002,1.05535 -0.002,2.11071 5.3e-4,3.16606 -0.0304,-0.0159 0.0146,0.0209 0,0"
       id="path127"
       inkscape:connector-curvature="0"
       sodipodi:nodetypes="cccccccc" />
    <path
       style="fill:none;stroke:#000000;stroke-width:0.26458332px;stroke-linecap:butt;stroke-linejoin:miter;stroke-opacity:1"
       d="m 125.89967,138.8476 c 0.99019,0.002 1.9804,-0.003 2.97058,0.003 0.12753,-0.0856 0.41682,-0.0917 0.25524,-0.29852 -0.0406,-0.27149 -0.15571,-0.52504 -0.30791,-0.73925 -0.11666,-0.13092 -0.29502,-0.1898 -0.42853,-0.3173 -0.28542,-0.12443 -0.52869,-0.34847 -0.87019,-0.29846 -0.28414,-0.0273 -0.57483,-0.004 -0.83105,0.12853 -0.14754,0.18357 -0.45645,0.19873 -0.62343,0.42613 -0.20977,0.23374 -0.14702,0.57773 -0.16733,0.8674 0.003,0.0761 0.003,0.15229 0.003,0.22847 z"
       id="path140"
       inkscape:connector-curvature="0" />
    <path
       style="fill:none;stroke:#000000;stroke-width:0.26458332px;stroke-linecap:butt;stroke-linejoin:miter;stroke-opacity:1"
       d="m 125.89967,138.8476 c -0.0766,0.40059 -0.0389,0.80986 -0.0498,1.21472 0.15802,0.2357 0.2519,0.52169 0.41813,0.73465 0.18986,0.22387 0.28479,0.48572 0.57356,0.56887 0.23168,0.1122 0.48929,0.19555 0.74823,0.22658 0.28427,-0.0603 0.67788,0.13353 0.84214,-0.1879 0.19362,-0.20324 0.442,-0.39549 0.58569,-0.57253"
       id="path148"
       inkscape:connector-curvature="0"
       inkscape:export-filename="C:\Users\suilt14\Desktop\site\public\mainplanet.png"
       inkscape:export-xdpi="96"
       inkscape:export-ydpi="96" />
  </g>
</svg>
