<?xml version="1.0" encoding="UTF-8" standalone="no"?>
<!-- Created with Inkscape (http://www.inkscape.org/) -->

<svg
   xmlns:dc="http://purl.org/dc/elements/1.1/"
   xmlns:cc="http://creativecommons.org/ns#"
   xmlns:rdf="http://www.w3.org/1999/02/22-rdf-syntax-ns#"
   xmlns:svg="http://www.w3.org/2000/svg"
   xmlns="http://www.w3.org/2000/svg"
   xmlns:sodipodi="http://sodipodi.sourceforge.net/DTD/sodipodi-0.dtd"
   xmlns:inkscape="http://www.inkscape.org/namespaces/inkscape"
   width="210mm"
   height="297mm"
   viewBox="0 0 210 297"
   version="1.1"
   id="svg30"
   inkscape:version="0.92.1 r15371"
   sodipodi:docname="mercury.svg">
  <defs
     id="defs24" />
  <sodipodi:namedview
     id="base"
     pagecolor="#ffffff"
     bordercolor="#666666"
     borderopacity="1.0"
     inkscape:pageopacity="0.0"
     inkscape:pageshadow="2"
     inkscape:zoom="1.4"
     inkscape:cx="375.25063"
     inkscape:cy="644.63168"
     inkscape:document-units="mm"
     inkscape:current-layer="layer1"
     showgrid="false"
     showguides="false"
     inkscape:window-width="798"
     inkscape:window-height="828"
     inkscape:window-x="-2"
     inkscape:window-y="0"
     inkscape:window-maximized="0" />
  <metadata
     id="metadata27">
    <rdf:RDF>
      <cc:Work
         rdf:about="">
        <dc:format>image/svg+xml</dc:format>
        <dc:type
           rdf:resource="http://purl.org/dc/dcmitype/StillImage" />
        <dc:title></dc:title>
      </cc:Work>
    </rdf:RDF>
  </metadata>
  <g
     inkscape:label="Layer 1"
     inkscape:groupmode="layer"
     id="layer1">
    <path
       id="path247"
       style="fill:none;stroke:#000000;stroke-width:0.26458332px;stroke-linecap:butt;stroke-linejoin:miter;stroke-opacity:1"
       d="m 137.2429,136.63828 c 0.018,-0.43121 -0.56459,-0.50515 -0.65674,-0.90619 -0.35701,-0.2773 -0.60648,-0.64312 -1.02107,-0.83316 -0.38726,-0.17116 -0.83559,-0.45981 -1.28945,-0.5268 -0.11122,-0.16314 -0.48123,-0.18687 -0.50761,-0.13921 m 1.47035,6.14713 c -0.78813,0.0879 -1.22279,-0.7678 -1.82726,-1.12768 -0.54766,-0.43784 -1.20383,-0.69448 -1.85061,-0.93088 -0.65605,-0.4451 -1.37683,-0.76549 -2.06843,-1.14876 m 3.74178,5.47912 c -1.42299,-0.31365 -2.61153,-1.18767 -3.92977,-1.76066 -0.84788,-0.41853 -1.56117,-1.04843 -2.28652,-1.63755 -0.24781,-0.24463 -0.47227,-0.51259 -0.73271,-0.74443 m 9.55033,-26.85929 c -0.43545,0.54489 -0.86511,1.0942 -1.28229,1.65216 -0.50184,0.58608 -1.02873,1.14941 -1.56308,1.70292 -0.0564,0.0686 -0.13466,0.1376 -0.13107,0.2359 m -0.14186,-10.63078 c -1.65365,0 -3.30729,0 -4.96094,0 -0.0446,0.0515 -0.0473,-0.0608 0,0 m 10.48884,-7.843008 c -0.20401,-0.0166 -0.24192,-0.295067 -0.41134,-0.315836 -0.0974,-0.149521 -0.18297,-0.321136 -0.36235,-0.387076 -0.20734,-0.102579 -0.27752,-0.37562 -0.50806,-0.440077 -0.15166,-0.130249 -0.31714,-0.244425 -0.44811,-0.396748 -0.1759,-0.100552 -0.28776,-0.261627 -0.45724,-0.34194 l -0.0408,-0.0058 -0.0399,-0.0024 m 6.66177,3.1183 c -3.02086,-0.68611 -6.52778,1.116003 -7.25844,4.229965 -0.44443,1.39913 -0.4149,2.89393 -0.28854,4.34166 0.45741,1.3001 1.04123,2.60333 1.80757,3.76042 1.40413,0.68974 2.95127,1.05093 4.44908,1.47984 1.27326,0.57449 2.25715,-0.65707 3.2335,-0.90293 0.14303,0.17368 0.14819,0.41457 0.18306,0.62417 m -2.64594,-15.234017 c -2.67286,0.0195 -5.51187,0.78837 -7.39153,2.780663 -1.91334,2.033734 -2.06862,5.010034 -1.97223,7.646584 0.4806,4.25745 5.1921,7.03 9.22617,6.312 1.05521,-0.16656 2.01105,-0.79125 2.78338,-1.50514 M 76.681919,79.00223 c 0.755006,-0.08077 1.490656,-0.288601 2.24784,-0.353883 0.59086,-0.0753 1.187638,-0.120379 1.768157,-0.260353 m -7.465031,18.426364 c 0.0085,0.406464 0.437156,0.626246 0.622708,0.953523 0.275334,0.334791 0.675564,0.530889 0.92903,0.88505 0.233824,0.319702 0.59305,0.537145 0.763355,0.901733 M 63.16927,101.01934 c -6.63e-4,0.52371 0.0013,1.04743 -9.84e-4,1.57114 0.126266,0.43922 -0.02873,0.9032 0.09409,1.34478 l 0.0015,0.0134 m -9.638505,-7.843007 c 3.705244,2.540616 8.700199,3.986147 12.936258,1.841301 4.118364,-1.905826 7.741449,-5.304472 9.412354,-9.568625 0.390487,-2.52194 0.608167,-5.520672 -1.062782,-7.647587 -0.828324,-1.086682 -1.876294,-1.975958 -2.906804,-2.862575 M 52.916666,97.239581 c 4.126594,3.289549 10.047971,4.784159 15.083997,2.941979 5.356414,-2.716422 10.821318,-7.452819 10.825461,-13.954403 0.07639,-3.515116 -1.496839,-6.961163 -3.923758,-9.457434 M 54.003347,111.13021 c -0.324616,0.0699 -0.665201,0.0936 -0.971679,-0.0448 -0.312514,-0.0253 -0.609416,-0.12778 -0.905014,-0.22486 -0.146268,-0.0907 -0.314769,-0.12181 -0.485675,-0.10836 m 5.764155,7.51232 c -0.313095,0.59641 -0.547049,1.23239 -0.753062,1.87232 -0.02719,0.10183 -0.04951,0.20629 -0.09738,0.30105 m 9.213165,-4.06325 c 0.693593,0.0974 1.25973,0.58671 1.958138,0.66698 0.555173,0.10196 0.986454,0.56967 1.585389,0.46659 m -9.402159,-9.54354 c -0.08764,-1.06649 -0.0562,-2.1442 0.0014,-3.2094 l 0.0207,-0.0967 0.02517,-0.0956 m 0.803178,6.37826 c -0.997685,-0.5485 -2.217791,-0.33088 -3.29686,-0.25441 -0.942496,0.26791 -1.101723,1.35035 -0.924188,2.17667 0.218405,1.6477 1.617901,2.90623 3.194004,3.26566 1.133286,0.26816 2.649414,0.25758 3.234534,-0.95741 0.35148,-0.80345 0.822273,-1.98243 0.03442,-2.68973 -0.807465,-0.3727 -1.309145,-1.229 -2.176261,-1.47387 l -0.03924,-0.04 z m 1.039434,-2.45685 c -2.05009,-0.91404 -4.350575,-0.0576 -6.213778,0.88351 -2.184636,1.63625 -2.294476,5.33801 -0.250376,7.14095 2.044511,2.06691 5.198518,3.5463 8.078543,2.39888 2.37187,-0.98764 2.915571,-3.93707 2.971998,-6.23681 -0.109861,-2.15279 -2.167994,-3.46561 -4.07689,-3.91019 l -0.261649,-0.12245 z m 41.701013,34.96929 c -1.11362,0 -2.22724,0 -3.34086,0 m 13.02938,4.34313 c 0.0445,1.00886 0.60977,1.88754 0.82043,2.8593 0.0927,0.18757 0.03,0.46629 0.18126,0.61453 m 0.71443,-11.88669 c 0.0908,-0.31202 0.50947,0.28347 0.67657,-0.0898 0.71609,-0.37139 1.46817,-0.67166 2.20492,-0.99331 0.34025,-0.24422 0.83943,-0.3069 1.08163,-0.66035 m -11.75962,4.27638 c 0.23156,-1.44624 2.06813,-1.64995 3.26051,-1.68777 1.94706,0.12299 3.86422,2.04816 3.34011,4.06563 -0.74128,1.64712 -2.9621,1.1932 -4.40772,1.0946 -1.3942,-0.48136 -2.29035,-2.02708 -2.1929,-3.47246 z m 7.7965,-2.53292 c -2.22947,-1.81158 -5.67479,-2.40963 -8.26434,-1.06597 -1.41035,1.08289 -3.35279,2.35739 -3.15598,4.3861 0.33367,2.19729 2.18003,4.06722 4.25384,4.75815 2.51754,0.28963 5.31609,0.62404 7.75232,-0.19663 2.20211,-1.62444 2.77332,-5.98042 -0.0109,-7.32488 l -0.32095,-0.24167 z M 58.178649,141.126 c 7.122488,-2.15341 14.35311,-4.96102 21.930943,-4.37874 6.902061,-0.83197 13.846161,-1.29517 20.798688,-1.1431 3.21718,-0.0866 6.46782,0.18032 9.66223,-0.14676 4.86167,-0.72512 9.8253,-1.48255 14.15421,-3.97766 3.94025,-2.1431 7.66777,-4.73297 11.85802,-6.36456 2.19915,-1.29524 4.26615,-3.04052 6.67023,-3.87411 m -94.494043,5.66964 c 4.858456,2.01926 9.223782,-2.00404 13.619647,-3.43049 3.157012,-0.79845 6.462295,-0.95377 9.721245,-1.03835 8.694549,0.12745 16.797191,4.01399 25.416926,4.58025 8.728315,0.052 17.136025,-2.60621 25.476905,-4.85552 7.06664,-3.29651 14.55791,-5.8482 21.15022,-10.05827 0.207,-0.19315 0.41401,-0.3863 0.62101,-0.57945 M 52.916666,97.239581 c 11.165833,7.583959 22.840281,17.962739 37.33706,16.326709 9.160603,-1.51951 17.517974,-5.96877 26.630184,-7.74368 8.16762,-2.86251 13.52581,-5.61829 21.36088,-9.055498 l 3.8743,-0.472441 M 95.25719,73.612137 78.997023,75.883928 c -3.349941,0.803068 -6.512843,1.416579 -9.449406,3.401785 -2.585549,1.760518 -4.160141,3.066512 -6.832871,5.073377 -0.392972,1.606214 -2.744517,1.609502 -3.372486,3.242098 -1.736681,1.600419 -3.466513,3.366966 -4.157737,5.669643 -1.952756,2.416475 -2.271991,5.956706 -3.762638,8.392709 -0.873983,1.45696 -2.206435,6.28905 -2.662958,9.37217 -0.535839,2.20354 -0.631233,4.51106 -0.755952,6.81166 0.193063,3.03669 -0.542528,6.24569 0.755952,9.06334 1.077161,3.26695 0.946121,4.72412 2.645833,6.04762 1.356623,3.16027 4.475312,5.55621 6.773889,8.16767 2.821443,1.63151 4.55918,4.19909 7.211231,5.81745 2.561772,2.03556 4.735898,4.18081 7.937501,4.91369 2.957962,1.42413 6.241056,1.88164 8.693451,3.40179 3.591493,0.37319 6.796604,2.15763 10.336743,2.26785 2.693145,-0.13382 5.248373,0.59263 7.953675,0.37798 2.47069,-0.005 4.94243,0.008 7.41196,0 2.10747,-1.28171 7.53826,-3.17165 8.17533,-3.27278 2.89577,-1.19154 5.0753,-2.20503 7.69967,-3.53079 2.1575,-1.85566 4.55619,-3.23266 6.55227,-5.41834 2.23991,-1.89085 3.64901,-3.29431 5.54297,-5.92095 1.88982,-2.79915 3.567,-5.61493 4.15774,-8.69345 1.46901,-3.13777 2.63211,-6.44726 3.40178,-9.82738 1.14337,-3.14262 1.2145,-6.46269 1.51191,-9.71217 v -5.40688 c -0.91674,-3.11014 -1.14731,-6.835757 -2.64583,-9.827377 -2.71925,-1.228683 -3.05893,-1.889924 -4.58067,-4.157222 -1.24747,-2.750069 -3.61919,-5.566502 -5.43635,-7.57513 -0.0707,-1.421798 -3.06553,-3.311452 -3.95925,-3.96594 -2.30643,-1.386483 -5.57137,-2.217601 -8.34222,-2.808704 -2.84442,0.315054 -4.02008,-2.236017 -6.72723,-2.239774 -2.18299,-0.0046 -4.46772,-1.074404 -6.65026,-1.081304 v 0 z" />
    <path
       sodipodi:type="inkscape:offset"
       inkscape:radius="0.49122813"
       inkscape:original="M 95.431641 74.083984 L 87.400391 75.189453 C 79.985205 76.208943 77.738924 76.583717 76.103516 77.078125 L 75.486328 77.265625 L 76.09375 78.046875 C 76.427493 78.477037 76.721877 78.859194 76.748047 78.896484 C 76.800011 78.97057 79.920617 78.574305 80.455078 78.425781 C 80.659516 78.36897 80.785156 78.436826 80.785156 78.603516 C 80.785156 78.802371 80.327632 78.932063 79.042969 79.095703 C 78.084817 79.217752 77.262897 79.354601 77.216797 79.400391 C 77.170696 79.446183 77.395461 80.01923 77.716797 80.673828 C 78.934352 83.154118 79.327964 85.963467 78.8125 88.490234 C 78.244974 91.272197 77.148418 93.225981 74.800781 95.638672 L 73.421875 97.056641 L 74.552734 98.167969 C 75.581643 99.179273 75.935607 99.759766 75.525391 99.759766 C 75.439436 99.759766 74.839294 99.200828 74.191406 98.517578 L 73.013672 97.275391 L 72.599609 97.652344 C 72.03471 98.167624 69.761464 99.59987 68.529297 100.2168 C 67.510291 100.72699 65.222861 101.26172 64.056641 101.26172 L 63.427734 101.26172 L 63.365234 102.79102 L 63.302734 104.32031 L 65.117188 105.48828 C 72.109306 109.99281 77.951292 112.48714 83.298828 113.25 C 83.942876 113.34192 85.650467 113.42675 87.09375 113.43945 C 91.270788 113.47633 94.263629 112.7358 106.26562 108.69727 C 109.20978 107.7066 112.86716 106.59108 114.39258 106.21875 C 118.56347 105.20069 122.62506 103.6139 133.56055 98.728516 C 135.82132 97.718528 137.66992 96.830596 137.66992 96.753906 C 137.66992 96.677214 137.28806 96.30257 136.82031 95.921875 C 135.99495 95.250111 135.76169 94.878906 136.16602 94.878906 C 136.27442 94.878906 136.78147 95.266818 137.29102 95.740234 L 138.2168 96.599609 L 139.45703 96.46875 C 140.13981 96.396123 140.74298 96.264394 140.79688 96.177734 C 140.8508 96.091069 140.64602 95.892583 140.3418 95.736328 C 139.59284 95.351638 138.02611 93.574661 137.38281 92.380859 C 136.40032 90.557623 134.88448 88.370575 133.3457 86.552734 C 132.50151 85.555458 131.8125 84.617922 131.8125 84.46875 C 131.8125 84.04665 130.09721 82.445897 128.5293 81.404297 C 127.74808 80.885306 126.42154 80.197315 125.58008 79.875 C 124.02695 79.280093 119.55033 78.087359 119.40625 78.230469 C 119.16593 78.469169 117.38028 77.870073 116.08398 77.115234 C 114.752 76.33961 114.3845 76.218708 112.66602 75.990234 C 111.60687 75.849418 110.22913 75.604869 109.60547 75.447266 C 108.98181 75.289663 105.53722 74.919053 101.95117 74.623047 L 95.431641 74.083984 z "
       style="fill:#ff7f2a;stroke-width:0.18834963"
       id="path264"
       d="m 95.423828,73.59375 a 0.49127726,0.49127726 0 0 0 -0.05859,0.0039 l -8.03125,1.105469 c -7.418017,1.019879 -9.684193,1.393732 -11.373046,1.904297 l -0.617188,0.1875 a 0.49127726,0.49127726 0 0 0 -0.246094,0.771484 l 0.607422,0.78125 c 0.166564,0.214684 0.323329,0.417002 0.441406,0.570313 0.118077,0.153311 0.230392,0.304185 0.199219,0.259765 2.03e-4,2.9e-4 0.06806,0.0798 0.06836,0.08008 2.97e-4,2.76e-4 0.04376,0.03626 0.0625,0.04883 0.03748,0.02514 0.06745,0.03893 0.0918,0.04883 0.04869,0.0198 0.0775,0.02471 0.101563,0.0293 0.02497,0.0048 0.03638,0.0044 0.05273,0.0059 -0.0021,0.04085 -0.0028,0.07972 0,0.105469 0.0075,0.0677 0.02132,0.112429 0.03516,0.162109 0.02768,0.09936 0.06438,0.205484 0.113282,0.330078 0.09781,0.24919 0.238607,0.564815 0.404297,0.902344 1.171351,2.386168 1.548061,5.093046 1.05664,7.501953 -0.551758,2.704673 -1.574294,4.531809 -3.882812,6.904297 l -1.378907,1.417969 a 0.49127726,0.49127726 0 0 0 -0.05859,0.07031 0.49127726,0.49127726 0 0 0 -0.328125,0.126953 l -0.414063,0.376953 c -0.207483,0.189259 -0.933818,0.698098 -1.716797,1.191407 -0.782978,0.493308 -1.655996,1.002398 -2.24414,1.296875 -0.878724,0.439956 -3.235891,0.992186 -4.251953,0.992186 h -0.628907 a 0.49127726,0.49127726 0 0 0 -0.490234,0.47266 l -0.0625,1.52929 -0.0625,1.5293 a 0.49127726,0.49127726 0 0 0 0.224609,0.43164 l 1.814453,1.16797 c 7.027435,4.52728 12.930729,7.059 18.376954,7.83594 0.722429,0.1031 2.402208,0.18052 3.861328,0.19336 4.237161,0.0374 7.323848,-0.72697 19.332036,-4.76758 2.93325,-0.987 6.60632,-2.10517 8.08789,-2.4668 4.21375,-1.02852 8.31127,-2.62987 19.25195,-7.517576 1.13381,-0.506522 2.16316,-0.982975 2.91406,-1.34375 0.37545,-0.180387 0.67995,-0.332267 0.89844,-0.447265 0.10924,-0.0575 0.19555,-0.10442 0.26758,-0.148438 0.036,-0.02201 0.0685,-0.04046 0.10937,-0.07227 0.0204,-0.0159 0.042,-0.03407 0.0781,-0.07422 0.006,-0.0067 0.0145,-0.02269 0.0215,-0.03125 a 0.49127726,0.49127726 0 0 0 0.2168,0.02734 l 1.24023,-0.13086 a 0.49127726,0.49127726 0 0 0 0.002,0 c 0.35732,-0.03801 0.69043,-0.09043 0.95703,-0.148437 0.1333,-0.029 0.2488,-0.05781 0.35351,-0.09375 0.0524,-0.01797 0.10237,-0.0381 0.16016,-0.06836 0.0578,-0.03026 0.13387,-0.04739 0.23437,-0.208984 0.13159,-0.211496 0.074,-0.446044 0.0176,-0.560547 -0.0564,-0.114503 -0.12076,-0.181376 -0.1875,-0.246094 -0.13347,-0.129435 -0.29106,-0.235748 -0.47851,-0.332031 -0.22488,-0.115501 -0.82874,-0.642217 -1.375,-1.261719 -0.54627,-0.619501 -1.08602,-1.348774 -1.37696,-1.888671 -1.00476,-1.864569 -2.53222,-4.067396 -4.09375,-5.91211 -0.41563,-0.491001 -0.79391,-0.968785 -1.0625,-1.333984 -0.13429,-0.1826 -0.24188,-0.338576 -0.30859,-0.445313 -0.0334,-0.05337 -0.0562,-0.09631 -0.0645,-0.113281 -0.008,-0.01697 0.0195,-0.04543 0.0195,0.125 0,-0.219113 -0.0739,-0.335264 -0.14453,-0.457031 -0.0706,-0.121767 -0.15614,-0.239014 -0.25977,-0.365235 -0.20726,-0.25244 -0.48343,-0.534281 -0.80664,-0.835937 -0.64641,-0.603312 -1.48118,-1.27516 -2.29297,-1.814453 -0.82804,-0.550096 -2.14645,-1.235927 -3.04492,-1.580078 -0.82138,-0.31462 -2.3227,-0.757896 -3.66406,-1.115235 -0.67069,-0.178669 -1.2967,-0.333785 -1.77344,-0.4375 -0.23837,-0.05186 -0.439,-0.09012 -0.59961,-0.113281 -0.0803,-0.01158 -0.14872,-0.0196 -0.22461,-0.02148 -0.0379,-9.42e-4 -0.076,-0.003 -0.13476,0.0059 -0.0587,0.0089 -0.15128,0.0019 -0.29883,0.148437 0.1143,-0.113534 0.17129,-0.09294 0.15429,-0.0918 -0.017,0.0011 -0.0837,1.8e-5 -0.17187,-0.01367 -0.17631,-0.02738 -0.44431,-0.09598 -0.74609,-0.197266 -0.60358,-0.202573 -1.35262,-0.532171 -1.96485,-0.888672 -1.34675,-0.784225 -1.86971,-0.957248 -3.60156,-1.1875 -1.04067,-0.138358 -2.42983,-0.38813 -3.00391,-0.533203 -0.43143,-0.109025 -1.39256,-0.221176 -2.78515,-0.371094 -1.3926,-0.149917 -3.1523,-0.318472 -4.94922,-0.466797 L 95.472656,73.59375 a 0.49127726,0.49127726 0 0 0 -0.04883,0 z" />
    <path
       style="fill:#ff7f2a;stroke-width:0.71428573"
       d="m 211.84726,523.77211 c -8.97543,-9.37608 -13.28896,-14.65607 -15.44706,-18.90804 -0.78571,-1.54804 -1.99537,-3.23765 -2.68813,-3.75468 -1.91146,-1.4266 -4.1185,-6.20125 -6.24497,-13.51022 l -1.9182,-6.59312 1.85422,0.52169 c 1.01983,0.28694 4.74708,0.51331 8.2828,0.50304 7.86076,-0.0228 10.4087,-0.82732 26.07143,-8.23189 17.54646,-8.29512 23.7721,-9.5304 48.21428,-9.56664 19.29392,-0.0286 20.84647,0.21073 55.04303,8.48536 23.59244,5.70873 31.87611,7.27863 42.09983,7.97863 12.97358,0.88829 35.79932,-2.14803 59.19219,-7.87385 25.32759,-6.19937 38.39196,-10.12763 48.30781,-14.52543 5.30357,-2.3522 15.10714,-6.60067 21.78571,-9.44106 16.07273,-6.8357 34.85864,-15.95863 43.03572,-20.89927 5.01578,-3.03056 6.6053,-3.70658 6.59949,-2.80677 -0.0286,4.43809 -2.3316,21.45478 -3.53511,26.12099 -0.80148,3.10748 -1.45724,5.7357 -1.45724,5.84049 0,0.10479 -1.75578,0.99435 -3.90175,1.9768 -2.14596,0.98246 -7.85132,4.34373 -12.67857,7.4695 -4.82725,3.12576 -10.86611,6.55436 -13.41968,7.61909 -5.60766,2.33816 -10.90303,5.20419 -29.84473,16.15297 -20.30726,11.7381 -28.56722,14.7874 -51.52425,19.02103 -9.28468,1.71224 -11.39403,1.81304 -48.98816,2.34111 -37.76872,0.53053 -47.24055,0.98255 -68.10384,3.25013 -5.24283,0.56982 -13.55872,1.03605 -18.47976,1.03605 -15.56398,0 -29.75187,2.76717 -56.63069,11.04515 -8.44643,2.60127 -15.83928,4.84352 -16.42857,4.98278 -0.63104,0.14913 -4.41076,-3.23521 -9.1958,-8.23384 z"
       id="path266"
       inkscape:connector-curvature="0"
       transform="scale(0.26458333)" />
    <path
       style="fill:#ff7f2a;stroke-width:0.71428573"
       d="m 228.01382,386.18233 c -5.39822,-3.78616 -9.72869,-6.97019 -9.62326,-7.07563 0.10543,-0.10543 2.55345,0.42837 5.44004,1.18622 2.88659,0.75785 7.29742,1.58784 9.80183,1.84443 l 4.55349,0.46652 v 5.2585 c 0,2.89218 -0.0804,5.24622 -0.17857,5.2312 -0.0982,-0.015 -4.5953,-3.12507 -9.99353,-6.91124 z"
       id="path268"
       inkscape:connector-curvature="0"
       transform="scale(0.26458333)" />
    <path
       sodipodi:type="inkscape:offset"
       inkscape:radius="1.5673193"
       inkscape:original="M 201.31641 369.68164 L 199.29688 375.15234 C 198.18615 378.16049 196.24111 382.7101 194.97461 385.26367 C 191.30301 392.66656 188.24784 403.12856 185.36523 418.16797 C 183.03898 430.30469 182.48101 437.54274 182.50781 455.26367 C 182.52885 469.16686 182.7425 472.66296 183.75195 475.62109 C 184.88654 478.94594 185.19318 479.24965 188.18555 480.02734 C 196.44708 482.17446 202.77627 480.73128 219.85938 472.80078 C 226.99226 469.48948 234.59709 466.28504 236.75781 465.68164 C 243.71782 463.73799 257.5023 462.34421 270.32812 462.28711 C 286.01912 462.21721 293.60453 463.41049 323.18555 470.59961 C 356.41466 478.6753 364.01233 479.76212 380.21094 478.75195 C 395.46146 477.80091 407.06027 475.85613 427.11523 470.89062 C 447.75276 465.78088 464.49212 460.97326 469.41602 458.74219 C 472.07892 457.5356 482.45285 453.02035 492.4707 448.70898 C 502.48856 444.39761 516.31055 438.08301 523.18555 434.67578 L 535.68555 428.48047 L 529.61523 428.02148 C 523.5369 427.56158 518.65988 426.20601 515.40039 424.07031 C 513.7838 423.01108 513.59513 423.02672 512.70312 424.27734 C 510.00477 428.0606 502.72126 435.97852 501.93945 435.97852 C 500.54243 435.97852 500.82325 435.44255 504.11523 431.83984 C 505.80498 429.9906 508.30304 427.10027 509.66602 425.41602 L 512.14453 422.35352 L 508.54102 418.63086 C 503.47789 413.3996 501.60371 409.12526 501.19531 401.87109 L 500.86328 395.97852 L 491.26758 395.97852 C 485.0525 395.97852 481.82929 395.72632 482.11523 395.26367 C 482.37237 394.84762 486.3765 394.54883 491.70703 394.54883 L 500.85938 394.54883 L 501.32227 391.0625 C 502.07219 385.40932 503.75958 380.61714 506.36328 376.74805 C 507.70545 374.75359 508.66508 373.12109 508.49609 373.12109 C 508.32711 373.12109 500.71489 376.45915 491.58008 380.53906 C 461.16164 394.12498 447.46928 399.34381 433.18555 402.79883 C 427.48912 404.17671 409.97209 409.62152 394.25781 414.89844 C 351.78533 429.16089 338.73072 431.90713 321.1543 430.27148 C 291.50874 427.51269 268.04674 416.55223 221.75781 383.8418 C 215.27566 379.26115 208.02459 374.20136 205.64453 372.59766 L 201.31641 369.68164 z M 226.40039 395.10547 C 226.79325 395.21518 227.0497 396.82316 226.9707 398.67773 C 226.89167 400.53231 226.99206 403.4163 227.19336 405.08594 C 227.50791 407.69476 227.79604 408.12109 229.24219 408.12109 C 230.16772 408.12109 233.86579 409.29623 237.46094 410.73242 C 245.32073 413.87224 249.77338 417.72158 251.08789 422.51367 C 251.9088 425.50631 251.24413 434.95806 249.98438 438.20312 C 249.62216 439.13614 250.76951 439.75168 255.98633 441.41797 C 259.53443 442.55126 262.44608 443.88002 262.45508 444.37109 C 262.47882 445.62039 262.02197 445.53809 255.25977 443.08789 C 249.73886 441.08746 249.19992 441.01055 248.54297 442.12695 C 246.85621 444.99339 243.47007 448.31611 240.75391 449.76953 C 236.55604 452.01582 226.49303 451.97239 221.45117 449.68555 C 219.51531 448.8075 217.69011 448.3372 217.39453 448.64062 C 217.09895 448.94405 216.22084 450.79938 215.44336 452.76367 C 214.45335 455.26493 213.89335 455.99452 213.57422 455.19727 C 213.3236 454.57118 213.75983 452.43216 214.54297 450.44531 L 215.9668 446.83398 L 213.13477 444.87109 C 205.30674 439.44626 201.64145 431.85541 203.11328 424.11914 L 203.66992 421.1875 L 199.40625 420.39453 C 194.9916 419.57354 194.05171 419.15923 194.83398 418.37695 C 195.08616 418.12477 197.29053 418.34312 199.73242 418.86133 C 203.40767 419.64127 204.2264 419.64109 204.48633 418.86133 C 205.85921 414.74269 214.43156 409.4825 221.75781 408.26367 L 224.9707 407.72852 L 225.32812 401.31836 C 225.53797 397.55104 225.98068 394.98825 226.40039 395.10547 z "
       style="fill:#aa0000;stroke-width:0.71428573"
       id="path270"
       d="m 201.30469,368.11523 a 1.567476,1.567476 0 0 0 -1.45899,1.02344 l -2.01953,5.47071 c -1.08265,2.93212 -3.0348,7.49508 -4.25586,9.95703 -3.77899,7.61942 -6.84828,18.19813 -9.74414,33.30664 -2.33921,12.20436 -2.91161,19.6381 -2.88476,37.39257 0.0211,13.91885 0.2186,17.60995 1.32812,20.86133 0.57652,1.68947 0.96025,2.83148 1.89844,3.76367 0.93819,0.9322 2.0914,1.25624 3.62305,1.6543 4.30781,1.11958 8.3156,1.30638 13.27148,0.17578 4.95588,-1.1306 10.88136,-3.51696 19.45703,-7.49804 3.54863,-1.64738 7.21927,-3.27091 10.26172,-4.55274 3.04245,-1.28183 5.55155,-2.24201 6.39844,-2.47851 6.63062,-1.85167 20.43897,-3.28128 33.15625,-3.33789 15.60929,-0.0695 22.91857,1.08553 52.47851,8.26953 33.25103,8.08101 41.19545,9.20977 57.49414,8.19336 15.33373,-0.95623 27.08446,-2.92785 47.1836,-7.9043 10.33411,-2.55867 19.69391,-5.04109 27.09961,-7.16797 7.4057,-2.12688 12.78607,-3.85778 15.4707,-5.07422 2.60796,-1.18169 13.01359,-5.71187 23.02734,-10.02148 10.04745,-4.32411 23.85747,-10.63212 30.79102,-14.06836 l 12.5,-6.19531 a 1.567476,1.567476 0 0 0 -0.57617,-2.9668 l -6.07031,-0.45899 c -5.91019,-0.44717 -10.5603,-1.78968 -13.47461,-3.69921 -0.83464,-0.54688 -1.38992,-1.10897 -2.59961,-1.01563 -0.0251,0.002 -0.0357,0.0264 -0.0606,0.0293 a 1.567476,1.567476 0 0 0 -0.32813,-0.50977 l -3.60351,-3.72265 c -4.90084,-5.06358 -6.51299,-8.73783 -6.9082,-15.75782 l -0.33204,-5.89258 a 1.567476,1.567476 0 0 0 -0.17187,-0.6289 1.567476,1.567476 0 0 0 0.15625,-0.50586 l 0.46289,-3.48633 a 1.567476,1.567476 0 0 0 0.002,0 c 0.7248,-5.46382 2.34297,-10.0145 4.78711,-13.64648 0.68508,-1.01802 1.27172,-1.94208 1.6836,-2.64258 0.20594,-0.35025 0.36538,-0.63439 0.49218,-0.90235 0.0634,-0.13397 0.11914,-0.23975 0.1836,-0.48632 0.0322,-0.12329 0.10776,-0.26034 0.041,-0.69141 -0.0334,-0.21553 -0.12781,-0.55635 -0.43945,-0.87305 -0.31164,-0.31669 -0.80819,-0.47265 -1.12891,-0.47265 -0.32515,0 -0.34844,0.0358 -0.40625,0.0508 -0.0578,0.015 -0.0898,0.0255 -0.11914,0.0351 -0.0587,0.0193 -0.10043,0.0353 -0.14648,0.0527 -0.0921,0.0348 -0.19407,0.0764 -0.32227,0.12891 -0.25639,0.10507 -0.60872,0.25332 -1.05273,0.44335 -0.88803,0.38007 -2.1423,0.9263 -3.67774,1.59961 -3.07088,1.34664 -7.25998,3.20103 -11.83007,5.24219 -30.395,13.57545 -43.96936,18.74393 -58.125,22.16797 -5.89985,1.42708 -23.31758,6.85148 -39.05664,12.13672 -42.43816,14.25092 -55.11697,16.91285 -72.46094,15.29883 -29.34018,-2.73037 -52.41688,-13.48683 -98.63672,-46.14844 -6.48779,-4.58463 -13.71896,-9.63062 -16.14258,-11.26367 a 1.567476,1.567476 0 0 0 0,-0.002 l -4.32812,-2.91602 a 1.567476,1.567476 0 0 0 -0.88672,-0.26563 z m 25.12304,40.18555 c 1.09777,1.9475 7.17087,3.05243 5.44727,2.08203 1.44498,0.45913 3.2415,1.10064 5.00391,1.80469 7.63934,3.05176 11.56497,6.61241 12.69726,10.74023 0.27055,0.9863 0.39082,4.16902 0.17578,7.22657 -0.21503,3.05754 -0.75077,6.25176 -1.22851,7.48242 -0.21263,0.54768 -0.19282,1.47527 0.19336,2.07617 0.10454,0.16267 0.2696,0.20119 0.38867,0.32617 -0.24722,0.0444 -0.49532,-0.0289 -0.73242,0.0937 -0.62342,0.32243 -0.96591,0.83261 -1.18164,1.19922 -1.49028,2.53253 -4.85995,5.81444 -7.17774,7.05469 -1.63588,0.87536 -5.07833,1.48788 -8.58789,1.47266 -3.50956,-0.0152 -7.16102,-0.61863 -9.32812,-1.60157 -1.04082,-0.47208 -2.04078,-0.83374 -2.89844,-1.05469 -0.42883,-0.11047 -0.81501,-0.18955 -1.2207,-0.21484 -0.12802,-0.008 -0.29547,-0.01 -0.45118,-0.0176 a 1.567476,1.567476 0 0 0 -0.66796,-1.42578 l -2.83204,-1.96289 c -7.45368,-5.16541 -10.72235,-12.08791 -9.375,-19.16992 l 0.55664,-2.93164 a 1.567476,1.567476 0 0 0 -0.14062,-0.99609 c 0.41983,-0.31778 0.78054,-0.7557 0.9043,-1.12696 0.44026,-1.3208 2.66989,-3.6653 5.73632,-5.54687 3.06644,-1.88157 6.90596,-3.43425 10.30664,-4 l 3.2129,-0.53516 a 1.567476,1.567476 0 0 0 1.19921,-0.97461 z"
       transform="scale(0.26458333)" />
    <path
       style="fill:#800000;stroke-width:0.71428573"
       d="m 362.47163,595.2383 c -2.55357,-0.28703 -7.27363,-0.55945 -10.48901,-0.60537 -6.70264,-0.0957 -12.4252,-1.18941 -24.67309,-4.71551 -4.7643,-1.37163 -10.5941,-2.84415 -12.95513,-3.27228 -2.36102,-0.42814 -5.83042,-1.55762 -7.70977,-2.50996 -1.87936,-0.95234 -8.00675,-3.31343 -13.61643,-5.24686 -23.2542,-8.0148 -26.19064,-9.34803 -34.51958,-15.67293 -14.53273,-11.03599 -19.00837,-14.64653 -25.3227,-20.4281 -3.73214,-3.41725 -7.66964,-6.73803 -8.75,-7.37952 -1.08036,-0.64148 -1.96429,-1.35525 -1.96429,-1.58614 0,-0.52624 28.60707,-9.2821 38.22424,-11.69943 11.87085,-2.98379 19.97272,-4.05166 35.70433,-4.70603 8.25,-0.34316 19.98215,-1.12062 26.07143,-1.72769 17.89007,-1.78356 38.40392,-2.56761 67.17875,-2.56761 25.63884,0 27.5101,-0.0905 37.931,-1.83485 17.8471,-2.98738 29.98875,-6.42765 39.53311,-11.20148 2.35714,-1.17898 10.71429,-5.85917 18.57143,-10.40043 7.85714,-4.54126 18.46428,-10.25522 23.57143,-12.69769 5.10714,-2.44246 12.26745,-6.40037 15.9118,-8.79534 3.64435,-2.39496 8.55448,-5.32793 10.9114,-6.5177 l 4.2853,-2.16322 -0.48022,1.98393 c -1.26772,5.23726 -6.4288,20.47634 -8.88798,26.24344 -1.51382,3.55013 -3.6071,9.18691 -4.65171,12.5262 -1.56821,5.01307 -5.33447,13.71562 -6.47114,14.95265 -0.15656,0.17038 -1.60385,-1.06309 -3.21619,-2.74106 -2.72858,-2.83965 -7.97993,-5.78302 -10.31763,-5.78302 -2.11393,0 -0.87107,1.22419 2.77865,2.73692 2.08497,0.86417 5.13444,2.94023 6.7766,4.61347 l 2.98575,3.04225 -3.66268,5.93604 c -2.01447,3.26482 -4.0988,6.10339 -4.63182,6.30793 -0.53303,0.20455 -2.0894,-0.6117 -3.4586,-1.81388 -2.35118,-2.06436 -16.0294,-9.39416 -17.53055,-9.39416 -2.02105,0 0.008,1.51201 6.14167,4.57754 3.76188,1.88001 7.8601,4.30045 9.10714,5.37875 1.24704,1.0783 2.81863,2.25896 3.49241,2.62371 1.08375,0.58667 0.89193,1.0529 -1.66272,4.04159 -1.58828,1.85813 -3.3187,3.37841 -3.84537,3.37841 -2.08043,0 -16.68901,-7.9968 -20.94342,-11.46452 -5.64774,-4.60342 -6.86179,-3.91286 -1.55926,0.88691 2.5418,2.30082 7.13839,5.14711 13.0217,8.06328 l 9.09312,4.50718 -5.49477,4.89643 c -3.02213,2.69304 -6.95332,6.29477 -8.73598,8.00385 -1.78267,1.70908 -7.41979,6.35008 -12.52693,10.31334 -11.98082,9.29738 -25.04337,15.74379 -48.21429,23.79388 -4.125,1.43311 -10.52016,4.01217 -14.21148,5.73122 l -6.71148,3.12558 -19.71709,-0.10893 c -10.8444,-0.0599 -21.80638,-0.34376 -24.35995,-0.63079 z m 68.82214,-27.253 c -0.6004,-2.02178 -1.38458,-4.44644 -1.74261,-5.38813 -1.1421,-3.00396 -0.77381,-3.45081 3.58642,-4.3514 3.25545,-0.6724 4.66841,-1.38746 6.09737,-3.08569 4.3129,-5.12559 5.94248,-11.24401 4.65127,-17.46373 -0.67424,-3.2478 -1.45189,-4.65038 -3.98012,-7.17861 l -3.14215,-3.14215 6.42527,-2.94338 c 3.75621,-1.7207 6.42527,-3.37092 6.42527,-3.9726 0,-0.56607 -0.24107,-0.90824 -0.53571,-0.76037 -4.73893,2.37815 -13.33466,6.27878 -13.83644,6.27878 -0.36216,0 -1.87805,-0.80708 -3.36864,-1.7935 -4.69207,-3.10507 -10.41417,-4.70671 -16.80727,-4.70444 -7.11593,0.002 -10.63923,1.17358 -16.04423,5.33264 -5.67475,4.36661 -8.14377,8.11832 -8.54762,12.98815 l -0.3227,3.89143 h -5.98298 c -3.51247,0 -5.98298,0.29494 -5.98298,0.71429 0,0.42315 2.61421,0.71428 6.41406,0.71428 h 6.41405 l 1.41399,2.77166 c 1.89533,3.71516 6.94894,8.65733 10.81946,10.58088 2.8616,1.42213 9.02205,2.36638 21.26023,3.25868 2.31267,0.16863 2.45126,0.35483 4.11739,5.53164 2.38249,7.40262 2.3282,7.28264 3.0841,6.81547 0.40807,-0.2522 0.24333,-1.8756 -0.41543,-4.0939 z"
       id="path1077"
       inkscape:connector-curvature="0"
       transform="scale(0.26458333)" />
    <path
       sodipodi:type="inkscape:offset"
       inkscape:radius="2.1447103"
       inkscape:original="M 539.25 371.33594 L 533.18164 371.35742 C 527.83923 371.37737 526.65728 371.63089 523.28906 373.47656 C 514.94124 378.05088 511.4123 384.94158 511.4043 396.69141 C 511.39957 403.23296 511.51006 403.70235 514.44727 409.70898 C 516.17029 413.23256 518.18729 416.31888 519.08984 416.8125 C 519.96764 417.29257 524.06055 418.72017 528.18555 419.98438 C 532.31055 421.24859 536.13829 422.30965 536.69141 422.34375 C 537.24454 422.37787 539.56796 421.52177 541.85352 420.44141 L 546.00781 418.47852 L 546.02539 409.5957 C 546.04298 400.57043 544.95126 393.86574 540.78516 377.40625 L 539.25 371.33594 z "
       style="fill:#280b0b;stroke-width:0.71428573"
       id="path1079"
       d="m 539.24219,369.19141 -6.06836,0.0215 c -5.40908,0.0202 -7.43495,0.47531 -10.91602,2.38281 -8.92044,4.8881 -12.98975,12.91507 -12.99804,25.09375 -0.005,6.56578 0.31446,7.93377 3.26171,13.96094 0.89804,1.83648 1.86494,3.55074 2.75977,4.91992 0.44741,0.68459 0.87326,1.28067 1.29297,1.78711 0.4197,0.50645 0.73025,0.92243 1.48633,1.33594 0.88487,0.48394 1.97197,0.84953 3.65234,1.43555 1.68037,0.58602 3.75501,1.2661 5.84375,1.90625 2.07947,0.6373 4.08189,1.2218 5.64844,1.65625 0.78327,0.21722 1.45543,0.39741 1.98828,0.52929 0.53285,0.13189 0.69678,0.22246 1.36523,0.26368 0.78048,0.0481 1.01052,-0.0888 1.42774,-0.20508 0.41722,-0.11629 0.8735,-0.27079 1.3789,-0.45703 1.01082,-0.37249 2.20555,-0.87477 3.4043,-1.44141 l 4.1543,-1.96289 a 2.1449248,2.1449248 0 0 0 1.22851,-1.93555 l 0.0176,-8.88281 c 0.0179,-9.20029 -1.12646,-16.21135 -5.30469,-32.71875 l -1.53515,-6.07031 a 2.1449248,2.1449248 0 0 0 -2.08789,-1.61914 z"
       transform="scale(0.26458333)" />
    <path
       sodipodi:type="inkscape:offset"
       inkscape:radius="1.9585513"
       inkscape:original="M 221.93945 418.83594 C 216.31025 418.83594 214.61523 420.07309 214.61523 424.18555 C 214.61523 425.90556 214.95715 428.21829 215.375 429.32422 C 216.85159 433.23234 221.42576 436.915 226.40039 438.19922 C 231.85086 439.60628 236.40951 437.37694 238.03125 432.51172 C 239.42555 428.32883 238.81667 426.75372 234.57617 423.58789 C 229.60229 419.87455 226.83869 418.83594 221.93945 418.83594 z "
       style="fill:#280b0b;stroke-width:0.71428573"
       id="path1081"
       d="m 221.93945,416.87695 c -2.95808,0 -5.17332,0.22852 -6.92773,1.50977 -1.75441,1.28125 -2.35547,3.47351 -2.35547,5.79883 0,1.97957 0.27464,4.21009 0.88672,5.83007 1.80547,4.77859 6.79647,8.64198 12.36719,10.08008 3.09559,0.79914 6.10166,0.59358 8.60156,-0.6289 2.4999,-1.22248 4.42037,-3.46618 5.37695,-6.33594 0.74752,-2.24255 1.09884,-4.24948 0.35547,-6.16992 -0.74337,-1.92044 -2.28708,-3.29418 -4.49609,-4.94336 -5.11228,-3.81666 -8.63256,-5.14063 -13.8086,-5.14063 z"
       transform="scale(0.26458333)" />
    <path
       sodipodi:type="inkscape:offset"
       inkscape:radius="0.91875541"
       inkscape:original="M 272.31836 295.3125 L 269.35938 296.81445 C 262.83731 300.12441 239.39901 317.55989 236.86719 320.98438 C 235.95317 322.22064 233.72171 324.17146 231.91016 325.32031 C 226.36169 328.83904 214.15272 342.57727 211.05469 348.78711 C 209.57151 351.76006 207.30456 356.08865 206.01758 358.40625 C 203.74715 362.49488 203.71808 362.65082 205.03906 363.66406 C 207.86793 365.83391 218.03255 370.30689 223.18555 371.64844 C 229.56624 373.30961 238.46266 373.50491 243.73438 372.10156 C 259.68195 367.85623 277.41548 352.75582 284.56836 337.33008 C 288.30069 329.28102 288.27318 316.74906 284.50586 308.9668 C 283.66044 307.22039 280.57147 303.43449 277.64258 300.55273 L 272.31836 295.3125 z "
       style="fill:#280b0b;stroke-width:0.71428573"
       id="path1083"
       d="m 272.29688,294.39453 a 0.91884729,0.91884729 0 0 0 -0.39454,0.0996 l -2.95898,1.50195 c -3.44552,1.74861 -10.86625,6.9094 -17.875,12.12305 -3.50438,2.60682 -6.88351,5.2176 -9.55469,7.39844 -2.67118,2.18084 -4.57052,3.81858 -5.38476,4.91992 -0.76374,1.03299 -3.00847,3.02775 -4.71094,4.10742 -2.97354,1.88576 -7.37838,6.20475 -11.54102,10.88867 -4.16264,4.68392 -8.00111,9.64922 -9.64453,12.94336 -1.47526,2.95709 -3.74401,7.29054 -5.01758,9.58399 -1.13681,2.04719 -1.75114,3.05731 -1.9375,4.05859 -0.0932,0.50064 0.006,1.08013 0.27344,1.48047 0.26732,0.40034 0.58912,0.63135 0.92969,0.89258 1.59418,1.2228 4.82103,2.84533 8.39062,4.41601 3.5696,1.57069 7.40714,3.03213 10.08203,3.72852 6.56521,1.70921 15.47708,1.92802 21.01758,0.45312 16.30732,-4.34109 34.13123,-19.52953 41.43164,-35.27343 3.88616,-8.3808 3.86479,-21.02154 -0.0703,-29.15039 -0.50047,-1.03385 -1.49759,-2.40891 -2.76367,-3.96094 -1.26608,-1.55203 -2.78853,-3.23833 -4.28125,-4.70703 l -5.32422,-5.24024 a 0.91884729,0.91884729 0 0 0 -0.66601,-0.26367 z"
       transform="scale(0.26458333)" />
    <path
       sodipodi:type="inkscape:offset"
       inkscape:radius="2.7486517"
       inkscape:original="M 417.56055 531.12305 C 416.50417 531.03966 415.3628 531.06885 414.09961 531.19922 C 407.40935 531.88971 404.7366 534.84401 406.1543 539.97852 C 407.15389 543.59874 408.75552 545.91008 411.36914 547.50391 C 414.69021 549.52917 424.42026 549.39902 427.09766 547.29297 C 428.89484 545.87931 429.03227 545.42986 428.74023 541.9082 C 428.46795 538.62487 428.02091 537.65372 425.66992 535.24609 C 423.12432 532.63917 420.72968 531.37321 417.56055 531.12305 z "
       style="fill:#280b0b;stroke-width:0.71428573"
       id="path1085"
       d="m 417.77734,528.38281 c -1.26138,-0.0996 -2.56928,-0.0614 -3.95898,0.082 -3.70616,0.38251 -6.74349,1.37439 -8.76953,3.61328 -2.02604,2.2389 -2.40772,5.50803 -1.54492,8.63282 1.12018,4.05699 3.23763,7.19167 6.43359,9.14062 2.70162,1.64751 6.094,1.89038 9.57422,1.84375 3.48022,-0.0466 6.69637,-0.20584 9.28516,-2.24219 0.98308,-0.77329 2.08354,-1.77955 2.53515,-3.25976 0.45161,-1.48022 0.29624,-2.7059 0.14649,-4.51172 -0.28907,-3.48578 -1.35437,-5.80811 -3.8418,-8.35547 -2.83682,-2.90515 -6.07332,-4.6445 -9.85938,-4.94336 z"
       transform="scale(0.26458333)" />
    <path
       sodipodi:type="inkscape:offset"
       inkscape:radius="1.7677639"
       inkscape:original="M 418.00195 521.24805 C 413.07063 520.74597 408.10808 521.31279 404.62891 523.10156 C 399.82568 525.57107 392.69027 533.01301 392.09766 536.17188 C 390.60887 544.10783 400.15651 555.35843 409.59961 556.79688 C 414.93886 557.61019 433.30754 557.06204 435.43164 556.02539 C 441.34647 553.13872 444.38194 541.73636 441.04102 534.95312 C 440.25434 533.35587 438.30988 531.08482 436.7207 529.90625 C 435.13152 528.72768 432.64198 526.88191 431.1875 525.80469 C 427.83278 523.32013 422.93327 521.75012 418.00195 521.24805 z M 418.48242 529.61328 C 420.32062 529.8832 422.07313 530.4363 423.54492 531.29883 C 427.51893 533.62776 430.38692 537.78562 430.84961 541.89062 C 431.14133 544.47874 430.88961 545.33577 429.28711 547.24023 C 428.23766 548.48744 426.19601 549.83612 424.74805 550.23828 C 421.85677 551.04128 418.72242 551.06142 414.07422 550.30469 C 407.26305 549.19582 401.91773 539.74243 404.87109 534.03125 C 406.68033 530.53256 412.96784 528.80353 418.48242 529.61328 z "
       style="fill:#aa0000;stroke-width:0.71428573"
       id="path1087"
       d="m 418.18164,519.49023 c -5.1836,-0.52776 -10.40929,0.007 -14.36133,2.03907 -2.72723,1.40216 -5.75324,3.9557 -8.3125,6.625 -1.27963,1.33465 -2.42814,2.69325 -3.32617,3.97461 -0.89803,1.28136 -1.57877,2.41884 -1.82226,3.71679 -0.89858,4.78985 1.4311,9.96479 5.04101,14.21875 3.60991,4.25397 8.62143,7.67128 13.93359,8.48047 3.02643,0.46101 8.86255,0.49268 14.43946,0.32617 2.78845,-0.0833 5.47513,-0.22313 7.63086,-0.41211 1.07786,-0.0945 2.0209,-0.1996 2.80078,-0.32226 0.77987,-0.12266 1.31277,-0.18709 2.00195,-0.52344 3.67477,-1.79343 6.03865,-5.81258 7.20899,-10.20898 1.17033,-4.39641 1.14863,-9.29822 -0.78907,-13.23242 -1.00337,-2.03721 -2.94576,-4.27072 -4.85351,-5.68555 -1.58938,-1.17872 -4.0779,-3.02373 -5.53321,-4.10156 -3.73002,-2.76252 -8.8752,-4.3668 -14.05859,-4.89454 z m -3.76758,11.7461 c 1.26809,-0.0937 2.5711,-0.0573 3.8125,0.125 1.65455,0.24295 3.19576,0.74319 4.42383,1.46289 3.50225,2.05246 6.05685,5.83458 6.44336,9.26367 0.13709,1.21624 0.11228,1.81406 -0.0117,2.23828 -0.124,0.42423 -0.40194,0.88823 -1.14844,1.77539 -0.72645,0.86335 -2.77931,2.18949 -3.6582,2.4336 -2.58122,0.71688 -5.39908,0.76107 -9.91797,0.0254 -2.6916,-0.4382 -5.40055,-2.6949 -7.00781,-5.53711 -1.60726,-2.84221 -2.00221,-6.06411 -0.9082,-8.17969 0.57541,-1.11272 2.16152,-2.26591 4.36718,-2.94727 1.10284,-0.34067 2.33738,-0.56642 3.60547,-0.66015 z"
       transform="scale(0.26458333)" />
    <path
       sodipodi:type="inkscape:offset"
       inkscape:radius="1.4762461"
       inkscape:original="M 224.71289 409.70117 C 221.7326 409.87274 218.59474 410.65294 215.13477 412.04883 C 207.75041 415.02797 204.61523 419.74743 204.61523 427.88477 C 204.61523 436.49834 213.94449 446.05536 225.3457 449.11914 C 230.45873 450.49316 232.84664 450.49886 237.38086 449.15234 C 242.23146 447.71187 246.16856 443.83038 247.81836 438.86328 C 249.54454 433.66631 250.33804 426.42943 249.50977 423.42969 C 248.07518 418.23406 243.5047 414.71945 233.3418 411 C 230.51637 409.96594 227.69318 409.52961 224.71289 409.70117 z M 222.06055 417.41602 C 228.42862 417.42552 230.91063 418.4321 237.14062 423.53711 C 239.98818 425.87048 240.3265 426.46559 240.3125 429.09961 C 240.28853 433.60559 238.00483 437.97059 235.01758 439.21875 C 230.52165 441.09727 223.58126 440.02602 218.9668 436.74023 C 213.31142 432.71324 210.90191 423.14945 214.56055 419.25195 C 216.14695 417.56198 216.77606 417.40802 222.06055 417.41602 z "
       style="fill:#aa0000;stroke-width:0.71428573"
       id="path1089"
       d="m 224.62891,408.22656 c -3.1773,0.18291 -6.47671,1.01278 -10.04688,2.45313 -3.87578,1.56364 -6.79952,3.66658 -8.70508,6.53515 -1.90556,2.86857 -2.73828,6.41166 -2.73828,10.66993 0,4.83975 2.56002,9.68458 6.50977,13.73046 3.94974,4.04589 9.33978,7.32415 15.31445,8.92969 5.22329,1.40365 8.16699,1.41055 12.83789,0.0234 5.33539,-1.58444 9.61923,-5.82471 11.41797,-11.24024 0.90638,-2.7288 1.54967,-5.91323 1.87109,-8.8457 0.32143,-2.93246 0.37114,-5.53527 -0.15625,-7.44531 -0.80161,-2.9032 -2.5481,-5.40501 -5.33398,-7.54688 -2.78589,-2.14186 -6.59469,-3.99019 -11.75,-5.87695 -2.99762,-1.09708 -6.04364,-1.5696 -9.2207,-1.38672 z m -2.57032,10.66602 c 6.21308,0.009 7.99159,0.74363 14.14649,5.78711 1.39836,1.14585 2.05491,1.80595 2.3125,2.25781 0.25758,0.45186 0.32502,0.90108 0.31836,2.1543 -0.0213,4.01228 -2.2822,7.88629 -4.38672,8.76562 -3.81306,1.5932 -10.45872,0.64774 -14.62695,-2.32031 -2.45859,-1.75067 -4.34475,-4.87755 -5.11915,-7.95117 -0.77439,-3.07363 -0.37266,-5.93268 0.9336,-7.32422 0.74186,-0.7903 0.91135,-0.95282 1.63867,-1.13086 0.72732,-0.17804 2.15538,-0.24226 4.7832,-0.23828 z"
       transform="scale(0.26458333)" />
    <path
       sodipodi:type="inkscape:offset"
       inkscape:radius="0.60468608"
       inkscape:original="M 282.96484 292.08203 C 281.76799 291.80502 280.22039 292.38454 277.11523 293.54102 L 274.25781 294.60352 L 279.34961 299.79492 C 285.19604 305.75319 286.97905 308.83902 288.22266 315.16016 C 289.4417 321.35644 288.71631 332.47723 286.80273 336.94141 C 284.70556 341.83392 279.73909 349.25657 275.37695 354.01562 C 268.51079 361.50655 256.39006 369.60716 247.14258 372.88477 C 236.16473 376.77568 220.47123 374.58079 207.97266 367.40625 C 203.16267 364.64518 203.10808 364.63345 202.5332 366.1875 C 201.81825 368.12019 203.89935 369.83449 211.75781 373.79297 C 218.22382 377.05002 223.05899 378.68809 229.85742 379.92188 L 229.85938 379.92188 C 236.55322 381.13641 241.60738 381.14699 248.26758 379.95898 C 255.18844 378.72447 258.97897 377.02773 267.44336 371.37695 C 282.89474 361.06169 292.36331 349.31509 295.66992 336.36328 C 297.07163 330.87334 297.06916 319.63194 295.66406 314.16406 C 294.19063 308.43027 290.47569 300.80211 286.70312 295.75977 C 285.00635 293.49189 284.1617 292.35904 282.96484 292.08203 z "
       style="fill:#aa0000;stroke-width:0.71428573"
       id="path1091"
       d="m 281.94141,291.41602 c -1.2246,0.0972 -2.70849,0.69132 -5.03711,1.55859 l -2.85742,1.0625 a 0.60474655,0.60474655 0 0 0 -0.22071,0.99023 l 5.0918,5.19141 c 5.81637,5.92764 7.48126,8.80829 8.71094,15.05859 0.5919,3.00862 0.72066,7.30957 0.45507,11.38282 -0.26558,4.07324 -0.94183,7.95256 -1.83789,10.04296 -2.04822,4.77833 -7.00945,12.20759 -11.31445,16.9043 -6.77337,7.3897 -18.88163,15.47865 -27.99023,18.70703 -10.73933,3.80637 -26.31276,1.65866 -38.66797,-5.43359 -2.40553,-1.38084 -3.56027,-2.08775 -4.47656,-2.29297 -0.45815,-0.10261 -0.99659,0.0174 -1.29102,0.33594 -0.29443,0.31851 -0.39418,0.66302 -0.53906,1.05469 -0.22195,0.59998 -0.22835,1.27245 0.0469,1.89843 0.27523,0.62599 0.78335,1.20379 1.53125,1.82032 1.49581,1.23305 4.00001,2.65134 7.94141,4.63671 6.50143,3.2749 11.42228,4.94201 18.26367,6.1836 a 0.60474655,0.60474655 0 0 0 0.002,0 0.60474655,0.60474655 0 0 0 0.0566,0.008 c 6.71675,1.21325 11.87133,1.22318 18.56446,0.0293 6.97758,-1.24463 10.91901,-3.00975 19.40625,-8.67578 15.53281,-10.36963 25.12319,-22.23026 28.47656,-35.36524 1.4507,-5.68181 1.44892,-16.83879 -0.006,-22.5 -1.50223,-5.84587 -5.22876,-13.49113 -9.0625,-18.61523 -0.84829,-1.13381 -1.48833,-1.99488 -2.10352,-2.64063 -0.61518,-0.64575 -1.23801,-1.09333 -1.98242,-1.26562 -0.37223,-0.0861 -0.75196,-0.10857 -1.16015,-0.0762 z"
       transform="scale(0.26458333)" />
    <path
       sodipodi:type="inkscape:offset"
       inkscape:radius="0.98206568"
       inkscape:original="M 536.63867 364.79102 L 530.44727 365.67383 C 520.12023 367.14809 515.13834 369.58718 509.38672 375.98438 C 504.59374 381.31532 502.84594 387.22227 502.83594 398.12109 C 502.82911 405.54757 503.01273 406.7278 504.74414 410.42188 C 507.99831 417.36493 516.30493 423.91731 524.43945 425.95898 C 525.91104 426.32834 529.74637 426.54323 532.96289 426.43555 C 537.99231 426.26717 539.28436 425.94593 542.19141 424.14453 C 546.88323 421.23717 547.16083 419.67285 542.57227 421.99805 C 540.57899 423.00812 538.0524 423.83784 536.95898 423.83984 C 535.86557 423.84218 530.8662 422.52357 525.84766 420.91016 L 516.72266 417.97656 L 513.16797 410.73242 C 509.69081 403.64455 509.61523 403.34653 509.61523 396.93945 C 509.61523 385.67929 512.82102 378.35763 519.86328 373.53711 C 524.08968 370.64408 531.48853 368.51549 535.46484 369.04883 C 538.38245 369.44016 538.61616 369.13088 537.41211 366.48828 L 536.63867 364.79102 z "
       style="fill:#aa0000;stroke-width:0.71428573"
       id="path1093"
       d="m 536.58203,363.81055 a 0.98216388,0.98216388 0 0 0 -0.082,0.008 l -6.19141,0.88281 c -10.43332,1.48943 -15.79519,4.11238 -21.65234,10.62695 -4.95477,5.51089 -6.79264,11.78949 -6.80273,22.79297 -0.003,3.72139 0.0361,5.90745 0.31445,7.70118 0.27833,1.79372 0.8104,3.14427 1.6875,5.01562 3.42595,7.30957 11.8831,13.9502 20.3457,16.07422 1.77514,0.44555 5.50865,0.61587 8.79492,0.50586 5.06555,-0.16959 6.73953,-0.59696 9.71289,-2.43945 1.20279,-0.74533 2.13184,-1.40714 2.80079,-1.97266 0.33447,-0.28276 0.60339,-0.53912 0.82031,-0.79297 0.21691,-0.25385 0.41507,-0.46403 0.49804,-0.93164 0.0415,-0.23381 0.0153,-0.59369 -0.1875,-0.88086 -0.2028,-0.28717 -0.4983,-0.41869 -0.71289,-0.46875 -0.42917,-0.10011 -0.71045,-0.0265 -1.05468,0.0586 -0.68847,0.17012 -1.56096,0.5313 -2.74414,1.13086 -0.94412,0.47842 -2.0395,0.92439 -3.00782,1.24219 -0.96831,0.3178 -1.86437,0.49359 -2.16406,0.49414 -0.0744,1.6e-4 -0.61044,-0.0656 -1.28711,-0.20898 -0.67667,-0.14338 -1.54867,-0.35448 -2.54492,-0.61719 -1.9925,-0.52541 -4.48354,-1.25516 -6.97656,-2.05664 l -8.72852,-2.80469 -3.37109,-6.86914 v -0.002 c -3.47361,-7.08061 -3.45117,-6.96078 -3.45117,-13.35938 0,-11.07376 3.04589,-17.95462 9.82031,-22.59179 1.98542,-1.35905 4.82102,-2.59376 7.61133,-3.39649 2.7903,-0.80273 5.56669,-1.1628 7.30468,-0.92969 0.74801,0.10033 1.33953,0.16415 1.8711,0.14454 0.53156,-0.0196 1.14303,-0.11664 1.56054,-0.66602 0.41752,-0.54938 0.3432,-1.17508 0.21094,-1.6875 -0.13226,-0.51242 -0.36094,-1.05233 -0.66992,-1.73047 a 0.98216388,0.98216388 0 0 0 0,-0.002 l -0.77344,-1.69727 a 0.98216388,0.98216388 0 0 0 -0.95117,-0.57226 z"
       transform="scale(0.26458333)" />
    <path
       sodipodi:type="inkscape:offset"
       inkscape:radius="1.9339755"
       inkscape:original="M 539.75195 460.15625 L 537.36133 461.38672 C 536.04683 462.06401 531.11468 464.93191 526.40039 467.75977 C 521.68611 470.58764 513.00809 475.40581 507.11523 478.46484 C 501.22237 481.52387 490.45341 487.40955 483.18555 491.54492 C 462.47972 503.32641 456.37924 505.75785 437.92578 509.58594 C 422.95666 512.69121 417.41249 513.07448 376.40039 513.83594 C 355.31193 514.22748 333.28242 515.00611 326.66602 515.59375 C 320.13341 516.17394 306.79439 517.13146 297.02344 517.72266 C 279.03532 518.81103 271.03547 519.8624 260.68555 522.49805 C 254.1897 524.15224 224.6364 533.02327 223.70703 533.59766 C 223.37112 533.80526 224.02775 534.66608 225.16406 535.51172 C 226.30037 536.35736 230.5784 540.00116 234.67188 543.60938 C 246.01631 553.609 262.95758 566.38461 268.54297 569.15234 C 271.29297 570.51506 279.80999 573.85589 287.4707 576.57422 C 295.13142 579.29255 303.32841 582.32729 305.68555 583.31836 C 311.14344 585.61316 338.99376 592.8461 346.44727 593.9043 C 349.5638 594.34677 363.36523 594.93903 377.11523 595.22266 C 390.86523 595.50629 402.95311 595.79368 403.97852 595.85938 C 405.00394 595.92504 408.53993 594.73326 411.83594 593.21289 C 415.13195 591.69254 423.61412 588.27292 430.68555 585.61328 C 456.95218 575.73412 465.59416 571.09905 480.74414 558.76758 C 487.94391 552.90727 501.04885 541.00655 501.03125 540.34375 C 501.02487 540.10348 497.26725 537.97824 492.68164 535.62109 C 484.96047 531.65218 475.7353 524.6489 476.79883 523.56445 C 477.01767 523.34131 480.39267 525.25484 484.29883 527.81641 C 492.17632 532.98228 500.56612 537.40625 502.48438 537.40625 C 503.1716 537.40625 504.92117 536.09316 506.37109 534.48828 L 509.00586 531.57031 L 504.73438 528.5625 C 502.38448 526.90779 497.86094 524.1526 494.68164 522.44141 C 489.04433 519.40727 487.67526 518.12109 490.08984 518.12109 C 491.51907 518.12109 503.91778 524.66023 507.12109 527.10352 C 508.37006 528.05615 509.72248 528.83594 510.12695 528.83594 C 510.5314 528.83594 512.56123 526.24924 514.63672 523.08789 L 518.41016 517.33984 L 515.62305 514.48438 C 514.08997 512.91437 511.14634 510.83205 509.08203 509.85547 C 505.20602 508.02183 504.24063 506.69141 506.78516 506.69141 C 508.91609 506.69141 513.5454 509.23304 516.84375 512.21289 C 519.17276 514.31701 519.84722 514.61832 520.36914 513.78906 C 522.73728 510.02643 537.79404 469.06774 539.25586 462.41211 L 539.75195 460.15625 z M 416.11133 519.27344 C 420.8143 519.49078 425.69447 520.67474 429.84961 522.78516 C 432.53268 524.14791 435.11311 525.26367 435.58398 525.26367 C 436.05485 525.26367 438.70626 524.17825 441.47461 522.85156 C 448.37136 519.54638 449.61523 519.19547 449.61523 520.55273 C 449.61523 521.22572 447.25156 522.79515 443.51953 524.60156 L 437.42383 527.55273 L 440.25977 530.62891 C 441.9006 532.40899 443.44883 535.01287 443.93359 536.80664 C 445.54063 542.75313 443.50452 550.96995 439.30078 555.50586 C 438.3617 556.51915 435.84348 557.84051 433.61523 558.48828 C 429.02319 559.82322 428.97825 559.96224 431.05273 566.58008 C 431.83389 569.07211 432.29435 571.40358 432.07422 571.75977 C 431.19112 573.18866 430.50559 572.17057 428.89258 567.02734 C 427.9646 564.06834 426.85037 561.35071 426.41602 560.99023 C 425.98166 560.62975 421.3453 559.83631 416.11328 559.22656 C 410.57322 558.58091 405.31301 557.54812 403.51758 556.75391 C 399.45089 554.95503 394.51383 550.33087 392.39453 546.33594 L 390.6875 543.12109 L 384.4375 543.12109 C 380.7462 543.12109 378.18555 542.82803 378.18555 542.40625 C 378.18555 541.99039 380.54184 541.69141 383.82422 541.69141 C 389.95482 541.69141 390.32812 541.44124 390.32812 537.32031 C 390.32812 532.64399 396.67691 525.01245 403.43555 521.56445 C 406.88357 519.8054 411.40836 519.0561 416.11133 519.27344 z "
       style="fill:#aa0000;stroke-width:0.71428573"
       id="path1095"
       d="m 539.72656,458.22266 c -1.62974,0.36035 -4.22895,1.93671 -3.25195,1.44531 -1.53955,0.79324 -6.33844,3.59635 -11.06836,6.43359 -4.64747,2.7878 -13.33671,7.61234 -19.18164,10.64649 -5.93805,3.08249 -16.70007,8.96384 -23.99609,13.11523 -20.66333,11.7573 -26.31833,14.0159 -44.69532,17.82813 -14.90711,3.0924 -20.16467,3.44964 -61.16797,4.21093 -21.11104,0.39196 -43.02784,1.15784 -49.87109,1.76563 -6.4883,0.57625 -19.83668,1.53499 -29.58789,2.125 -18.02856,1.09082 -26.23558,2.16597 -36.69727,4.83008 -3.36941,0.85803 -12.3297,3.47721 -20.65625,5.97656 -4.16327,1.24967 -8.1518,2.46636 -11.16601,3.4082 -1.50711,0.47092 -2.76915,0.87284 -3.69727,1.17969 -0.46406,0.15342 -0.84316,0.28152 -1.14062,0.38867 -0.29746,0.10715 -0.29992,0.0312 -0.85938,0.37695 -0.41606,0.25714 -0.80385,0.77498 -0.93164,1.25586 -0.12779,0.48088 -0.0691,0.86421 0.004,1.14454 0.14608,0.56065 0.36402,0.84599 0.58398,1.13476 0.43993,0.57755 0.9869,1.07028 1.66407,1.57422 0.86678,0.64506 5.30623,4.40472 9.38281,7.99805 5.72397,5.04543 12.82208,10.75821 19.21094,15.57617 6.38885,4.81796 11.92365,8.68394 15.08007,10.24805 3.04669,1.50973 11.43503,4.77746 19.14063,7.51171 7.64295,2.71203 15.9306,5.78819 18.11133,6.70508 3.14317,1.32157 11.29008,3.61058 19.89648,5.84571 8.60641,2.23512 17.34176,4.30291 21.34375,4.87109 1.83273,0.2602 5.95868,0.49674 11.53516,0.73633 5.57647,0.23959 12.47582,0.45945 19.36523,0.60156 6.87322,0.14178 13.33115,0.28494 18.19727,0.40039 4.86612,0.11545 8.37368,0.21907 8.58203,0.23242 0.69942,0.0448 1.15957,-0.0746 1.76953,-0.2207 0.60996,-0.14607 1.2972,-0.35226 2.04883,-0.60547 1.50326,-0.50642 3.26032,-1.20428 4.97265,-1.99414 3.15163,-1.45375 11.68357,-4.89818 18.72071,-7.54492 26.32236,-9.90012 35.35243,-14.74725 50.59765,-27.15625 3.65143,-2.97211 8.73443,-7.41865 12.92969,-11.22852 2.09763,-1.90493 3.96852,-3.64805 5.33399,-4.97461 0.68273,-0.66327 1.23666,-1.21733 1.65039,-1.66406 0.20686,-0.22337 0.37563,-0.41503 0.53515,-0.62109 0.0798,-0.10303 0.15665,-0.20524 0.25196,-0.36914 0.0953,-0.16391 0.32101,-0.28149 0.29882,-1.11719 -0.0154,-0.57988 -0.12535,-0.84466 -0.24218,-1.02149 0.5749,-0.0544 0.99633,-0.19507 1.35156,-0.38086 0.41793,-0.21858 0.81585,-0.48514 1.22851,-0.79492 0.82533,-0.61955 1.69544,-1.41567 2.50391,-2.31054 l 2.63477,-2.91797 a 1.9341689,1.9341689 0 0 0 0.26757,-2.21094 c 0.44589,-0.11338 0.67596,-0.29038 0.83399,-0.41406 0.22018,-0.17232 0.38654,-0.33575 0.56445,-0.52149 0.35583,-0.37148 0.73728,-0.8275 1.16992,-1.3789 0.86529,-1.10282 1.91289,-2.57319 2.97657,-4.19336 l 3.77343,-5.74805 a 1.9341689,1.9341689 0 0 0 -0.23242,-2.41211 l -0.0176,-0.0176 c 0.26376,0.006 0.45952,0.148 0.73828,0.0586 0.76335,-0.24482 1.23161,-0.80002 1.49024,-1.21094 0.47124,-0.74873 0.91878,-1.75959 1.57226,-3.28125 0.65349,-1.52166 1.44593,-3.46931 2.33399,-5.7168 1.77612,-4.49497 3.92904,-10.18445 6.05469,-15.96679 2.12564,-5.78235 4.22384,-11.65534 5.88476,-16.50977 1.66064,-4.8536 2.86725,-8.57795 3.29297,-10.51563 v -0.002 l 0.49609,-2.2539 a 1.9341689,1.9341689 0 0 0 -1.91406,-2.34961 z m -123.70508,62.98242 c 4.44106,0.20523 9.08272,1.33888 12.95313,3.30469 1.37472,0.69822 2.71659,1.33042 3.80469,1.80078 0.54404,0.23517 1.0221,0.43013 1.43359,0.57812 0.39456,0.1419 0.53072,0.2844 1.31445,0.29688 a 1.9341689,1.9341689 0 0 0 0.47461,1.67773 l 2.83594,3.07617 c 1.41472,1.53478 2.89135,4.12345 3.22852,5.3711 1.38264,5.11615 -0.55974,12.97065 -4.1836,16.88086 -0.33718,0.36382 -2.8803,1.87945 -4.80664,2.43945 -1.15584,0.33601 -2.07685,0.59179 -2.94531,1.01953 -0.86846,0.42774 -1.79838,1.23801 -2.14063,2.31836 -4.2e-4,0.001 4.3e-4,0.003 0,0.004 -0.11457,-0.15324 -0.0783,-0.25362 -0.33984,-0.47071 -0.57069,-0.47362 -0.73481,-0.42384 -0.99609,-0.50781 -0.26129,-0.084 -0.53707,-0.15384 -0.85742,-0.22852 -0.64072,-0.14934 -1.44893,-0.30683 -2.40626,-0.4707 -1.91465,-0.32773 -4.40616,-0.6818 -7.05273,-0.99023 -2.72216,-0.31725 -5.38299,-0.72991 -7.55469,-1.15625 -2.1717,-0.42635 -3.94009,-0.92416 -4.48242,-1.16406 -3.47493,-1.53713 -8.37115,-6.11242 -10.19726,-9.55469 l -1.70704,-3.21485 a 1.9341689,1.9341689 0 0 0 -0.83398,-0.8164 c 0.23128,-0.40708 0.41333,-0.83753 0.50195,-1.2461 0.19471,-0.89766 0.19727,-1.7726 0.19727,-2.83203 0,-1.46294 1.30236,-4.37301 3.57226,-7.10156 2.26991,-2.72855 5.3973,-5.35872 8.48047,-6.93164 3.03596,-1.54883 7.26597,-2.28727 11.70703,-2.08203 z"
       transform="scale(0.26458333)" />
    <path
       inkscape:connector-curvature="0"
       id="path247-6"
       style="fill:none;stroke:#000000;stroke-width:0.26458332px;stroke-linecap:butt;stroke-linejoin:miter;stroke-opacity:1"
       d="m 137.2429,136.63828 c 0.018,-0.43121 -0.56459,-0.50515 -0.65674,-0.90619 -0.35701,-0.2773 -0.60648,-0.64312 -1.02107,-0.83316 -0.38726,-0.17116 -0.83559,-0.45981 -1.28945,-0.5268 -0.11122,-0.16314 -0.48123,-0.18687 -0.50761,-0.13921 m 1.47035,6.14713 c -0.78813,0.0879 -1.22279,-0.7678 -1.82726,-1.12768 -0.54766,-0.43784 -1.20383,-0.69448 -1.85061,-0.93088 -0.65605,-0.4451 -1.37683,-0.76549 -2.06843,-1.14876 m 3.74178,5.47912 c -1.42299,-0.31365 -2.61153,-1.18767 -3.92977,-1.76066 -0.84788,-0.41853 -1.56117,-1.04843 -2.28652,-1.63755 -0.24781,-0.24463 -0.47227,-0.51259 -0.73271,-0.74443 m 9.55033,-26.85929 c -0.43545,0.54489 -0.86511,1.0942 -1.28229,1.65216 -0.50184,0.58608 -1.02873,1.14941 -1.56308,1.70292 -0.0564,0.0686 -0.13466,0.1376 -0.13107,0.2359 m -0.14186,-10.63078 c -1.65365,0 -3.30729,0 -4.96094,0 -0.0446,0.0515 -0.0473,-0.0608 0,0 m 10.48884,-7.843009 c -0.20401,-0.0166 -0.24192,-0.29507 -0.41134,-0.31584 -0.0974,-0.14952 -0.18297,-0.32113 -0.36235,-0.38707 -0.20734,-0.10258 -0.27752,-0.37562 -0.50806,-0.44008 -0.15166,-0.13025 -0.31714,-0.24442 -0.44811,-0.39675 -0.1759,-0.10055 -0.28776,-0.26162 -0.45724,-0.34194 l -0.0408,-0.006 -0.0399,-0.002 m 6.66177,3.1183 c -3.02086,-0.68611 -6.52778,1.11601 -7.25844,4.229969 -0.44443,1.39913 -0.4149,2.89393 -0.28854,4.34166 0.45741,1.3001 1.04123,2.60333 1.80757,3.76042 1.40413,0.68974 2.95127,1.05093 4.44908,1.47984 1.27326,0.57449 2.25715,-0.65707 3.2335,-0.90293 0.14303,0.17368 0.14819,0.41457 0.18306,0.62417 m -2.64594,-15.234029 c -2.67286,0.0195 -5.51187,0.78837 -7.39153,2.78067 -1.91334,2.033729 -2.06862,5.010029 -1.97223,7.646579 0.4806,4.25745 5.1921,7.03 9.22617,6.312 1.05521,-0.16656 2.01105,-0.79125 2.78338,-1.50514 M 76.68192,79.00223 c 0.75501,-0.08077 1.49066,-0.288601 2.24784,-0.353883 0.59086,-0.0753 1.18764,-0.120379 1.76816,-0.260353 m -7.46503,18.426367 c 0.008,0.40646 0.43715,0.62624 0.62271,0.95352 0.27533,0.33479 0.67556,0.53089 0.92902,0.88505 0.23383,0.3197 0.59305,0.53714 0.76336,0.90173 m -12.37871,1.464679 c -6.6e-4,0.52371 0.001,1.04743 -9.8e-4,1.57114 0.12627,0.43922 -0.0287,0.9032 0.0941,1.34478 l 10e-4,0.0134 m -9.638514,-7.843019 c 3.705244,2.54061 8.700194,3.986139 12.936254,1.8413 4.11837,-1.90583 7.74145,-5.30447 9.41236,-9.568626 0.39048,-2.52194 0.60817,-5.520672 -1.06278,-7.647587 -0.82832,-1.086678 -1.87629,-1.975954 -2.9068,-2.862571 M 52.916669,97.239581 c 4.126594,3.289549 10.047971,4.784159 15.084001,2.941979 5.35641,-2.716419 10.82131,-7.452819 10.82546,-13.954403 0.0764,-3.515116 -1.49684,-6.961163 -3.92376,-9.457434 M 54.00335,111.13021 c -0.324616,0.0699 -0.665201,0.0936 -0.971679,-0.0448 -0.312514,-0.0253 -0.609416,-0.12778 -0.905014,-0.22486 -0.146269,-0.0907 -0.314769,-0.12181 -0.485675,-0.10836 m 5.764155,7.51232 c -0.313095,0.59641 -0.547049,1.23239 -0.753062,1.87232 -0.02719,0.10183 -0.04951,0.20629 -0.09738,0.30105 m 9.213165,-4.06325 c 0.69359,0.0974 1.25973,0.58671 1.95814,0.66698 0.55517,0.10196 0.98645,0.56967 1.58539,0.46659 m -9.402163,-9.54354 c -0.08764,-1.06649 -0.0562,-2.1442 0.0014,-3.2094 l 0.0207,-0.0967 0.02517,-0.0956 m 0.803178,6.37826 c -0.997685,-0.5485 -2.217791,-0.33088 -3.296859,-0.25441 -0.942496,0.26791 -1.101723,1.35035 -0.924188,2.17667 0.218405,1.6477 1.6179,2.90623 3.194003,3.26566 1.133286,0.26816 2.649419,0.25758 3.234539,-0.95741 0.35148,-0.80345 0.82227,-1.98243 0.0344,-2.68973 -0.80747,-0.3727 -1.30915,-1.229 -2.176266,-1.47387 l -0.03924,-0.04 z m 1.039435,-2.45685 c -2.050091,-0.91404 -4.350575,-0.0576 -6.213778,0.88351 -2.184636,1.63625 -2.294476,5.33801 -0.250376,7.14095 2.044511,2.06691 5.198517,3.5463 8.078544,2.39888 2.37187,-0.98764 2.91557,-3.93707 2.972,-6.23681 -0.10986,-2.15279 -2.168,-3.46561 -4.07689,-3.91019 l -0.26165,-0.12245 z m 41.70102,34.96929 c -1.11362,0 -2.22724,0 -3.34086,0 m 13.02938,4.34313 c 0.0445,1.00886 0.60977,1.88754 0.82042,2.8593 0.0927,0.18757 0.03,0.46629 0.18127,0.61453 m 0.71443,-11.88669 c 0.0908,-0.31202 0.50947,0.28347 0.67656,-0.0898 0.7161,-0.37139 1.46818,-0.67166 2.20493,-0.99331 0.34024,-0.24422 0.83943,-0.3069 1.08163,-0.66035 m -11.75962,4.27638 c 0.23156,-1.44624 2.06813,-1.64995 3.26051,-1.68777 1.94706,0.12299 3.86422,2.04816 3.34011,4.06563 -0.74128,1.64712 -2.9621,1.1932 -4.40772,1.0946 -1.3942,-0.48136 -2.29035,-2.02708 -2.1929,-3.47246 z m 7.7965,-2.53292 c -2.22947,-1.81158 -5.6748,-2.40963 -8.26434,-1.06597 -1.41035,1.08289 -3.35279,2.35739 -3.15598,4.3861 0.33367,2.19729 2.18003,4.06722 4.25384,4.75815 2.51754,0.28963 5.31609,0.62404 7.75232,-0.19663 2.20211,-1.62444 2.77332,-5.98042 -0.0109,-7.32488 l -0.32095,-0.24167 z M 58.178654,141.126 c 7.122486,-2.15341 14.353106,-4.96102 21.930946,-4.37874 6.90206,-0.83197 13.84616,-1.29517 20.79869,-1.1431 3.21718,-0.0866 6.46782,0.18032 9.66223,-0.14676 4.86167,-0.72512 9.82529,-1.48255 14.15421,-3.97766 3.94025,-2.1431 7.66777,-4.73297 11.85802,-6.36456 2.19915,-1.29524 4.26615,-3.04052 6.67023,-3.87411 m -94.49405,5.66964 c 4.858456,2.01926 9.223781,-2.00404 13.61965,-3.43049 3.15701,-0.79845 6.46229,-0.95377 9.72124,-1.03835 8.69455,0.12745 16.79719,4.01399 25.41693,4.58025 8.72831,0.052 17.13602,-2.60621 25.4769,-4.85552 7.06664,-3.29651 14.55791,-5.8482 21.15022,-10.05827 0.207,-0.19315 0.41401,-0.3863 0.62101,-0.57945 M 52.916669,97.239581 C 64.0825,104.82354 75.75695,115.20232 90.25373,113.56629 c 9.1606,-1.51951 17.51797,-5.96877 26.63018,-7.74368 8.16762,-2.86251 13.52581,-5.61829 21.36088,-9.055499 l 3.8743,-0.47244 M 95.25719,73.612137 78.99703,75.883928 c -3.34995,0.803068 -6.51285,1.416579 -9.44941,3.401785 -2.58555,1.760518 -4.16014,3.066512 -6.83287,5.073378 -0.39297,1.606213 -2.744519,1.609501 -3.372488,3.242097 -1.73668,1.600419 -3.466512,3.366966 -4.157736,5.669643 -1.952757,2.41648 -2.271991,5.95671 -3.762638,8.392709 -0.873983,1.45696 -2.206435,6.28905 -2.662958,9.37217 -0.535839,2.20354 -0.631233,4.51106 -0.755952,6.81166 0.193063,3.03669 -0.542528,6.24569 0.755952,9.06334 1.077161,3.26695 0.946121,4.72412 2.645833,6.04762 1.356623,3.16027 4.475312,5.55621 6.773888,8.16767 2.821443,1.63151 4.559179,4.19909 7.211229,5.81745 2.56177,2.03556 4.7359,4.18081 7.9375,4.91369 2.95797,1.42413 6.24106,1.88164 8.69346,3.40179 3.59149,0.37319 6.7966,2.15763 10.33674,2.26785 2.69314,-0.13382 5.24837,0.59263 7.95367,0.37798 2.47069,-0.005 4.94243,0.008 7.41196,0 2.10747,-1.28171 7.53826,-3.17165 8.17533,-3.27278 2.89577,-1.19154 5.0753,-2.20503 7.69967,-3.53079 2.1575,-1.85566 4.55619,-3.23266 6.55227,-5.41834 2.23991,-1.89085 3.64901,-3.29431 5.54297,-5.92095 1.88982,-2.79915 3.567,-5.61493 4.15774,-8.69345 1.46901,-3.13777 2.63211,-6.44726 3.40178,-9.82738 1.14337,-3.14262 1.2145,-6.46269 1.51191,-9.71217 v -5.40688 c -0.91674,-3.11014 -1.14731,-6.835759 -2.64583,-9.827379 -2.71925,-1.22868 -3.05893,-1.88992 -4.58067,-4.15722 -1.24747,-2.750068 -3.61919,-5.566502 -5.43635,-7.57513 -0.0707,-1.421798 -3.06553,-3.311452 -3.95925,-3.96594 -2.30643,-1.386483 -5.57137,-2.217601 -8.34222,-2.808704 -2.84442,0.315054 -4.02008,-2.236017 -6.72723,-2.239774 -2.18299,-0.0046 -4.46772,-1.074404 -6.65026,-1.081304 v 0 z" />
    <path
       inkscape:connector-curvature="0"
       id="path247-2"
       style="fill:none;stroke:#000000;stroke-width:0.26458332px;stroke-linecap:butt;stroke-linejoin:miter;stroke-opacity:1"
       d="m 137.4104,136.61971 c 0.018,-0.43121 -0.56459,-0.50515 -0.65674,-0.90619 -0.35701,-0.2773 -0.60648,-0.64312 -1.02107,-0.83316 -0.38726,-0.17116 -0.83559,-0.45981 -1.28945,-0.5268 -0.11122,-0.16314 -0.48123,-0.18687 -0.50761,-0.13921 m 1.47035,6.14713 c -0.78813,0.0879 -1.22279,-0.7678 -1.82726,-1.12768 -0.54766,-0.43784 -1.20383,-0.69448 -1.85061,-0.93088 -0.65605,-0.4451 -1.37683,-0.76549 -2.06843,-1.14876 m 3.74178,5.47912 c -1.42299,-0.31365 -2.61153,-1.18767 -3.92977,-1.76066 -0.84788,-0.41853 -1.56117,-1.04843 -2.28652,-1.63755 -0.24781,-0.24463 -0.47227,-0.51259 -0.73271,-0.74443 m 9.55033,-26.85929 c -0.43545,0.54489 -0.86511,1.0942 -1.28229,1.65216 -0.50184,0.58608 -1.02873,1.14941 -1.56308,1.70292 -0.0564,0.0686 -0.13466,0.1376 -0.13107,0.2359 m -0.14186,-10.63078 c -1.65365,0 -3.30729,0 -4.96094,0 -0.0446,0.0515 -0.0473,-0.0608 0,0 m 10.48884,-7.84301 c -0.20401,-0.0166 -0.24192,-0.29507 -0.41134,-0.31584 -0.0974,-0.14952 -0.18297,-0.32113 -0.36235,-0.38707 -0.20734,-0.10258 -0.27752,-0.37562 -0.50806,-0.44008 -0.15166,-0.13025 -0.31714,-0.24442 -0.44811,-0.39675 -0.1759,-0.10055 -0.28776,-0.26163 -0.45724,-0.34194 l -0.0408,-0.006 -0.0399,-0.002 m 6.66177,3.1183 c -3.02086,-0.68611 -6.52778,1.116 -7.25844,4.22997 -0.44443,1.39913 -0.4149,2.89393 -0.28854,4.34166 0.45741,1.3001 1.04123,2.60333 1.80757,3.76042 1.40413,0.68974 2.95127,1.05093 4.44908,1.47984 1.27326,0.57449 2.25715,-0.65707 3.2335,-0.90293 0.14303,0.17368 0.14819,0.41457 0.18306,0.62417 m -2.64594,-15.23403 c -2.67286,0.0195 -5.51187,0.78837 -7.39153,2.78067 -1.91334,2.03373 -2.06862,5.01003 -1.97223,7.64658 0.4806,4.25745 5.1921,7.03 9.22617,6.312 1.05521,-0.16656 2.01105,-0.79125 2.78338,-1.50514 M 76.849418,78.98386 c 0.75501,-0.0808 1.49066,-0.2886 2.24784,-0.35389 0.59086,-0.0753 1.18764,-0.12038 1.76816,-0.26035 m -7.46503,18.42637 c 0.008,0.40646 0.43715,0.62624 0.62271,0.95352 0.27533,0.33479 0.67556,0.53089 0.92902,0.88505 0.23383,0.3197 0.59305,0.53714 0.76336,0.90173 m -12.37871,1.46468 c -6.6e-4,0.52371 10e-4,1.04743 -9.8e-4,1.57114 0.12627,0.43922 -0.0287,0.9032 0.0941,1.34478 l 0.001,0.0134 m -9.638515,-7.84302 c 3.705244,2.54061 8.700195,3.98614 12.936255,1.8413 4.11837,-1.90583 7.74145,-5.30448 9.41236,-9.56863 0.39048,-2.52194 0.60817,-5.52067 -1.06278,-7.64759 -0.82832,-1.08667 -1.87629,-1.97595 -2.9068,-2.86257 M 53.083676,97.2212 c 4.126594,3.28955 10.047972,4.78416 15.084002,2.94198 5.35641,-2.71642 10.82131,-7.45282 10.82546,-13.95441 0.0764,-3.51511 -1.49684,-6.96116 -3.92376,-9.45743 m -20.899021,34.36049 c -0.324616,0.0699 -0.665201,0.0936 -0.971679,-0.0448 -0.312514,-0.0253 -0.609416,-0.12778 -0.905014,-0.22486 -0.146268,-0.0907 -0.314769,-0.12181 -0.485675,-0.10836 m 5.764155,7.51232 c -0.313095,0.59641 -0.547049,1.23239 -0.753062,1.87232 -0.02719,0.10183 -0.04951,0.20629 -0.09738,0.30105 m 9.213166,-4.06325 c 0.69359,0.0974 1.25973,0.58671 1.95814,0.66698 0.55517,0.10196 0.98645,0.56967 1.58539,0.46659 m -9.40216,-9.54354 c -0.0876,-1.06649 -0.0562,-2.1442 0.001,-3.2094 l 0.0207,-0.0967 0.0252,-0.0956 m 0.80318,6.37826 c -0.99769,-0.5485 -2.2178,-0.33088 -3.296865,-0.25441 -0.942496,0.26791 -1.101723,1.35035 -0.924188,2.17667 0.218405,1.6477 1.617903,2.90623 3.194003,3.26566 1.13329,0.26816 2.64942,0.25758 3.23454,-0.95741 0.35148,-0.80345 0.82227,-1.98243 0.0344,-2.68973 -0.80747,-0.3727 -1.30915,-1.229 -2.17627,-1.47387 l -0.0392,-0.04 z m 1.03943,-2.45685 c -2.05009,-0.91404 -4.350576,-0.0576 -6.213779,0.88351 -2.184636,1.63625 -2.294476,5.33801 -0.250376,7.14095 2.044511,2.06691 5.198515,3.5463 8.078545,2.39888 2.37187,-0.98764 2.91557,-3.93707 2.972,-6.23681 -0.10986,-2.15279 -2.168,-3.46561 -4.07689,-3.91019 l -0.26165,-0.12245 z m 41.701022,34.96929 c -1.11362,0 -2.22724,0 -3.34086,0 m 13.02938,4.34313 c 0.0445,1.00886 0.60977,1.88754 0.82042,2.8593 0.0927,0.18757 0.03,0.46629 0.18127,0.61453 m 0.71443,-11.88669 c 0.0908,-0.31202 0.50947,0.28347 0.67656,-0.0898 0.7161,-0.37139 1.46818,-0.67166 2.20493,-0.99331 0.34024,-0.24422 0.83943,-0.3069 1.08163,-0.66035 m -11.75962,4.27638 c 0.23156,-1.44624 2.06813,-1.64995 3.26051,-1.68777 1.94706,0.12299 3.86422,2.04816 3.34011,4.06563 -0.74128,1.64712 -2.9621,1.1932 -4.40772,1.0946 -1.3942,-0.48136 -2.29035,-2.02708 -2.1929,-3.47246 z m 7.7965,-2.53292 c -2.22947,-1.81158 -5.6748,-2.40963 -8.26434,-1.06597 -1.41035,1.08289 -3.35279,2.35739 -3.15598,4.3861 0.33367,2.19729 2.18003,4.06722 4.25384,4.75815 2.51754,0.28963 5.31609,0.62404 7.75232,-0.19663 2.20211,-1.62444 2.77332,-5.98042 -0.0109,-7.32488 l -0.32095,-0.24167 z m -56.726122,1.74207 c 7.12249,-2.15341 14.35311,-4.96102 21.93095,-4.37874 6.90206,-0.83197 13.84616,-1.29517 20.798692,-1.1431 3.21718,-0.0866 6.46782,0.18032 9.66223,-0.14676 4.86167,-0.72512 9.82529,-1.48255 14.15421,-3.97766 3.94025,-2.1431 7.66777,-4.73297 11.85802,-6.36456 2.19915,-1.29524 4.26615,-3.04052 6.67023,-3.87411 m -94.494053,5.66964 c 4.858456,2.01926 9.223782,-2.00404 13.619651,-3.43049 3.15701,-0.79845 6.46229,-0.95377 9.72124,-1.03835 8.69455,0.12745 16.79719,4.01399 25.41693,4.58025 8.728312,0.052 17.136022,-2.60621 25.476902,-4.85552 7.06664,-3.29651 14.55791,-5.8482 21.15022,-10.05827 0.207,-0.19315 0.41401,-0.3863 0.62101,-0.57945 M 53.083306,97.2212 c 11.165832,7.58396 22.840282,17.96274 37.337062,16.32671 9.1606,-1.51951 17.517972,-5.96877 26.630182,-7.74368 8.16762,-2.86251 13.52581,-5.61829 21.36088,-9.0555 l 3.8743,-0.47244 M 95.423828,73.59375 79.163668,75.86554 c -3.34995,0.80307 -6.51285,1.41658 -9.44941,3.40179 -2.58555,1.76052 -4.16014,3.06651 -6.83287,5.07338 -0.39297,1.60621 -2.74452,1.6095 -3.37249,3.24209 -1.736679,1.60042 -3.466511,3.36697 -4.157735,5.66965 -1.952756,2.41647 -2.271991,5.9567 -3.762638,8.39271 -0.873983,1.45696 -2.206435,6.28905 -2.662958,9.37217 -0.535839,2.20354 -0.631233,4.51106 -0.755952,6.81166 0.193063,3.03669 -0.542528,6.24569 0.755952,9.06334 1.077161,3.26695 0.946121,4.72412 2.645833,6.04762 1.356623,3.16027 4.475312,5.55621 6.773888,8.16767 2.82144,1.63151 4.55918,4.19909 7.21123,5.81745 2.56177,2.03556 4.7359,4.18081 7.9375,4.91369 2.95797,1.42413 6.24106,1.88164 8.69346,3.40179 3.59149,0.37319 6.7966,2.15763 10.33674,2.26785 2.69314,-0.13382 5.24837,0.59263 7.953672,0.37798 2.47069,-0.005 4.94243,0.008 7.41196,0 2.10747,-1.28171 7.53826,-3.17165 8.17533,-3.27278 2.89577,-1.19154 5.0753,-2.20503 7.69967,-3.53079 2.1575,-1.85566 4.55619,-3.23266 6.55227,-5.41834 2.23991,-1.89085 3.64901,-3.29431 5.54297,-5.92095 1.88982,-2.79915 3.567,-5.61493 4.15774,-8.69345 1.46901,-3.13777 2.63211,-6.44726 3.40178,-9.82738 1.14337,-3.14262 1.2145,-6.46269 1.51191,-9.71217 v -5.40688 c -0.91674,-3.11014 -1.14731,-6.83576 -2.64583,-9.82738 -2.71925,-1.22868 -3.05893,-1.88992 -4.58067,-4.15722 -1.24747,-2.75007 -3.61919,-5.5665 -5.43635,-7.57513 -0.0707,-1.4218 -3.06553,-3.31145 -3.95925,-3.96594 -2.30643,-1.38649 -5.57137,-2.2176 -8.34222,-2.80871 -2.84442,0.31506 -4.02008,-2.23601 -6.72723,-2.23977 -2.18299,-0.005 -4.46772,-1.0744 -6.65026,-1.0813 v 0 z" />
  </g>
</svg>
