<?xml version="1.0" encoding="UTF-8" standalone="no"?>
<!-- Created with Inkscape (http://www.inkscape.org/) -->

<svg
   xmlns:dc="http://purl.org/dc/elements/1.1/"
   xmlns:cc="http://creativecommons.org/ns#"
   xmlns:rdf="http://www.w3.org/1999/02/22-rdf-syntax-ns#"
   xmlns:svg="http://www.w3.org/2000/svg"
   xmlns="http://www.w3.org/2000/svg"
   xmlns:sodipodi="http://sodipodi.sourceforge.net/DTD/sodipodi-0.dtd"
   xmlns:inkscape="http://www.inkscape.org/namespaces/inkscape"
   width="210mm"
   height="297mm"
   viewBox="0 0 210 297"
   version="1.1"
   id="svg7827"
   inkscape:version="0.92.1 r15371"
   sodipodi:docname="venus.svg">
  <defs
     id="defs7821" />
  <sodipodi:namedview
     id="base"
     pagecolor="#ffffff"
     bordercolor="#666666"
     borderopacity="1.0"
     inkscape:pageopacity="0.0"
     inkscape:pageshadow="2"
     inkscape:zoom="0.98994949"
     inkscape:cx="362.47693"
     inkscape:cy="853.58025"
     inkscape:document-units="mm"
     inkscape:current-layer="layer1"
     showgrid="false"
     inkscape:window-width="1600"
     inkscape:window-height="837"
     inkscape:window-x="-8"
     inkscape:window-y="-8"
     inkscape:window-maximized="1" />
  <metadata
     id="metadata7824">
    <rdf:RDF>
      <cc:Work
         rdf:about="">
        <dc:format>image/svg+xml</dc:format>
        <dc:type
           rdf:resource="http://purl.org/dc/dcmitype/StillImage" />
        <dc:title></dc:title>
      </cc:Work>
    </rdf:RDF>
  </metadata>
  <g
     inkscape:label="Layer 1"
     inkscape:groupmode="layer"
     id="layer1">
    <path
       id="path3779"
       style="fill:none;stroke:#000000;stroke-width:0.25793126px;stroke-linecap:butt;stroke-linejoin:miter;stroke-opacity:1"
       d="m 145.71493,110.83164 c 0.45142,0.14493 0.73561,-0.34864 1.12231,-0.47235 0.40372,-0.006 0.77157,-0.1713 1.11078,-0.38807 0.36929,-0.22721 0.80941,0.0762 1.18739,-0.13456 0.37858,-0.10657 0.67319,-0.42676 1.07269,-0.44975 0.49658,-0.12565 0.94228,-0.39994 1.43553,-0.53632 0.69825,-0.25611 1.28081,-0.73787 1.95513,-1.04469 0.50595,-0.26148 1.03655,-0.51445 1.40586,-0.97054 0.11148,-0.11132 0.23265,-0.216 0.37433,-0.28511 m -32.34199,3.33329 c 3.2758,-2e-4 6.5516,2.6e-4 9.82739,0 1.45246,-0.58571 3.02478,-0.81838 4.51402,-1.27575 1.86661,-0.31846 3.76455,-0.75533 5.3619,-1.82005 2.12006,-1.12804 4.26005,-2.2145 6.36812,-3.36259 1.34756,-0.47004 2.26478,-1.65476 3.3292,-2.55577 1.27367,-1.346171 2.93475,-2.390064 3.86128,-4.026022 M 104.13816,145.4133 c 0.48974,-0.36366 0.93773,-0.87837 1.58166,-0.9415 0.682,-0.44174 1.41283,-0.80728 2.19133,-1.04426 1.13909,-0.41708 2.25748,-0.89483 3.3421,-1.43585 0.41503,-0.33479 0.94784,-0.44995 1.31798,-0.85478 0.50038,-0.3203 1.05457,-0.5687 1.47794,-1.00875 0.43225,-0.33169 0.8447,-0.71758 1.34574,-0.93921 l 0.0825,-0.0122 m -23.716744,4.34463 c 0.58705,-0.32875 1.009132,-0.97941 1.712487,-1.07247 0.221586,-0.34768 0.785675,-0.30244 1.047536,-0.66241 0.869606,-0.47318 1.827032,-0.7551 2.684753,-1.24759 0.639667,-0.26968 1.323713,-0.40858 1.973294,-0.64003 0.510879,-0.2386 0.904124,-0.65875 1.324794,-1.02564 1.03097,-0.27276 1.83363,-1.01618 2.66142,-1.65169 0.65573,-0.45679 1.3257,-0.90189 1.91677,-1.44498 m -25.724211,2.86651 c 2.781661,-0.55033 5.761507,-0.6345 8.122199,-2.44808 2.664095,-1.54206 5.696889,-2.13428 8.424974,-3.51834 2.881945,-1.17557 5.805008,-2.23103 8.833508,-2.93315 3.70555,-1.18534 7.41794,-2.47258 11.33631,-2.66095 3.24775,-0.22871 6.5358,-0.61781 9.77569,-0.26202 2.65779,0.43272 5.17223,1.38587 7.75739,2.02631 2.16216,0.68965 4.32186,1.35791 6.51228,1.92368 0.76964,0.26812 1.55488,0.57954 2.38253,0.55638 m -78.524231,-3.1818 c 4.1696,-0.57025 8.023401,-2.50901 11.76487,-4.32363 2.901096,-1.39758 3.327361,-7.16761 5.362718,-7.5736 2.450619,3.12952 7.568716,4.41649 10.604416,1.39824 1.990939,-3.23511 5.106889,-3.28806 8.089913,-1.68657 8.495424,1.82195 17.268184,2.02893 25.916934,1.62755 4.12734,-0.5232 8.28052,-0.72438 12.4213,-1.00858 5.73934,-0.74147 11.88624,-1.94613 16.20028,-6.12846 M 54.623273,97.410328 c 0.175044,0.992378 -0.500841,2.4437 0.681242,3.015172 1.862528,1.1434 4.082091,1.60988 6.250304,1.51896 1.062988,0.31708 1.981301,-0.46401 2.95927,-0.41548 0.748911,0.426 1.12002,1.32095 1.967603,1.62587 1.433142,0.75321 3.05256,1.09279 4.649513,1.26458 0.33563,0.0426 1.692591,-0.18007 1.437236,0.12156 -2.796527,0.92827 -5.495621,2.11598 -8.232036,3.19856 -1.676823,0.54159 -3.369401,1.08443 -4.893445,1.98809 -1.833275,0.89201 -3.668425,1.79696 -5.350719,2.95564 l -0.03811,0.022 m 0.569142,-15.294952 c 1.633196,0.0685 3.155699,0.866029 4.809257,0.76164 2.352714,-0.01429 4.705635,0.0011 7.058595,-0.009 1.125046,-0.851569 1.39486,1.123202 2.332642,1.35631 1.432443,0.883012 2.993836,1.596582 4.656996,1.893922 1.219981,0.34818 2.474461,0.65213 3.753023,0.53377 0.616876,-0.002 1.494176,-0.0126 1.768953,-10e-4 M 56.560565,90.795917 c 1.190017,-0.762051 2.714299,-0.689621 4.042616,-0.415399 1.15911,0.43457 2.135072,1.241928 3.066784,2.026608 0.809471,0.634352 1.009832,2.395493 2.294245,2.0858 0.994508,-0.50941 2.048244,-0.25822 3.10856,-0.30775 1.072565,-0.0281 2.172716,0.25237 2.974699,0.993582 1.135295,0.634849 1.642593,1.896118 2.281196,2.840091 1.201761,-0.433491 2.578469,-0.918901 3.931239,-0.537591 0.789098,0.51118 1.672321,0.838469 2.670822,0.484169 1.102428,0.0552 2.047295,0.979191 3.224421,0.812831 l 0.163806,-0.01701 0.164529,-0.0282 M 58.392687,86.449717 c 2.623357,-2.641981 7.455548,-0.695531 8.978677,2.291289 1.780886,0.998332 2.714279,-3.345169 5.332601,-2.433119 3.600635,-0.248941 6.745421,1.616459 9.454538,3.685411 2.208493,-2.952631 5.899605,-4.48242 9.778029,-3.723032 3.784055,0.165362 7.632036,2.966461 8.780188,6.7403 1.95106,3.566243 0.24451,8.379814 2.37616,11.575084 3.53562,0.52131 7.19285,0.2388 10.76867,0.1128 6.33838,-0.44362 12.78052,-0.79694 18.77913,-3.14063 4.31767,-1.32509 7.89155,-4.536853 11.45669,-7.282683 3.11027,-4.05103 7.44364,-7.39548 9.3655,-12.262501 M 131.51281,70.415843 c 0.72278,0.35768 1.40656,0.915262 2.24818,0.918385 1.03458,0.426339 2.06887,0.934964 3.20681,0.980517 0.92001,0.05203 1.84532,0.0095 2.76344,-0.04358 1.2877,-0.181481 2.37063,-0.970639 3.4369,-1.662857 0.6694,-0.4974 1.34691,-1.043905 1.78593,-1.766888 l 0.0261,-0.06057 M 88.088321,54.60291 c -1.280808,2.038733 2.935431,2.251444 4.005572,3.431439 3.206131,1.587011 6.269059,3.428407 9.569117,4.817954 4.2881,2.254461 8.50126,4.768448 12.11736,8.008119 2.5479,1.798357 5.09123,3.642807 7.85712,5.096181 2.15789,1.121812 4.54674,1.681884 6.97677,1.619034 3.46875,0.17498 7.02987,0.33273 10.37607,-0.752937 2.86661,-0.596304 5.92972,-1.184282 8.13023,-3.278802 0.3998,-0.287344 0.81855,-0.546673 1.2296,-0.817262 M 100.73637,52.242173 c -4.313751,0.0077 -9.024146,-0.563552 -12.648049,2.360738 -8.908412,4.539071 -16.595466,11.215393 -22.957299,18.875849 -3.619958,6.222548 -7.137676,12.606126 -9.40015,19.455368 -2.015929,6.379329 -2.186849,13.183892 -1.676729,19.771382 3.311923,10.84844 12.341872,18.85624 21.922706,24.31254 8.023855,4.00073 16.490861,7.67539 25.561721,8.18129 8.489,0.99867 17.24266,0.53974 25.35467,-2.30486 5.17531,-1.30736 7.63591,-3.91577 11.79061,-7.43535 4.91624,-4.333 9.24987,-9.35671 11.89504,-15.41784 4.74405,-9.3606 6.91082,-20.265172 5.16614,-30.669993 -2.1799,-8.512109 -6.01834,-17.053414 -13.02017,-22.675198 -6.90519,-7.30879 -16.31562,-12.590646 -26.36793,-13.762833 -4.84672,-0.01788 -9.8508,0.351749 -14.61131,-0.173546 -0.34552,-0.154222 -0.67218,-0.346398 -1.00925,-0.517547 z" />
    <path
       transform="scale(0.26458333)"
       style="fill:#ff9955;stroke-width:0.71428573"
       d="m 330.35547,208.00781 c -0.40004,0.026 -0.75518,0.13252 -1.18164,0.28516 -0.85292,0.30528 -1.94183,0.82537 -3.27344,1.5332 -2.66322,1.41566 -6.25991,3.57951 -10.29687,6.16797 -8.07393,5.17693 -17.88619,12.04283 -25.25391,17.92188 -14.7717,11.78702 -33.8627,30.48629 -43.04688,42.18945 -1.03711,1.32157 -3.06952,4.74409 -5.71289,9.36523 -2.64336,4.62114 -5.81722,10.34908 -8.84765,15.9375 -3.03044,5.58842 -5.91478,11.03418 -7.97852,15.09375 -1.03187,2.02979 -1.85734,3.71064 -2.40039,4.90625 -0.27152,0.59781 -0.47153,1.06761 -0.60156,1.43946 -0.065,0.18592 -0.11733,0.33197 -0.14844,0.55078 -0.0156,0.1094 -0.0479,0.23127 0.0273,0.50781 0.0376,0.13827 0.11797,0.33708 0.31446,0.51563 0.19648,0.17854 0.49851,0.27734 0.71484,0.27734 0.27886,0 0.29539,-0.0361 0.37891,-0.0586 0.0835,-0.0225 0.16599,-0.0472 0.25976,-0.0781 0.18756,-0.0618 0.41641,-0.14386 0.6836,-0.24414 0.53437,-0.20056 1.21795,-0.47247 1.93359,-0.77148 1.53059,-0.63953 4.23299,-1.00338 7.00195,-0.95899 2.76897,0.0444 5.64081,0.47993 7.58008,1.2168 4.77957,1.8161 9.62798,5.39537 11.99805,8.75781 0.65053,0.92291 1.38275,1.7506 2.08398,2.38086 0.35062,0.31513 0.69123,0.58124 1.03711,0.78906 0.34589,0.20783 0.6805,0.39453 1.20117,0.39453 0.68971,0 0.95309,-0.24649 1.40235,-0.51562 0.44926,-0.26913 0.96023,-0.62826 1.5293,-1.06641 1.13813,-0.8763 2.49624,-2.06201 3.83593,-3.36914 1.28501,-1.25377 2.65531,-2.44763 3.80469,-3.34375 0.57469,-0.44806 1.09635,-0.82217 1.50977,-1.08594 0.41341,-0.26377 0.76795,-0.41025 0.75976,-0.4082 0.46769,-0.11738 1.7064,-0.21096 3.21485,-0.19531 1.50845,0.0156 3.33434,0.11501 5.20898,0.27539 3.74927,0.32075 7.74562,0.90882 9.74805,1.50781 4.69608,1.40475 12.44168,5.25708 17.78515,8.88281 l 4.14063,2.81055 a 1.032571,1.032571 0 0 0 1.3125,-0.125 l 3.00195,-3.01953 c 3.89781,-3.91957 9.09358,-7.17682 14.48047,-9.07422 3.6332,-1.2797 5.70341,-1.53962 12.06836,-1.50391 13.66535,0.0767 21.82718,3.06248 30.25586,11.01368 5.18368,4.89001 7.80341,9.16095 10.89062,17.8125 1.51879,4.2562 2.04151,7.52103 2.8418,17.94531 0.90451,11.78188 1.97334,18.34127 4.01953,21.50781 0.29241,0.45252 0.6587,0.64748 1.0625,0.83789 0.4038,0.19042 0.87058,0.34699 1.41797,0.49024 1.09479,0.28649 2.50701,0.51499 4.18164,0.68164 5.67515,0.56477 17.89942,0.36547 31.32422,-0.28321 13.4248,-0.64868 27.97635,-1.75723 38.07422,-3.0625 21.67704,-2.802 42.0671,-9.33101 55.07031,-17.72265 3.53941,-2.28416 9.67911,-6.82747 15.19727,-11.11133 2.75908,-2.14193 5.35677,-4.21547 7.38476,-5.9043 2.028,-1.68882 3.40425,-2.86538 4.05078,-3.69726 0.7204,-0.92693 4.00322,-4.70122 7.14063,-8.1875 15.57932,-17.31174 20.55944,-23.68017 24.42383,-31.32032 l 1.96289,-3.88086 a 1.032571,1.032571 0 0 0 0.0351,-0.85546 l -1.61132,-3.97461 v -0.002 c -2.72268,-6.72628 -9.1573,-19.01778 -13.1543,-25.1289 L 561.5,275.40039 a 1.032571,1.032571 0 0 0 -1.41992,-0.30469 l -1.78516,1.14453 c -1.07407,0.68798 -2.91638,2.09014 -4.25,3.22266 -5.04926,4.28786 -11.02785,6.56848 -29.72656,11.17969 l -9.51758,2.34765 L 496,292.89453 c -10.79537,-0.0544 -17.15317,-0.24977 -22.06445,-1.0625 -4.91128,-0.81272 -8.4233,-2.22582 -13.71094,-4.82422 -6.3124,-3.10197 -27.45155,-16.98875 -32.12109,-21.07617 -12.57771,-11.00969 -26.82903,-19.74414 -57.00196,-34.97852 -6.08543,-3.07254 -11.73993,-5.9762 -15.94336,-8.17578 -2.10171,-1.09978 -3.84122,-2.02396 -5.08593,-2.70312 -0.62236,-0.33958 -1.12186,-0.61744 -1.47461,-0.82227 -0.35275,-0.20482 -0.65491,-0.44171 -0.4961,-0.29883 -0.30927,-0.27825 -0.63021,-0.45558 -1.10156,-0.71874 -0.47135,-0.26317 -1.06074,-0.56746 -1.73633,-0.89844 -1.35118,-0.66196 -3.04756,-1.43165 -4.7832,-2.15821 -5.51295,-2.30776 -8.03788,-4.35777 -8.68945,-6.3125 -0.11609,-0.34824 -0.45196,-0.65488 -0.73243,-0.76367 -0.28046,-0.10878 -0.5031,-0.10675 -0.70312,-0.0937 z"
       id="path7869" />
    <path
       transform="scale(0.26458333)"
       style="fill:#ff9955;stroke-width:0.71428573"
       d="m 580.90234,419.57031 c -0.57658,0.0213 -0.85584,0.20381 -1.15625,0.3711 -0.3004,0.16728 -0.59109,0.36477 -0.91797,0.59961 -0.65374,0.46966 -1.43827,1.08818 -2.40039,1.8164 -9.01578,6.82403 -22.65587,12.11459 -39.71679,15.26563 -9.54709,1.76328 -12.26424,2.04699 -41.18555,4.31836 -7.86089,0.61736 -17.498,1.40613 -21.44141,1.7539 -15.23001,1.34316 -50.84165,0.58 -68.64062,-1.48633 -5.86441,-0.68081 -12.88576,-1.77156 -18.73242,-2.8457 -2.92334,-0.53707 -5.55497,-1.07052 -7.5918,-1.54297 -2.03683,-0.47245 -3.59672,-0.96769 -3.87109,-1.10547 -4.23903,-2.12858 -10.15561,-3.32888 -14.2793,-2.76367 -4.92296,0.67477 -9.23095,3.46291 -13.73437,8.64063 -4.02436,4.62689 -7.45397,6.5762 -13.16602,7.50586 -7.64854,1.24483 -17.58788,-1.93128 -23.77539,-7.69336 -1.17178,-1.09121 -2.02416,-1.99605 -3.16211,-2.55469 -0.56898,-0.27932 -1.28565,-0.44963 -2,-0.31055 -0.71435,0.13908 -1.31814,0.54122 -1.82813,1.04492 -1.01997,1.00742 -1.88249,2.5078 -3.08398,4.84766 -1.20149,2.33986 -2.69381,5.51507 -4.70313,9.76563 -2.23696,4.73214 -3.65036,7.2629 -5.83203,9.30468 -2.18166,2.04179 -5.31461,3.73015 -11.0664,6.4668 -12.33664,5.86965 -20.1434,8.88937 -28.18164,10.92773 -1.74891,0.4435 -3.35384,0.89601 -4.55664,1.2754 -0.60141,0.18969 -1.09785,0.35882 -1.49024,0.51367 -0.19619,0.0774 -0.36279,0.14702 -0.53906,0.24023 -0.0881,0.0466 -0.17754,0.095 -0.30273,0.18945 -0.1252,0.0945 -0.34499,0.17094 -0.53711,0.72657 -0.23017,0.66516 -0.0175,0.95491 0.0625,1.13281 0.08,0.1779 0.14942,0.27759 0.21875,0.375 0.13864,0.19481 0.28305,0.35989 0.45898,0.55078 0.35185,0.38179 0.82385,0.84462 1.41211,1.39649 1.17652,1.10373 2.80394,2.54358 4.63867,4.11523 3.66947,3.14329 8.14913,6.79531 11.40234,9.20117 8.91533,6.5932 19.80436,13.44983 28.76368,18.10742 2.37835,1.23641 4.66541,2.36057 6.45312,3.18555 0.89386,0.41249 1.65957,0.75028 2.26758,0.99414 0.30401,0.12193 0.56682,0.21981 0.80469,0.29688 0.23786,0.0771 0.36687,0.15676 0.81836,0.16406 0.42543,0.007 0.71744,-0.044 1.27539,-0.11719 0.55795,-0.0732 1.27344,-0.17894 2.10547,-0.30859 1.66405,-0.25932 3.7926,-0.6169 5.99609,-1.01367 8.40528,-1.51351 15.06571,-3.53634 18.54883,-5.94922 3.14477,-2.17851 10.30785,-5.50236 20.49023,-9.37891 5.6651,-2.15677 13.49754,-5.23527 17.45313,-6.86133 6.89614,-2.83485 13.54601,-5.02783 35.58789,-11.72851 21.55316,-6.55211 26.22459,-7.40796 48.9668,-8.97852 20.50525,-1.41607 24.92163,-0.85432 49.13476,6.22266 6.09635,1.78183 17.37687,5.07232 25.07031,7.3125 l 13.98633,4.07226 a 1.4285124,1.4285124 0 0 0 1.47656,-0.43359 l 4.53711,-5.2168 c 14.02449,-16.13175 25.2065,-35.76858 34.1836,-59.96094 1.45425,-3.91907 2.45655,-6.54553 3.01562,-8.27539 0.27954,-0.86492 0.46047,-1.47262 0.51172,-2.10547 0.0256,-0.31642 0.0623,-0.67281 -0.20312,-1.18164 -0.26545,-0.50882 -1.06459,-0.90639 -1.54493,-0.88867 z"
       id="path7871" />
    <path
       transform="scale(0.26458333)"
       style="fill:#ff9955;stroke-width:0.71428573"
       d="m 206.47266,376.3457 c -0.73914,0.0202 -1.00015,0.28995 -1.23047,0.46094 -0.23032,0.17099 -0.40683,0.33846 -0.60157,0.5332 -0.5349,0.53491 -0.45897,0.72608 -0.51757,0.92969 -0.0586,0.20361 -0.0952,0.38884 -0.13086,0.59766 -0.0714,0.41764 -0.13218,0.92068 -0.19141,1.53515 -0.11846,1.22896 -0.22745,2.88583 -0.33008,4.85352 -0.20525,3.93538 -0.37958,9.10153 -0.49609,14.34766 -0.11651,5.24612 -0.17587,10.56829 -0.15234,14.80859 0.0118,2.12015 0.0439,3.96694 0.10156,5.41406 0.0576,1.44712 0.0853,2.34827 0.29492,3.1836 l 0.46484,1.84765 a 1.6922657,1.6922657 0 0 0 2.6211,0.9668 l 1.94922,-1.38672 a 1.6922657,1.6922657 0 0 0 0.002,0 c 1.87115,-1.33237 7.49473,-4.38405 13.32226,-7.26562 5.82754,-2.88158 12.02113,-5.69984 15.25196,-6.85352 5.34409,-1.9083 13.48375,-5.03501 20.31054,-7.74609 3.4134,-1.35555 6.49417,-2.60606 8.73829,-3.55079 1.12205,-0.47236 2.03159,-0.86556 2.6875,-1.16796 0.32795,-0.15121 0.58899,-0.2762 0.8125,-0.39649 0.11175,-0.0601 0.20889,-0.11466 0.3457,-0.20898 0.0684,-0.0472 0.14637,-0.0977 0.27539,-0.22461 0.12902,-0.12688 0.4692,-0.26319 0.51953,-1.13477 0.047,-0.81328 -0.38388,-1.21713 -0.58008,-1.39453 -0.1962,-0.17739 -0.31992,-0.23863 -0.42773,-0.29492 -0.21563,-0.11258 -0.37075,-0.16582 -0.54688,-0.22461 -0.35224,-0.11759 -0.75943,-0.22397 -1.25586,-0.33984 -0.99285,-0.23176 -2.31081,-0.486 -3.76757,-0.71875 -7.14388,-1.14143 -12.41432,-3.4003 -16.12696,-6.73829 l -3.48242,-3.13085 a 1.6922657,1.6922657 0 0 0 -1.61328,-0.36329 l -3.56836,1.06055 v -0.002 c -2.63458,0.78238 -4.57548,0.86509 -10.66601,0.375 -4.16962,-0.33552 -9.12597,-1.07257 -10.22657,-1.39649 -1.91286,-0.56297 -4.64383,-1.75033 -6.80078,-2.88672 -1.07847,-0.56819 -2.02692,-1.13156 -2.64062,-1.56054 -0.26183,-0.18302 -0.4183,-0.3168 -0.52149,-0.41016 -0.0233,-0.11372 0.007,-0.16832 -0.0508,-0.31836 -0.0877,-0.22789 -0.24794,-0.53458 -0.58008,-0.80078 -0.33213,-0.26619 -0.82514,-0.40844 -1.1914,-0.39844 z"
       id="path7873" />
    <path
       transform="scale(0.26458333)"
       style="fill:#ff7f2a;stroke-width:0.71428573"
       d="m 579.96094,311.00586 c -1.2184,0 -1.22374,0.4141 -1.35938,0.53906 -0.13564,0.12496 -0.19624,0.20233 -0.25586,0.27539 -0.11923,0.14613 -0.20424,0.27 -0.30468,0.41797 -0.20089,0.29594 -0.43519,0.66624 -0.70899,1.11914 -0.5476,0.9058 -1.24656,2.12452 -1.98437,3.4668 -3.28545,5.97713 -7.63513,11.56622 -19.85743,25.39453 -12.58537,14.2391 -12.42177,14.08902 -22.53711,21.79687 -15.77718,12.02219 -21.59524,15.26753 -36.19921,20.19141 -15.15554,5.10985 -28.88875,7.47592 -56.98829,9.77149 -7.25837,0.59296 -19.27256,0.90886 -29.66601,0.92382 -5.19673,0.007 -9.9971,-0.0582 -13.59766,-0.19922 -1.80028,-0.0705 -3.30353,-0.16047 -4.37695,-0.26367 -0.53671,-0.0516 -0.96866,-0.10884 -1.24609,-0.1582 -0.27744,-0.0494 -0.47755,-0.18786 -0.11524,0.0195 -0.41675,-0.23855 -1.60887,-1.83927 -2.45508,-4.71875 -0.8462,-2.87948 -1.51006,-6.9062 -1.87304,-11.77539 -1.14151,-15.31242 -1.92166,-19.76339 -4.69532,-26.69922 -5.80554,-14.51732 -17.10304,-23.72872 -31.89062,-25.90039 -15.36452,-2.25639 -26.74218,0.8235 -36.15234,9.97461 -1.18625,1.15359 -2.29344,2.20358 -3.10743,2.95313 -0.13784,0.12692 -0.20635,0.18437 -0.32617,0.29296 -0.15627,-0.0992 -0.25188,-0.15702 -0.43555,-0.27539 -0.95987,-0.61861 -2.26615,-1.48136 -3.67187,-2.42968 -6.11825,-4.12748 -12.64399,-7.57504 -17.11523,-8.88477 -2.65956,-0.77927 -6.99739,-1.30457 -11.08985,-1.58984 -2.04623,-0.14264 -4.00303,-0.21483 -5.60937,-0.19141 -0.80317,0.0117 -1.51625,0.0466 -2.14258,0.11719 -0.62633,0.0706 -1.10659,0.0968 -1.81641,0.46484 -0.88409,0.45839 -1.60295,1.08693 -2.70898,2.01758 -1.10603,0.93065 -2.39813,2.08494 -3.63867,3.26563 -1.44729,1.37745 -2.57713,2.37223 -3.41602,2.94335 -0.83889,0.57113 -1.28752,0.68098 -1.58398,0.67383 -0.29647,-0.007 -0.70713,-0.12967 -1.48438,-0.73242 -0.77725,-0.60275 -1.8166,-1.64509 -3.13867,-3.08789 -7.09177,-7.73941 -16.61409,-11.31901 -25.07813,-8.94922 -2.66207,0.74534 -4.88865,1.92633 -6.6914,3.87695 -1.80276,1.95063 -3.17244,4.54081 -4.63672,8.13672 -0.69926,1.71722 -1.33405,3.31828 -1.79883,4.52344 -0.23239,0.60258 -0.42126,1.10469 -0.55859,1.48633 -0.0687,0.19082 -0.12358,0.34943 -0.16992,0.49414 -0.0232,0.0724 -0.0453,0.13883 -0.0684,0.22656 -0.0231,0.0877 -0.0762,0.0679 -0.0762,0.5625 0,0.36381 0.18875,0.72576 0.37891,1.03516 -0.54357,0.45007 -1.04409,1.00244 -1.43164,1.68555 -0.78676,1.38676 -1.37192,3.18406 -2.36328,6.30859 -1.20658,3.80285 -2.32832,7.82024 -3.10156,10.97851 -0.38662,1.57914 -0.68619,2.93774 -0.86914,3.98438 -0.0915,0.52332 -0.15585,0.96188 -0.1836,1.37305 -0.0139,0.20558 -0.0228,0.39936 0.002,0.66211 0.0248,0.26274 -0.10212,0.64787 0.61524,1.36523 0.12609,0.12609 0.11547,0.0763 0.19141,0.13281 -0.42772,0.50167 -0.75524,1.06979 -0.87891,1.60156 -0.21995,0.94577 -0.21484,1.85933 -0.21484,2.99415 0,1.46145 0.081,2.63317 0.35156,3.68945 0.27052,1.05627 0.79745,2.03225 1.5625,2.72461 1.38536,1.25373 3.50728,2.2664 6.03515,3.33008 2.52787,1.06367 5.33283,2.02277 7.68946,2.52539 2.67259,0.56999 6.42241,0.83331 10.01953,0.86132 3.59711,0.028 6.83445,-0.11011 8.98633,-0.75976 1.87383,-0.56572 2.68918,-0.6583 3.24609,-0.51953 0.55691,0.13876 1.37099,0.66884 2.93555,2.09961 5.52725,5.0546 12.68991,7.62514 22.70117,8.38476 0.28149,0.0214 0.39508,0.0581 0.6543,0.082 -2.81025,1.01401 -7.79956,2.91475 -14.38282,5.52539 -7.6417,3.03038 -15.82802,6.12042 -17.72851,6.72266 -2.56643,0.81327 -8.17319,3.42336 -14.18164,6.36328 -6.00845,2.93992 -12.13919,6.11414 -15.17969,7.99219 -1.96446,1.21341 -3.66162,2.26096 -3.77344,2.33008 -0.70221,0.4341 -0.85428,1.02168 -0.91601,1.32226 -0.0617,0.30059 -0.0498,0.47414 -0.041,0.625 0.0175,0.30174 0.0639,0.50592 0.11719,0.73633 0.10666,0.46082 0.26565,0.97683 0.47461,1.59961 0.41791,1.24556 1.03496,2.88081 1.76953,4.70899 1.46913,3.65635 3.39329,8.0543 5.03906,11.35156 6.16371,12.34882 13.95125,23.3294 24.73828,34.91797 2.12291,2.28066 3.3842,3.60416 4.61914,4.47656 1.23495,0.8724 2.83799,1.09279 3.95313,0.83984 12.99475,-2.94761 20.79663,-5.75 35.51953,-12.75195 5.71195,-2.7165 9.18332,-4.56709 11.95508,-7.53125 2.77176,-2.96416 4.61981,-6.76811 7.47265,-13.20703 1.63579,-3.692 3.0493,-6.3986 4.24219,-8.16797 1.19289,-1.76937 2.17335,-2.4863 2.54883,-2.60547 0.0185,-0.006 -0.14091,-0.10155 0.36719,0.1875 0.50809,0.28905 1.4296,1.01209 2.73633,2.23438 2.21081,2.06795 5.94053,4.55744 8.84961,5.93554 4.41657,2.09222 6.22912,2.46094 12.41992,2.46094 3.07616,0 4.95852,-0.0354 6.64453,-0.36133 1.68601,-0.32591 3.03557,-0.96314 4.72265,-1.89843 2.4242,-1.34394 5.66328,-4.14511 7.89258,-6.67774 2.59817,-2.95166 4.45718,-4.5811 6.42578,-5.50586 1.96861,-0.92475 4.23184,-1.24926 7.88282,-1.24219 4.86638,0.009 6.22537,0.25333 9.58593,1.71485 4.2777,1.86038 11.77578,3.44492 21.46094,4.83203 9.68516,1.38711 21.46248,2.50889 33.8418,3.15234 16.01245,0.83231 42.79335,0.44152 53.08594,-0.82812 2.83094,-0.34922 14.24205,-1.32363 25.03125,-2.12305 30.36483,-2.24983 45.72394,-5.51725 60.73632,-13.04297 2.72014,-1.3636 5.87397,-3.28687 8.68164,-5.21484 2.80768,-1.92797 5.20822,-3.77553 6.61719,-5.33203 0.79229,-0.87526 1.10044,-1.73482 1.58985,-2.92188 0.4894,-1.18705 0.98287,-2.58437 1.41601,-3.96094 0.43315,-1.37656 0.80369,-2.72103 1.03516,-3.83789 0.11573,-0.55843 0.19857,-1.05187 0.23047,-1.53711 0.0159,-0.24261 0.0248,-0.47832 -0.0156,-0.7871 -0.0405,-0.30879 -0.0509,-0.76183 -0.63672,-1.34766 -0.071,-0.071 -0.11796,-0.058 -0.18554,-0.11328 0.30691,-0.29272 0.68319,-0.53464 0.92968,-0.92578 0.6217,-0.98652 0.81905,-1.92885 1.17383,-3.36719 0.35478,-1.43835 0.71564,-3.22385 1.0625,-5.20313 0.69373,-3.95854 1.32451,-8.67887 1.64063,-12.76562 0.2271,-2.93609 0.57664,-7.14547 0.77343,-9.32422 l 0.36133,-3.99414 a 1.9457418,1.9457418 0 0 0 -0.97656,-1.86328 l 0.67773,-0.86133 a 1.9457418,1.9457418 0 0 0 0.41016,-1.34961 l -0.82812,-10.91602 c -0.46088,-6.06937 -1.29268,-13.24896 -1.93946,-16.39843 -0.57498,-2.79992 -2.36692,-8.99071 -4.11328,-14.65821 -0.87318,-2.83374 -1.72905,-5.50466 -2.4082,-7.49218 -0.33958,-0.99376 -0.63393,-1.81289 -0.87696,-2.42578 -0.12151,-0.30645 -0.22434,-0.55539 -0.34765,-0.80079 -0.0617,-0.12269 -0.11794,-0.2386 -0.25,-0.42382 -0.066,-0.0926 -0.14418,-0.20361 -0.33399,-0.3711 -0.1898,-0.16749 -0.53625,-0.50195 -1.3164,-0.50195 z"
       id="path7875" />
    <path
       transform="scale(0.26458333)"
       style="fill:#ff7f2a;stroke-width:0.71428573"
       d="m 371.55664,196.58984 c -4.99622,-0.0709 -10.88965,0.16523 -15.9082,0.74024 -5.82426,0.66732 -11.44384,2.2099 -15.75196,4.13281 -2.15405,0.96145 -3.97966,2.01304 -5.36523,3.15625 -1.38557,1.14322 -2.41975,2.39535 -2.60156,3.95508 -0.0773,0.6632 -0.098,1.34728 0.125,2.04883 0.22302,0.70155 0.69666,1.32962 1.30664,1.83398 1.21996,1.00872 3.01171,1.78868 6.10547,3.07617 2.58021,1.07377 8.37164,3.98927 12.64843,6.38477 4.38208,2.45448 14.48982,7.67976 22.5625,11.66601 8.03882,3.96954 17.23704,8.69746 20.29102,10.42188 9.00016,5.08191 23.13343,14.5782 29.51758,19.81836 14.09647,11.57049 33.15219,23.617 43.08594,27.04101 4.93816,1.70213 8.33821,2.30849 15.12304,2.71289 21.95733,1.30876 28.92849,0.77325 46.80078,-3.60156 13.78871,-3.37521 19.06914,-5.55113 26.07618,-10.77734 l 4.83593,-3.60742 a 1.3586975,1.3586975 0 0 0 0.2461,-1.94141 l -4.21875,-5.24023 c -3.38011,-4.19719 -4.77373,-6.29449 -6.66602,-7.22852 -0.6927,-0.34192 -1.49515,-0.27307 -2.2168,-0.0586 0.10741,-0.2213 0.27238,-0.38677 0.33008,-0.67578 0.12291,-0.61562 -0.12262,-1.30947 -0.40429,-1.70508 -0.28167,-0.39562 -0.57962,-0.66429 -0.92774,-1.00196 -17.89553,-17.35823 -31.45874,-28.53289 -43.42773,-35.7207 -18.21531,-10.93894 -37.13546,-18.10423 -56.89649,-21.53906 -5.75988,-1.00117 -10.03833,-1.12389 -25.26758,-0.74024 -10.05794,0.25338 -19.00014,0.17435 -25.8164,-0.18164 -3.40813,-0.17799 -6.28634,-0.42558 -8.48633,-0.73047 -2.19999,-0.30488 -3.77702,-0.73063 -4.27148,-0.98632 -1.05985,-0.54808 -2.3781,-0.72344 -4.21875,-0.91407 -1.84066,-0.19062 -4.11122,-0.30241 -6.60938,-0.33789 z"
       id="path7877" />
    <path
       transform="scale(0.26458333)"
       style="fill:#ff7f2a;stroke-width:0.71428573"
       d="m 466.09961,477.88086 c -3.87535,-0.075 -7.875,0.13999 -12.91797,0.4668 -24.20075,1.56831 -28.89686,2.38825 -50.17969,8.74609 -24.06297,7.18836 -28.38859,8.60707 -37.08203,12.16211 -4.80904,1.96658 -13.27019,5.2912 -18.75,7.36719 -10.48602,3.97256 -14.85224,5.9867 -19.35547,8.96679 -2.96964,1.96522 -10.66268,4.6008 -17.09179,5.62891 -2.17029,0.34706 -3.79924,0.59968 -5,0.86133 -0.60039,0.13082 -1.08796,0.25594 -1.5625,0.45312 -0.47455,0.19718 -1.18826,0.44106 -1.49414,1.50586 -0.15295,0.5324 -0.0307,1.13081 0.1582,1.49414 0.18893,0.36334 0.4026,0.57429 0.60351,0.75196 0.40184,0.35532 0.8088,0.58763 1.31055,0.85742 1.00351,0.53957 2.38118,1.15446 4.21289,1.98437 9.38026,4.25002 21.89981,9.13102 30.3711,11.83594 3.48429,1.11254 5.21009,1.70254 6.68359,1.85742 0.68646,0.0722 1.38913,-0.0304 1.99805,-0.27734 0.0539,0.11926 0.003,0.2915 0.0723,0.38086 0.3233,0.41907 0.63776,0.58726 0.92774,0.73437 1.15989,0.58847 2.61999,0.87222 5.57421,1.5625 8.20579,1.91736 17.58705,3.44075 25.23047,4.26172 3.82171,0.41049 7.20157,0.64471 9.82227,0.66016 1.31035,0.008 2.42673,-0.0361 3.36133,-0.1582 0.78598,-0.10265 1.44116,-0.22656 2.14258,-0.68946 0.15069,0.30665 0.34469,0.5755 0.51171,0.70508 0.72171,0.55991 1.11763,0.52745 1.71875,0.63477 1.20226,0.21463 2.99973,0.35389 5.74415,0.5 2.04047,0.10862 4.0169,0.22182 5.55273,0.3164 1.53583,0.0946 2.75546,0.18664 2.8457,0.19727 1.14256,0.13455 2.93927,0.0469 5.67578,-0.082 2.73652,-0.12889 6.18254,-0.34045 9.75977,-0.59375 7.15447,-0.50661 14.77318,-1.16908 18.36523,-1.69141 13.51844,-1.96577 33.94211,-7.37416 45.10938,-11.96875 9.15989,-3.76868 18.39574,-10.58943 36.36523,-26.64844 5.11897,-4.57473 8.40103,-7.61 10.29883,-9.58789 0.9489,-0.98894 1.54124,-1.6375 1.95703,-2.41992 0.2079,-0.39121 0.57345,-0.94533 0.1836,-1.91406 -0.19493,-0.48437 -0.65523,-0.88741 -1.0293,-1.04883 -0.37408,-0.16142 -0.66306,-0.17578 -0.90234,-0.17578 0.4094,0 0.0791,9.8e-4 -0.17188,-0.0547 -0.25093,-0.0557 -0.61883,-0.14562 -1.07226,-0.26172 -0.90688,-0.23218 -2.16724,-0.57213 -3.67774,-0.99414 -3.02099,-0.84401 -7.04525,-2.01229 -11.33203,-3.29687 -33.2182,-9.95421 -43.31004,-12.80432 -54.9375,-13.0293 z"
       id="path7879" />
    <path
       inkscape:connector-curvature="0"
       id="path3779-5"
       style="fill:none;stroke:#000000;stroke-width:0.25793126px;stroke-linecap:butt;stroke-linejoin:miter;stroke-opacity:1"
       d="m 145.71493,110.83164 c 0.45142,0.14493 0.73561,-0.34864 1.12231,-0.47235 0.40372,-0.006 0.77157,-0.1713 1.11078,-0.38807 0.36929,-0.22721 0.80941,0.0762 1.18739,-0.13456 0.37858,-0.10657 0.67319,-0.42676 1.07269,-0.44975 0.49658,-0.12565 0.94228,-0.39994 1.43553,-0.53632 0.69825,-0.25611 1.28081,-0.73787 1.95513,-1.04469 0.50594,-0.26148 1.03654,-0.51445 1.40585,-0.97054 0.11148,-0.11132 0.23265,-0.216 0.37433,-0.28511 m -32.34198,3.33329 c 3.2758,-2e-4 6.5516,2.6e-4 9.82739,0 1.45246,-0.58571 3.02478,-0.81838 4.51402,-1.27575 1.86661,-0.31846 3.76455,-0.75533 5.3619,-1.82005 2.12006,-1.12804 4.26005,-2.2145 6.36812,-3.36259 1.34756,-0.47004 2.26478,-1.65476 3.3292,-2.55577 1.27366,-1.346169 2.93474,-2.390061 3.86127,-4.02602 m -52.1607,48.56994 c 0.48974,-0.36366 0.93773,-0.87837 1.58166,-0.9415 0.682,-0.44174 1.41283,-0.80728 2.19133,-1.04426 1.13909,-0.41708 2.25748,-0.89483 3.3421,-1.43585 0.41503,-0.33479 0.94784,-0.44995 1.31798,-0.85478 0.50038,-0.3203 1.05457,-0.5687 1.47794,-1.00875 0.43225,-0.33169 0.8447,-0.71758 1.34574,-0.93921 l 0.0825,-0.0122 m -23.71675,4.34463 c 0.58705,-0.32875 1.00913,-0.97941 1.71249,-1.07247 0.22159,-0.34768 0.78567,-0.30244 1.04754,-0.66241 0.8696,-0.47318 1.82703,-0.7551 2.68475,-1.24759 0.63967,-0.26968 1.32371,-0.40858 1.97329,-0.64003 0.51088,-0.2386 0.90413,-0.65875 1.3248,-1.02564 1.03097,-0.27276 1.83363,-1.01618 2.66142,-1.65169 0.65573,-0.45679 1.3257,-0.90189 1.91677,-1.44498 m -25.72421,2.86651 c 2.78166,-0.55033 5.7615,-0.6345 8.1222,-2.44808 2.66409,-1.54206 5.69688,-2.13428 8.42497,-3.51834 2.88194,-1.17557 5.80501,-2.23103 8.83351,-2.93315 3.70555,-1.18534 7.41794,-2.47258 11.33631,-2.66095 3.24775,-0.22871 6.5358,-0.61781 9.77569,-0.26202 2.65779,0.43272 5.17223,1.38587 7.75739,2.02631 2.16216,0.68965 4.32186,1.35791 6.51228,1.92368 0.76964,0.26812 1.55488,0.57954 2.38253,0.55638 m -78.52423,-3.1818 c 4.1696,-0.57025 8.0234,-2.50901 11.76487,-4.32363 2.90109,-1.39758 3.32736,-7.16761 5.36271,-7.5736 2.45062,3.12952 7.56872,4.41649 10.60442,1.39824 1.99094,-3.23511 5.10689,-3.28806 8.08991,-1.68657 8.49543,1.82195 17.26819,2.02893 25.91694,1.62755 4.12734,-0.5232 8.28052,-0.72438 12.4213,-1.00858 5.73934,-0.74147 11.88624,-1.94613 16.20027,-6.12846 M 54.62327,97.41033 c 0.17504,0.992378 -0.50084,2.4437 0.68124,3.01517 1.86253,1.1434 4.08209,1.60988 6.25031,1.51896 1.06298,0.31708 1.9813,-0.46401 2.95927,-0.41548 0.74891,0.426 1.12002,1.32095 1.9676,1.62587 1.43314,0.75321 3.05256,1.09279 4.64951,1.26458 0.33563,0.0426 1.69259,-0.18007 1.43724,0.12156 -2.79653,0.92827 -5.49562,2.11598 -8.23204,3.19856 -1.67682,0.54159 -3.3694,1.08443 -4.89344,1.98809 -1.83328,0.89201 -3.66843,1.79696 -5.35072,2.95564 l -0.0381,0.022 m 0.56914,-15.294953 c 1.6332,0.0685 3.1557,0.866029 4.80926,0.76164 2.35271,-0.01429 4.70563,0.0011 7.05859,-0.009 1.12505,-0.85157 1.39486,1.123201 2.33264,1.356309 1.43245,0.883014 2.99384,1.596584 4.657,1.893924 1.21998,0.34818 2.47446,0.65213 3.75302,0.53377 0.61688,-0.002 1.49418,-0.0126 1.76896,-0.001 M 56.56057,90.795919 c 1.19002,-0.76205 2.7143,-0.68962 4.04262,-0.415398 1.15911,0.43457 2.13507,1.241927 3.06678,2.026607 0.80947,0.634352 1.00983,2.395493 2.29425,2.085801 0.9945,-0.50941 2.04824,-0.25822 3.10856,-0.30775 1.07256,-0.0281 2.17271,0.25237 2.9747,0.993582 1.13529,0.634849 1.64259,1.896117 2.28119,2.84009 1.20176,-0.433491 2.57847,-0.918901 3.93124,-0.537591 0.7891,0.51118 1.67232,0.83847 2.67082,0.484169 1.10243,0.0552 2.0473,0.979191 3.22442,0.812832 l 0.16381,-0.01701 0.16453,-0.0282 M 58.39268,86.44972 c 2.62336,-2.641981 7.45555,-0.695532 8.97868,2.291289 1.78089,0.998331 2.71428,-3.34517 5.3326,-2.433119 3.60064,-0.248941 6.74542,1.616459 9.45454,3.68541 2.20849,-2.952631 5.89961,-4.48242 9.77803,-3.723031 3.78405,0.165362 7.63204,2.966461 8.78019,6.7403 1.95106,3.566242 0.24451,8.379811 2.37616,11.575081 3.53562,0.52131 7.19285,0.2388 10.76867,0.1128 6.33838,-0.44362 12.78052,-0.79694 18.77913,-3.14063 4.31767,-1.32509 7.89155,-4.53685 11.45669,-7.28268 3.11027,-4.05103 7.44364,-7.39548 9.3655,-12.262501 M 131.51281,70.415846 c 0.72278,0.35768 1.40656,0.915262 2.24818,0.918385 1.03458,0.426339 2.06887,0.934964 3.20681,0.980517 0.92001,0.05203 1.84532,0.0095 2.76344,-0.04358 1.2877,-0.181481 2.37063,-0.970639 3.4369,-1.662857 0.6694,-0.4974 1.34691,-1.043905 1.78593,-1.766888 l 0.0261,-0.06057 M 88.08832,54.602912 c -1.28081,2.038734 2.93543,2.251445 4.00557,3.431439 3.20613,1.587011 6.26906,3.428407 9.56912,4.817955 4.2881,2.254461 8.50126,4.768448 12.11736,8.008119 2.5479,1.798357 5.09123,3.642807 7.85712,5.096181 2.15789,1.121812 4.54674,1.681884 6.97677,1.619034 3.46875,0.17498 7.02987,0.33273 10.37607,-0.752937 2.86661,-0.596304 5.92972,-1.184282 8.13023,-3.278802 0.3998,-0.287344 0.81855,-0.546673 1.2296,-0.817262 M 100.73637,52.242175 c -4.31375,0.0077 -9.02415,-0.563552 -12.64805,2.360738 -8.90841,4.539072 -16.59547,11.215394 -22.9573,18.87585 -3.61996,6.222547 -7.13768,12.606126 -9.40015,19.455368 -2.01593,6.379329 -2.18685,13.183889 -1.67673,19.771379 3.31192,10.84844 12.34187,18.85624 21.92271,24.31254 8.02385,4.00073 16.49086,7.67539 25.56172,8.18129 8.489,0.99867 17.24266,0.53974 25.35467,-2.30486 5.17531,-1.30736 7.63591,-3.91577 11.79061,-7.43535 4.91624,-4.333 9.24987,-9.35671 11.89504,-15.41784 4.74404,-9.3606 6.91081,-20.265169 5.16613,-30.669991 -2.17989,-8.512109 -6.01833,-17.053413 -13.02016,-22.675197 -6.90519,-7.308791 -16.31562,-12.590647 -26.36793,-13.762834 -4.84672,-0.01788 -9.8508,0.351749 -14.61131,-0.173546 -0.34552,-0.154222 -0.67218,-0.346398 -1.00925,-0.517547 z" />
    <path
       inkscape:connector-curvature="0"
       id="path3779-9"
       style="fill:none;stroke:#000000;stroke-width:0.25793126px;stroke-linecap:butt;stroke-linejoin:miter;stroke-opacity:1"
       d="m 145.71493,110.83164 c 0.45142,0.14493 0.73561,-0.34864 1.12231,-0.47235 0.40372,-0.006 0.77157,-0.1713 1.11078,-0.38807 0.36929,-0.22721 0.80941,0.0762 1.18739,-0.13456 0.37858,-0.10657 0.67319,-0.42676 1.07269,-0.44975 0.49658,-0.12565 0.94228,-0.39994 1.43553,-0.53632 0.69825,-0.25611 1.28081,-0.73787 1.95513,-1.04469 0.50595,-0.26148 1.03655,-0.51445 1.40586,-0.97054 0.11148,-0.11132 0.23265,-0.216 0.37433,-0.28511 m -32.34199,3.33329 c 3.2758,-2e-4 6.5516,2.6e-4 9.82739,0 1.45246,-0.58571 3.02478,-0.81838 4.51402,-1.27575 1.86661,-0.31846 3.76455,-0.75533 5.3619,-1.82005 2.12006,-1.12804 4.26005,-2.2145 6.36812,-3.36259 1.34756,-0.47004 2.26478,-1.65476 3.3292,-2.55577 1.27367,-1.346167 2.93475,-2.390067 3.86128,-4.026027 M 104.13816,145.4133 c 0.48974,-0.36366 0.93773,-0.87837 1.58166,-0.9415 0.682,-0.44174 1.41283,-0.80728 2.19133,-1.04426 1.13909,-0.41708 2.25748,-0.89483 3.3421,-1.43585 0.41503,-0.33479 0.94784,-0.44995 1.31798,-0.85478 0.50038,-0.3203 1.05457,-0.5687 1.47794,-1.00875 0.43225,-0.33169 0.8447,-0.71758 1.34574,-0.93921 l 0.0825,-0.0122 m -23.71674,4.34463 c 0.58705,-0.32875 1.00913,-0.97941 1.71248,-1.07247 0.22159,-0.34768 0.78568,-0.30244 1.04754,-0.66241 0.8696,-0.47318 1.82703,-0.7551 2.68475,-1.24759 0.63967,-0.26968 1.32371,-0.40858 1.9733,-0.64003 0.51087,-0.2386 0.90412,-0.65875 1.32479,-1.02564 1.03097,-0.27276 1.83363,-1.01618 2.66142,-1.65169 0.65573,-0.45679 1.3257,-0.90189 1.91677,-1.44498 m -25.72421,2.86651 c 2.78166,-0.55033 5.76151,-0.6345 8.1222,-2.44808 2.66409,-1.54206 5.69689,-2.13428 8.42497,-3.51834 2.88195,-1.17557 5.80501,-2.23103 8.83351,-2.93315 3.70555,-1.18534 7.41794,-2.47258 11.33631,-2.66095 3.24775,-0.22871 6.5358,-0.61781 9.77569,-0.26202 2.65779,0.43272 5.17223,1.38587 7.75739,2.02631 2.16216,0.68965 4.32186,1.35791 6.51228,1.92368 0.76964,0.26812 1.55488,0.57954 2.38253,0.55638 m -78.52423,-3.1818 c 4.1696,-0.57025 8.0234,-2.50901 11.76487,-4.32363 2.90109,-1.39758 3.32736,-7.16761 5.36272,-7.5736 2.45061,3.12952 7.56871,4.41649 10.60441,1.39824 1.99094,-3.23511 5.10689,-3.28806 8.08992,-1.68657 8.49542,1.82195 17.26818,2.02893 25.91693,1.62755 4.12734,-0.5232 8.28052,-0.72438 12.4213,-1.00858 5.73934,-0.74147 11.88624,-1.94613 16.20028,-6.12846 M 54.62327,97.410323 c 0.17505,0.99238 -0.50084,2.4437 0.68124,3.015177 1.86253,1.1434 4.08209,1.60988 6.25031,1.51896 1.06299,0.31708 1.9813,-0.46401 2.95927,-0.41548 0.74891,0.426 1.12002,1.32095 1.9676,1.62587 1.43314,0.75321 3.05256,1.09279 4.64951,1.26458 0.33563,0.0426 1.6926,-0.18007 1.43724,0.12156 -2.79653,0.92827 -5.49562,2.11598 -8.23204,3.19856 -1.67682,0.54159 -3.3694,1.08443 -4.89344,1.98809 -1.83328,0.89201 -3.66843,1.79696 -5.35072,2.95564 l -0.0381,0.022 m 0.56914,-15.294957 c 1.6332,0.0685 3.1557,0.86603 4.80926,0.76164 2.35271,-0.0143 4.70563,10e-4 7.05859,-0.009 1.12505,-0.85157 1.39486,1.1232 2.33265,1.35631 1.43244,0.883007 2.99383,1.596577 4.65699,1.893917 1.21998,0.34818 2.47446,0.65213 3.75303,0.53377 0.61687,-0.002 1.49417,-0.0126 1.76895,-0.001 M 56.56057,90.796023 c 1.19002,-0.76205 2.7143,-0.68962 4.04262,-0.41539 1.15911,0.43457 2.13507,1.24192 3.06678,2.0266 0.80948,0.63435 1.00984,2.3955 2.29425,2.0858 0.99451,-0.50941 2.04824,-0.25822 3.10856,-0.30775 1.07256,-0.0281 2.17271,0.25237 2.9747,0.99359 1.13529,0.63484 1.64259,1.89611 2.28119,2.84009 1.20177,-0.4335 2.57847,-0.91891 3.93124,-0.5376 0.7891,0.51118 1.67232,0.83847 2.67082,0.48417 1.10243,0.0552 2.0473,0.97919 3.22443,0.81284 l 0.1638,-0.017 0.16453,-0.0282 m -26.0908,-12.28346 c 2.62335,-2.64198 7.45554,-0.69553 8.97867,2.29129 1.78089,0.99833 2.71428,-3.34517 5.3326,-2.43312 3.60064,-0.24894 6.74543,1.61646 9.45454,3.68541 2.2085,-2.95263 5.89961,-4.48242 9.77803,-3.72303 3.78406,0.16537 7.63204,2.96646 8.78019,6.7403 1.95106,3.56625 0.24451,8.379817 2.37616,11.575087 3.53562,0.52131 7.19285,0.2388 10.76867,0.1128 6.33838,-0.44362 12.78052,-0.79694 18.77913,-3.14063 4.31767,-1.32509 7.89155,-4.536857 11.45669,-7.282687 3.11027,-4.05103 7.44364,-7.39548 9.3655,-12.2625 M 131.51281,70.415844 c 0.72278,0.35768 1.40656,0.915262 2.24818,0.918385 1.03458,0.426339 2.06887,0.934964 3.20681,0.980517 0.92001,0.05203 1.84532,0.0095 2.76344,-0.04358 1.2877,-0.181481 2.37063,-0.970639 3.4369,-1.662857 0.6694,-0.4974 1.34691,-1.043905 1.78593,-1.766888 l 0.0261,-0.06057 M 88.08832,54.60291 c -1.28081,2.038733 2.93543,2.251444 4.00557,3.431439 3.20613,1.587011 6.26906,3.428407 9.56912,4.817955 4.2881,2.254461 8.50126,4.768448 12.11736,8.008119 2.5479,1.798357 5.09123,3.642807 7.85712,5.096181 2.15789,1.121812 4.54674,1.681884 6.97677,1.619034 3.46875,0.17498 7.02987,0.33273 10.37607,-0.752937 2.86661,-0.596304 5.92972,-1.184282 8.13023,-3.278802 0.3998,-0.287344 0.81855,-0.546673 1.2296,-0.817262 M 100.73637,52.242173 c -4.31375,0.0077 -9.02415,-0.563552 -12.64805,2.360738 -8.90841,4.539071 -16.59547,11.215394 -22.9573,18.87585 -3.61996,6.222547 -7.13768,12.606122 -9.40015,19.455372 -2.01593,6.37932 -2.18685,13.183887 -1.67673,19.771377 3.31192,10.84844 12.34187,18.85624 21.92271,24.31254 8.02385,4.00073 16.49086,7.67539 25.56172,8.18129 8.489,0.99867 17.24266,0.53974 25.35467,-2.30486 5.17531,-1.30736 7.63591,-3.91577 11.79061,-7.43535 4.91624,-4.333 9.24987,-9.35671 11.89504,-15.41784 4.74405,-9.3606 6.91082,-20.265167 5.16614,-30.669997 -2.1799,-8.512105 -6.01834,-17.053409 -13.02017,-22.675193 -6.90519,-7.308791 -16.31562,-12.590647 -26.36793,-13.762834 -4.84672,-0.01788 -9.8508,0.351749 -14.61131,-0.173546 -0.34552,-0.154222 -0.67218,-0.346398 -1.00925,-0.517547 z" />
  </g>
</svg>
